<svg width="24" height="24" viewBox="0 0 24 24" fill="none" xmlns="http://www.w3.org/2000/svg">
<path fill-rule="evenodd" clip-rule="evenodd" d="M23.3765 4.14449C23.6719 4.90416 23.8781 5.78085 23.9343 7.05607C23.9906 8.33604 23.9953 8.7439 23.9953 12.0023C23.9953 15.2608 23.9812 15.6686 23.925 16.9486C23.8688 18.2238 23.6624 19.096 23.3672 19.8602C22.7436 21.4729 21.4684 22.7482 19.8554 23.3718C19.0959 23.6672 18.2192 23.8734 16.944 23.9296C15.6641 23.986 15.2562 23.9999 11.9978 23.9999C8.73931 23.9999 8.33127 23.986 7.05148 23.9296C5.77609 23.8734 4.90415 23.6672 4.13991 23.3718C3.34288 23.0718 2.61617 22.5982 2.01602 21.9887C1.40653 21.3885 0.933104 20.6666 0.628357 19.8602C0.332951 19.1005 0.126551 18.2238 0.0703257 16.9486C0.0141018 15.6686 0 15.2608 0 12.0023C0 8.7439 0.0141018 8.33604 0.0750877 7.0513C0.131312 5.77609 0.337529 4.90416 0.632936 4.13991C0.933104 3.34288 1.40653 2.61617 2.01602 2.01602C2.61617 1.40176 3.33812 0.932922 4.14467 0.628174C4.90415 0.332951 5.78085 0.126551 7.05606 0.0703262C8.33603 0.0141019 8.74389 0 12.0023 0C15.2608 0 15.6686 0.0141019 16.9534 0.0750879C18.2286 0.131312 19.1007 0.337529 19.8648 0.632936C20.6618 0.932921 21.3885 1.40652 21.9887 2.01602C22.6029 2.61617 23.0718 3.33812 23.3765 4.14449ZM21.3605 19.0819C21.5246 18.6599 21.7215 18.027 21.7731 16.8549C21.8293 15.589 21.8434 15.2139 21.8434 12.0117C21.8434 8.80946 21.8293 8.42981 21.7731 7.16394C21.7215 5.99641 21.5246 5.3589 21.3605 4.93694C21.1682 4.41645 20.8634 3.94761 20.4649 3.55843C20.0805 3.15992 19.6069 2.85517 19.0866 2.66306C18.6646 2.49896 18.0317 2.30209 16.8596 2.25044C15.5983 2.19422 15.2187 2.18011 12.0117 2.18011C8.80964 2.18011 8.4298 2.19422 7.16393 2.25044C5.99659 2.30209 5.35889 2.49896 4.93694 2.66306C4.41645 2.85517 3.94761 3.15992 3.55862 3.55843C3.15534 3.94303 2.85059 4.41645 2.6583 4.93694C2.4942 5.3589 2.29733 5.99183 2.24586 7.16394C2.18945 8.42505 2.17554 8.80946 2.17554 12.0117C2.17554 15.2139 2.18945 15.5937 2.24586 16.8596C2.29733 18.027 2.4942 18.6647 2.6583 19.0866C2.85059 19.6069 3.15534 20.0758 3.55386 20.4649C3.93827 20.8634 4.41187 21.1682 4.93217 21.3605C5.35413 21.5246 5.98707 21.7215 7.15917 21.7729C8.42046 21.8293 8.80486 21.8433 12.0071 21.8433C15.2093 21.8433 15.589 21.8293 16.8548 21.7729C18.0224 21.7215 18.6599 21.5246 19.0818 21.3605C20.1274 20.9572 20.9572 20.1274 21.3605 19.0819Z" fill="#A9ACB5"/>
<path fill-rule="evenodd" clip-rule="evenodd" d="M5.83691 12.0022C5.83691 8.59832 8.5985 5.83691 12.0021 5.83691C15.406 5.83691 18.1674 8.59832 18.1674 12.0022C18.1674 15.406 15.406 18.1674 12.0021 18.1674C8.5985 18.1674 5.83691 15.406 5.83691 12.0022ZM8.00292 12.0022C8.00292 14.2105 9.79404 16.0014 12.0021 16.0014C14.2105 16.0014 16.0014 14.2105 16.0014 12.0022C16.0014 9.79386 14.2105 8.00293 12.0021 8.00293C9.79404 8.00293 8.00292 9.79386 8.00292 12.0022Z" fill="#A9ACB5"/>
<path d="M19.851 5.59312C19.851 6.38795 19.2065 7.03243 18.4115 7.03243C17.6167 7.03243 16.9722 6.38795 16.9722 5.59312C16.9722 4.7981 17.6167 4.15381 18.4115 4.15381C19.2065 4.15381 19.851 4.7981 19.851 5.59312Z" fill="#A9ACB5"/>
</svg>
