<svg width="24" height="24" viewBox="0 0 24 24" fill="none" xmlns="http://www.w3.org/2000/svg">
<path d="M24.0028 4.5585C23.1103 4.95 22.1592 5.2095 21.1677 5.3355C22.1877 4.7265 22.9662 3.7695 23.3323 2.616C22.3812 3.183 21.3312 3.5835 20.2122 3.807C19.3091 2.8455 18.0221 2.25 16.618 2.25C13.8939 2.25 11.7009 4.461 11.7009 7.1715C11.7009 7.5615 11.7339 7.9365 11.8149 8.2935C7.72422 8.094 4.1046 6.1335 1.67301 3.147C1.2485 3.8835 0.999488 4.7265 0.999488 5.634C0.999488 7.338 1.87702 8.8485 3.18506 9.723C2.39454 9.708 1.61901 9.4785 0.961986 9.117C0.961986 9.132 0.961986 9.1515 0.961986 9.171C0.961986 11.562 2.66755 13.548 4.90412 14.0055C4.50361 14.115 4.06709 14.1675 3.61408 14.1675C3.29907 14.1675 2.98106 14.1495 2.68255 14.0835C3.32007 16.032 5.12913 17.4645 7.28021 17.511C5.60615 18.8205 3.48057 19.6095 1.17949 19.6095C0.77598 19.6095 0.388967 19.5915 0.00195312 19.542C2.18153 20.9475 4.76462 21.75 7.55021 21.75C16.6045 21.75 21.5547 14.25 21.5547 7.749C21.5547 7.5315 21.5472 7.3215 21.5367 7.113C22.5132 6.42 23.3338 5.5545 24.0028 4.5585Z" fill="#A9ACB5"/>
</svg>
