<svg width="16" height="16" viewBox="0 0 16 16" fill="none" xmlns="http://www.w3.org/2000/svg">
<path fill-rule="evenodd" clip-rule="evenodd" d="M6 1C6 0.447715 5.55228 0 5 0C4.44772 0 4 0.447715 4 1V1.5H2.5H2C0.89543 1.5 0 2.39543 0 3.5V7V14C0 15.1046 0.895431 16 2 16H14C15.1046 16 16 15.1046 16 14V7V3.5C16 2.39543 15.1046 1.5 14 1.5H13.5H12V1C12 0.447715 11.5523 0 11 0C10.4477 0 10 0.447715 10 1V1.5H8.5H7.5H6V1ZM6 3.5V2.5V1.5H4V2.5V3.5H2.5H2V6H1V8H2V14H14V8H15V6H14V3.5H13.5H12V2.5V1.5H10V2.5V3.5H8.5H7.5H6ZM6 3.5V4C6 4.55228 5.55228 5 5 5C4.44772 5 4 4.55228 4 4V3.5H6ZM10 3.5V4C10 4.55228 10.4477 5 11 5C11.5523 5 12 4.55228 12 4V3.5H10ZM14 6V7V8H2V7V6H14Z" fill="#72809D"/>
</svg>
