<svg width="23" height="26" viewBox="0 0 23 26" fill="none" xmlns="http://www.w3.org/2000/svg">
<path fill-rule="evenodd" clip-rule="evenodd" d="M17.875 3.25H20.3125C21.6582 3.25 22.75 4.3418 22.75 5.6875V8.125H0V5.6875C0 4.3418 1.0918 3.25 2.4375 3.25H4.875V0.8125C4.875 0.365625 5.24062 0 5.6875 0H7.3125C7.75938 0 8.125 0.365625 8.125 0.8125V3.25H14.625V0.8125C14.625 0.365625 14.9906 0 15.4375 0H17.0625C17.5094 0 17.875 0.365625 17.875 0.8125V3.25ZM2.4375 26C1.0918 26 0 24.9082 0 23.5625V9.75H22.75V23.5625C22.75 24.9082 21.6582 26 20.3125 26H2.4375ZM16.8594 13C16.5242 13 16.25 13.2742 16.25 13.6094V15.6406C16.25 15.9758 16.5242 16.25 16.8594 16.25H18.8906C19.2258 16.25 19.5 15.9758 19.5 15.6406V13.6094C19.5 13.2742 19.2258 13 18.8906 13H16.8594ZM16.25 20.1094C16.25 19.7742 16.5242 19.5 16.8594 19.5H18.8906C19.2258 19.5 19.5 19.7742 19.5 20.1094V22.1406C19.5 22.4758 19.2258 22.75 18.8906 22.75H16.8594C16.5242 22.75 16.25 22.4758 16.25 22.1406V20.1094ZM10.3594 13C10.0242 13 9.75 13.2742 9.75 13.6094V15.6406C9.75 15.9758 10.0242 16.25 10.3594 16.25H12.3906C12.7258 16.25 13 15.9758 13 15.6406V13.6094C13 13.2742 12.7258 13 12.3906 13H10.3594ZM9.75 20.1094C9.75 19.7742 10.0242 19.5 10.3594 19.5H12.3906C12.7258 19.5 13 19.7742 13 20.1094V22.1406C13 22.4758 12.7258 22.75 12.3906 22.75H10.3594C10.0242 22.75 9.75 22.4758 9.75 22.1406V20.1094ZM3.85938 13C3.52422 13 3.25 13.2742 3.25 13.6094V15.6406C3.25 15.9758 3.52422 16.25 3.85938 16.25H5.89062C6.22578 16.25 6.5 15.9758 6.5 15.6406V13.6094C6.5 13.2742 6.22578 13 5.89062 13H3.85938ZM3.25 20.1094C3.25 19.7742 3.52422 19.5 3.85938 19.5H5.89062C6.22578 19.5 6.5 19.7742 6.5 20.1094V22.1406C6.5 22.4758 6.22578 22.75 5.89062 22.75H3.85938C3.52422 22.75 3.25 22.4758 3.25 22.1406V20.1094Z" fill="white"/>
</svg>
