<svg width="16" height="16" viewBox="0 0 16 16" fill="none" xmlns="http://www.w3.org/2000/svg">
<path d="M1.53568 5.58936C1.73808 5.73218 2.34818 6.15636 3.36602 6.86169C4.38389 7.56702 5.16365 8.1101 5.70532 8.49098C5.76484 8.53272 5.89127 8.62348 6.08469 8.76336C6.27815 8.90334 6.43889 9.01645 6.5668 9.10273C6.6948 9.18899 6.84953 9.28574 7.03117 9.39285C7.21274 9.49987 7.38389 9.58036 7.5446 9.63365C7.70535 9.68738 7.85414 9.71399 7.99102 9.71399H8H8.00901C8.14589 9.71399 8.29475 9.68735 8.45549 9.63365C8.61614 9.58036 8.78745 9.49977 8.96886 9.39285C9.15037 9.28562 9.30511 9.18895 9.43311 9.10273C9.56111 9.01645 9.72173 8.90334 9.91524 8.76336C10.1086 8.62335 10.2352 8.53272 10.2947 8.49098C10.8423 8.1101 12.2352 7.1428 14.4733 5.58917C14.9078 5.28573 15.2708 4.91959 15.5624 4.49099C15.8542 4.06259 16 3.61316 16 3.14298C16 2.75006 15.8586 2.41373 15.5758 2.13399C15.293 1.85419 14.9582 1.71437 14.5714 1.71437H1.42851C0.970209 1.71437 0.617514 1.86911 0.370489 2.17858C0.123496 2.48812 0 2.87503 0 3.33928C0 3.71427 0.163745 4.12063 0.491077 4.5581C0.818379 4.99561 1.1667 5.33939 1.53568 5.58936Z" fill="white"/>
<path d="M15.107 6.54462C13.1549 7.86593 11.6725 8.89281 10.6608 9.62503C10.3215 9.87493 10.0462 10.07 9.83487 10.2098C9.6235 10.3497 9.34238 10.4925 8.99113 10.6383C8.64 10.7843 8.31276 10.8571 8.00913 10.8571H8.00003H7.99105C7.68749 10.8571 7.36006 10.7843 7.00893 10.6383C6.6578 10.4925 6.3765 10.3497 6.16519 10.2098C5.95394 10.07 5.67861 9.87493 5.33937 9.62503C4.53575 9.03579 3.05661 8.00885 0.901877 6.54462C0.562504 6.31858 0.26191 6.05949 0 5.76787V12.857C0 13.2501 0.139821 13.5862 0.419619 13.866C0.699354 14.1458 1.03572 14.2857 1.42861 14.2857H14.5715C14.9643 14.2857 15.3006 14.1458 15.5804 13.866C15.8603 13.5861 16 13.2501 16 12.857V5.76787C15.744 6.05345 15.4465 6.31255 15.107 6.54462Z" fill="white"/>
</svg>
