<svg width="16" height="16" viewBox="0 0 16 16" fill="none" xmlns="http://www.w3.org/2000/svg">
<path d="M1.53568 5.58935C1.73808 5.73217 2.34818 6.15635 3.36602 6.86168C4.38389 7.56701 5.16365 8.11009 5.70532 8.49097C5.76484 8.53271 5.89127 8.62347 6.08469 8.76335C6.27815 8.90333 6.43889 9.01644 6.5668 9.10272C6.6948 9.18898 6.84953 9.28573 7.03117 9.39284C7.21274 9.49986 7.38389 9.58035 7.5446 9.63364C7.70535 9.68737 7.85414 9.71398 7.99102 9.71398H8H8.00901C8.14589 9.71398 8.29475 9.68734 8.45549 9.63364C8.61614 9.58035 8.78745 9.49976 8.96886 9.39284C9.15037 9.28561 9.30511 9.18894 9.43311 9.10272C9.56111 9.01644 9.72173 8.90333 9.91524 8.76335C10.1086 8.62334 10.2352 8.53271 10.2947 8.49097C10.8423 8.11009 12.2352 7.14279 14.4733 5.58916C14.9078 5.28572 15.2708 4.91958 15.5624 4.49098C15.8542 4.06258 16 3.61315 16 3.14297C16 2.75005 15.8586 2.41372 15.5758 2.13398C15.293 1.85418 14.9582 1.71436 14.5714 1.71436H1.42851C0.970209 1.71436 0.617514 1.8691 0.370489 2.17857C0.123496 2.48811 0 2.87502 0 3.33927C0 3.71426 0.163745 4.12062 0.491077 4.55809C0.818379 4.9956 1.1667 5.33938 1.53568 5.58935Z" fill="#72809D"/>
<path d="M15.107 6.54457C13.1549 7.86588 11.6725 8.89276 10.6608 9.62498C10.3215 9.87488 10.0462 10.07 9.83487 10.2098C9.6235 10.3497 9.34238 10.4925 8.99113 10.6383C8.64 10.7843 8.31276 10.8571 8.00913 10.8571H8.00003H7.99105C7.68749 10.8571 7.36006 10.7843 7.00893 10.6383C6.6578 10.4925 6.3765 10.3497 6.16519 10.2098C5.95394 10.07 5.67861 9.87488 5.33937 9.62498C4.53575 9.03574 3.05661 8.0088 0.901877 6.54457C0.562504 6.31853 0.26191 6.05944 0 5.76782V12.857C0 13.2501 0.139821 13.5862 0.419619 13.866C0.699354 14.1458 1.03572 14.2857 1.42861 14.2857H14.5715C14.9643 14.2857 15.3006 14.1458 15.5804 13.866C15.8603 13.5861 16 13.2501 16 12.857V5.76782C15.744 6.0534 15.4465 6.3125 15.107 6.54457Z" fill="#72809D"/>
</svg>
