<svg width="23" height="23" viewBox="0 0 23 23" fill="none" xmlns="http://www.w3.org/2000/svg">
<path fill-rule="evenodd" clip-rule="evenodd" d="M8.11852 20.4666C7.34294 19.3476 6.85246 18.113 6.47458 16.8257C6.45924 16.7735 6.34308 16.714 6.27868 16.7191C5.72985 16.7621 5.18136 16.8127 4.63429 16.8742C4.18741 16.9245 3.74254 16.993 3.2566 17.059C4.54576 18.7204 6.14567 19.8539 8.11852 20.4666ZM3.24078 5.18522C4.26481 5.29733 5.2316 5.39752 6.19655 5.51325C6.40832 5.53869 6.47438 5.45441 6.52267 5.26964C6.83297 4.08292 7.34352 2.98526 8.01925 1.96305C8.06032 1.90094 8.09538 1.83487 8.13322 1.77061C6.14699 2.36993 4.54977 3.50182 3.24078 5.18522ZM14.0178 1.69703C14.8667 2.83761 15.356 4.08375 15.7441 5.37809C15.762 5.43771 15.8806 5.51066 15.9466 5.50539C16.5199 5.45934 17.0924 5.40167 17.664 5.33771C18.0863 5.29044 18.507 5.22868 18.9689 5.16803C17.6644 3.4902 16.0478 2.34972 14.0178 1.69703ZM18.9265 17.0775C18.9055 17.068 18.8859 17.0531 18.8648 17.0506C17.8823 16.9371 16.8994 16.8264 15.9171 16.7104C15.7618 16.692 15.7518 16.7922 15.7235 16.8976C15.4844 17.7856 15.149 18.6359 14.7001 19.4387C14.5011 19.7946 14.2817 20.139 14.0666 20.4969C15.6905 20.1209 18.1014 18.4225 18.9265 17.0775ZM16.1257 15.4474C16.1323 15.4485 16.1629 15.4554 16.1941 15.4593C17.3273 15.6005 18.4602 15.7441 19.5946 15.8754C19.6594 15.8828 19.7742 15.8044 19.801 15.7393C20.081 15.06 20.3767 14.385 20.6097 13.6893C20.8169 13.0704 20.9088 12.4207 20.9272 11.7594H16.5257C16.392 12.9925 16.2603 14.2065 16.1257 15.4474ZM16.5265 10.4611H20.9137C20.9194 10.4417 20.9284 10.4266 20.9275 10.4122C20.8437 9.00778 20.4479 7.69328 19.7937 6.45143C19.7274 6.3255 19.6479 6.33781 19.5356 6.35324C18.8378 6.44889 18.1393 6.5402 17.4403 6.62707C16.9918 6.68283 16.542 6.72848 16.1236 6.77521C16.2584 8.00851 16.391 9.22209 16.5265 10.4611ZM5.69596 11.76H1.28761C1.3772 13.1881 1.76265 14.5126 2.42325 15.761C2.48487 15.8775 2.55172 15.8935 2.6735 15.8764C3.37921 15.7776 4.086 15.6864 4.79313 15.598C5.24059 15.5421 5.68927 15.4956 6.09845 15.4494C5.9632 14.2096 5.83078 12.9956 5.69596 11.76ZM6.09914 6.7839C6.1088 6.78771 6.08756 6.77419 6.065 6.77135C4.91583 6.62755 3.76676 6.48239 2.61646 6.34821C2.55748 6.34137 2.45851 6.41545 2.42726 6.47682C2.26222 6.80124 2.09625 7.12697 1.96148 7.46457C1.57838 8.42404 1.34317 9.41843 1.29151 10.462H5.69635C5.8319 9.22395 5.96481 8.01032 6.09914 6.7839ZM7.74235 16.5989C7.96906 17.6317 8.68337 19.1531 9.31682 19.9053C9.52868 20.157 9.77814 20.3879 10.0449 20.5805C10.8777 21.1816 11.7572 21.0746 12.5384 20.2959C13.0957 19.7404 13.5334 19.0985 13.8387 18.3742C14.0789 17.8045 14.2896 17.2223 14.5303 16.6025C12.2278 16.4599 9.9967 16.4639 7.74235 16.5989ZM14.4882 5.6257C14.3014 4.8839 14.0354 4.21012 13.6922 3.56803C13.3594 2.94537 13.017 2.32555 12.4653 1.86017C12.0954 1.54815 11.6989 1.28385 11.1915 1.26427C10.5693 1.24024 10.085 1.5356 9.66423 1.95206C8.95368 2.65523 8.48351 3.51075 8.13464 4.43766C7.99089 4.81954 7.86139 5.2068 7.71364 5.62511C9.99914 5.76422 12.2302 5.76227 14.4882 5.6257ZM7.36662 15.3615C9.89738 15.1914 12.3443 15.2015 14.8017 15.3552C15.0447 14.1574 15.1854 12.9668 15.2093 11.7596H6.95827C7.09538 12.9692 7.22985 14.1553 7.36662 15.3615ZM14.7994 6.86828C12.3238 7.03449 9.87033 7.02277 7.41955 6.87179C7.17873 8.07575 7.03634 9.26081 7.01344 10.468H15.2136C15.1785 9.25471 15.0472 8.06847 14.7994 6.86828ZM22.2235 11.1133C22.2195 17.2623 17.2341 22.2341 11.0803 22.226C4.9316 22.2179 -0.00609787 17.2268 5.65235e-06 11.0261C0.00596269 4.9964 5.02374 -0.00668276 11.0584 6.70043e-06C17.2534 0.00689148 22.2275 4.95787 22.2235 11.1133Z" fill="white"/>
</svg>
