<svg width="44" height="41" viewBox="0 0 44 41" fill="none" xmlns="http://www.w3.org/2000/svg">
<path fill-rule="evenodd" clip-rule="evenodd" d="M0 29.1547C0.31226 28.058 0.63606 26.9644 0.934714 25.864C1.83584 22.5436 2.72853 19.2208 3.62079 15.8979C3.73834 15.4603 3.92831 15.0921 4.42779 15.0138C5.15626 14.8998 5.64557 15.5055 5.44122 16.2688C4.87715 18.3755 4.3074 20.4806 3.73929 22.5862C3.14163 24.801 2.54071 27.0151 1.94633 29.231C1.63846 30.3783 2.17833 31.3199 3.32257 31.6235C11.3711 33.7593 19.4205 35.8921 27.4695 38.0261C28.7793 38.3732 30.088 38.7245 31.3984 39.0695C32.5711 39.3782 33.4693 38.8667 33.7899 37.7026C34.2523 36.0236 34.7038 34.3416 35.1667 32.6628C35.3023 32.1711 35.6859 31.8734 36.1187 31.8934C36.556 31.9138 36.9379 32.241 36.9933 32.69C37.0166 32.879 36.9755 33.0849 36.925 33.2729C36.4802 34.9275 36.0306 36.581 35.5747 38.2326C35.0023 40.3067 33.0501 41.4142 30.9465 40.8564C21.5839 38.3742 12.221 35.8926 2.86055 33.4024C1.38269 33.0093 0.437388 32.0698 0.0784526 30.5766C0.0661379 30.5256 0.0267824 30.4809 0 30.4332V29.1547Z" fill="#72809D"/>
<path fill-rule="evenodd" clip-rule="evenodd" d="M9.15682 27.224C9.62466 27.89 10.1832 28.1132 10.8594 28.113C20.6231 28.1112 30.3867 28.1144 40.1504 28.109C41.4079 28.1082 42.1201 27.3635 42.1358 26.0797C42.1435 25.4502 42.1608 24.8193 42.1258 24.1918C42.1125 23.9519 42.0218 23.6709 41.8708 23.4911C38.8665 19.9135 35.8483 16.3479 32.8327 12.7801C32.2847 12.1319 31.7123 12.1389 31.1678 12.8008C28.6433 15.8694 26.1213 18.9402 23.5929 22.0056C23.032 22.6856 22.5359 22.6968 21.9191 22.073C20.9481 21.0904 19.9789 20.1059 19.0083 19.1228C18.3327 18.4386 17.9041 18.4423 17.2187 19.137C14.7368 21.6524 12.2558 24.1688 9.77149 26.6817C9.58846 26.8668 9.38111 27.0273 9.15682 27.224M42.0389 20.7561C42.0718 20.7453 42.1048 20.7345 42.1378 20.7236V20.2504V15.9032C42.1377 11.9366 42.14 7.97001 42.1363 4.00336C42.1351 2.68942 41.3998 1.89238 40.1757 1.89194C30.3996 1.88824 20.6236 1.88842 10.8475 1.89185C9.66304 1.89229 8.89399 2.67648 8.89364 3.86906C8.89138 10.7191 8.89234 17.5691 8.89355 24.4192C8.89364 24.541 8.91092 24.6625 8.92021 24.7841C8.95711 24.8068 8.99393 24.8294 9.03075 24.8519C9.13425 24.7127 9.22307 24.5586 9.34342 24.4363C11.5664 22.177 13.79 19.9184 16.0203 17.6665C17.2656 16.4092 18.9634 16.4161 20.214 17.6728C20.942 18.4044 21.6639 19.1425 22.3899 19.8762C22.4774 19.9646 22.5742 20.0432 22.679 20.1374C22.7977 20.004 22.8969 19.8995 22.9883 19.7885C25.224 17.0679 27.457 14.3449 29.6946 11.6261C31.0282 10.0057 32.8994 9.97538 34.26 11.5652C35.7549 13.3116 37.2312 15.0742 38.716 16.8295C39.8235 18.1386 40.9312 19.4473 42.0389 20.7561M25.5228 0.0031853C30.3604 0.0031853 35.1982 0.00820202 40.0359 1.68403e-05C41.3946 -0.00227149 42.5187 0.459971 43.3236 1.60044C43.7716 2.23536 44.0003 2.94642 44 3.73352C43.9981 11.2572 44.0019 18.781 43.9967 26.3047C43.9954 28.3292 42.3541 29.9954 40.358 29.9964C30.4659 30.0013 20.574 30.0009 10.6819 29.997C8.67274 29.9962 7.04876 28.3494 7.0089 26.2816C6.99162 25.389 7.00482 24.4959 7.00482 23.6029C7.00465 17.0454 7.00291 10.4876 7.00595 3.92996C7.00682 2.00882 8.14612 0.511283 9.93491 0.101407C10.3102 0.0154191 10.7085 0.00749792 11.0963 0.00705786C15.9051 0.00107299 20.7139 0.00309729 25.5228 0.0031853" fill="#72809D"/>
<path fill-rule="evenodd" clip-rule="evenodd" d="M14.7783 9.48013C14.7726 10.4616 15.5186 11.2256 16.489 11.2321C17.4584 11.2386 18.2217 10.4765 18.2218 9.50206C18.222 8.54098 17.4361 7.74861 16.4901 7.75592C15.5561 7.76315 14.7837 8.54106 14.7783 9.48013M16.4906 13C14.5661 12.9984 12.9892 11.4093 13.0001 9.48259C13.011 7.57325 14.5774 6.00995 16.4896 6.00009C18.4114 5.99023 19.9998 7.57481 20 9.50197C20.0002 11.4287 18.4223 13.0016 16.4906 13" fill="#72809D"/>
</svg>
