<svg width="17" height="19" viewBox="0 0 17 19" fill="none" xmlns="http://www.w3.org/2000/svg">
<path fill-rule="evenodd" clip-rule="evenodd" d="M8.5 18C8.5 18 16 13.3636 16 7.95455C16 6.11009 15.2098 4.34117 13.8033 3.03694C12.3968 1.73271 10.4891 1 8.5 1C6.51088 1 4.60322 1.73271 3.1967 3.03694C1.79018 4.34117 1 6.11009 1 7.95455C1 13.3636 8.5 18 8.5 18ZM6.75 5C5.23122 5 4 6.23122 4 7.75C4 9.26878 5.23122 10.5 6.75 10.5C8.26874 10.5 9.5 9.26879 9.5 7.75C9.5 6.23121 8.26874 5 6.75 5ZM5 7.75C5 6.7835 5.7835 6 6.75 6C7.71646 6 8.5 6.78351 8.5 7.75C8.5 8.71649 7.71646 9.5 6.75 9.5C5.7835 9.5 5 8.7165 5 7.75Z" fill="#72809D"/>
<path d="M8.5 18L8.23709 18.4253C8.39821 18.5249 8.60179 18.5249 8.76291 18.4253L8.5 18ZM13.8033 3.03694L14.1433 2.67032L14.1433 2.6703L13.8033 3.03694ZM3.1967 3.03694L3.53667 3.40357L3.53667 3.40357L3.1967 3.03694ZM15.5 7.95455C15.5 10.4436 13.759 12.829 11.9003 14.6484C10.9837 15.5455 10.0651 16.2792 9.37487 16.7888C9.0302 17.0433 8.74356 17.2412 8.54404 17.3748C8.44431 17.4416 8.36643 17.4923 8.31404 17.5259C8.28785 17.5427 8.26803 17.5553 8.25505 17.5635C8.24856 17.5675 8.24378 17.5705 8.24077 17.5724C8.23926 17.5734 8.2382 17.574 8.23758 17.5744C8.23728 17.5746 8.23708 17.5747 8.237 17.5748C8.23696 17.5748 8.23698 17.5748 8.23696 17.5748C8.23701 17.5748 8.23709 17.5747 8.5 18C8.76291 18.4253 8.76305 18.4252 8.76321 18.4251C8.76331 18.4251 8.7635 18.4249 8.76369 18.4248C8.76406 18.4246 8.76455 18.4243 8.76515 18.4239C8.76635 18.4232 8.768 18.4221 8.7701 18.4208C8.7743 18.4182 8.78028 18.4145 8.78798 18.4096C8.80338 18.3999 8.82568 18.3858 8.85442 18.3673C8.91189 18.3304 8.99514 18.2762 9.10049 18.2057C9.31113 18.0646 9.61043 17.858 9.96888 17.5933C10.6849 17.0646 11.6413 16.3011 12.5997 15.363C14.491 13.5119 16.5 10.8746 16.5 7.95455H15.5ZM13.4634 3.40356C14.7724 4.61745 15.5 6.25541 15.5 7.95455H16.5C16.5 5.96477 15.6472 4.06488 14.1433 2.67032L13.4634 3.40356ZM8.5 1.5C10.3682 1.5 12.153 2.18851 13.4634 3.40358L14.1433 2.6703C12.6406 1.27691 10.61 0.5 8.5 0.5V1.5ZM3.53667 3.40357C4.84703 2.18851 6.63181 1.5 8.5 1.5V0.5C6.38994 0.5 4.35941 1.27691 2.85673 2.67031L3.53667 3.40357ZM1.5 7.95455C1.5 6.2554 2.22758 4.61746 3.53667 3.40357L2.85673 2.67031C1.35277 4.06488 0.5 5.96477 0.5 7.95455H1.5ZM8.5 18C8.76291 17.5747 8.76299 17.5748 8.76304 17.5748C8.76302 17.5748 8.76304 17.5748 8.763 17.5748C8.76292 17.5747 8.76272 17.5746 8.76242 17.5744C8.7618 17.574 8.76074 17.5734 8.75923 17.5724C8.75622 17.5705 8.75144 17.5675 8.74495 17.5635C8.73197 17.5553 8.71215 17.5427 8.68596 17.5259C8.63357 17.4923 8.55569 17.4416 8.45596 17.3748C8.25644 17.2412 7.9698 17.0433 7.62513 16.7888C6.9349 16.2792 6.01633 15.5455 5.09974 14.6484C3.241 12.829 1.5 10.4436 1.5 7.95455H0.5C0.5 10.8746 2.509 13.5119 4.40026 15.363C5.35867 16.3011 6.3151 17.0646 7.03112 17.5933C7.38957 17.858 7.68887 18.0646 7.89951 18.2057C8.00486 18.2762 8.08811 18.3304 8.14558 18.3673C8.17432 18.3858 8.19662 18.3999 8.21202 18.4096C8.21972 18.4145 8.2257 18.4182 8.2299 18.4208C8.232 18.4221 8.23365 18.4232 8.23485 18.4239C8.23545 18.4243 8.23594 18.4246 8.23631 18.4248C8.2365 18.4249 8.23669 18.4251 8.23679 18.4251C8.23695 18.4252 8.23709 18.4253 8.5 18ZM4.5 7.75C4.5 6.50736 5.50736 5.5 6.75 5.5V4.5C4.95508 4.5 3.5 5.95508 3.5 7.75H4.5ZM6.75 10C5.50736 10 4.5 8.99264 4.5 7.75H3.5C3.5 9.54492 4.95508 11 6.75 11V10ZM9 7.75C9 8.99264 7.9926 10 6.75 10V11C8.54487 11 10 9.54494 10 7.75H9ZM6.75 5.5C7.9926 5.5 9 6.50736 9 7.75H10C10 5.95506 8.54487 4.5 6.75 4.5V5.5ZM6.75 5.5C5.50736 5.5 4.5 6.50736 4.5 7.75H5.5C5.5 7.05964 6.05964 6.5 6.75 6.5V5.5ZM9 7.75C9 6.50736 7.9926 5.5 6.75 5.5V6.5C7.44033 6.5 8 7.05966 8 7.75H9ZM6.75 10C7.9926 10 9 8.99264 9 7.75H8C8 8.44034 7.44033 9 6.75 9V10ZM4.5 7.75C4.5 8.99264 5.50736 10 6.75 10V9C6.05964 9 5.5 8.44036 5.5 7.75H4.5Z" fill="#72809D"/>
</svg>
