<svg width="30" height="30" viewBox="0 0 30 30" fill="none" xmlns="http://www.w3.org/2000/svg">
<path d="M10 9C9.44772 9 9 9.44772 9 10C9 10.5523 9.44772 11 10 11V9ZM20 11C20.5523 11 21 10.5523 21 10C21 9.44772 20.5523 9 20 9V11ZM10 14C9.44772 14 9 14.4477 9 15C9 15.5523 9.44772 16 10 16V14ZM14 16C14.5523 16 15 15.5523 15 15C15 14.4477 14.5523 14 14 14V16ZM25.2678 20.2678L25.9748 20.975L25.975 20.9748L25.2678 20.2678ZM9 21V20C8.73478 20 8.48043 20.1054 8.29289 20.2929L9 21ZM4 26H3C3 26.4045 3.24364 26.7691 3.61732 26.9239C3.99099 27.0787 4.42111 26.9931 4.70711 26.7071L4 26ZM25.2678 4.73223L25.9749 4.02515L25.9749 4.02508L25.2678 4.73223ZM10 11H20V9H10V11ZM20 9H10V11H20V9ZM10 16H14V14H10V16ZM14 14H10V16H14V14ZM25 18.5C25 18.8978 24.842 19.2794 24.5606 19.5608L25.975 20.9748C26.6312 20.3184 27 19.4282 27 18.5H25ZM24.5608 19.5606C24.2794 19.842 23.8978 20 23.5 20V22C24.4282 22 25.3184 21.6312 25.9748 20.975L24.5608 19.5606ZM23.5 20H9V22H23.5V20ZM8.29289 20.2929L3.29289 25.2929L4.70711 26.7071L9.70711 21.7071L8.29289 20.2929ZM5 26V6.5H3V26H5ZM5 6.5C5 6.10217 5.15804 5.72064 5.43934 5.43934L4.02512 4.02512C3.36874 4.6815 3 5.57175 3 6.5H5ZM5.43934 5.43934C5.72064 5.15804 6.10217 5 6.5 5V3C5.57175 3 4.6815 3.36874 4.02512 4.02512L5.43934 5.43934ZM6.5 5H23.5V3H6.5V5ZM23.5 5C23.8978 5 24.2793 5.15803 24.5607 5.43938L25.9749 4.02508C25.3185 3.36875 24.4282 3 23.5 3V5ZM24.5607 5.43931C24.842 5.72062 25 6.10218 25 6.5H27C27 5.57174 26.6312 4.68152 25.9749 4.02515L24.5607 5.43931ZM25 6.5V18.5H27V6.5H25Z" fill="#A9ACB5"/>
</svg>
