<svg width="16" height="16" viewBox="0 0 16 16" fill="none" xmlns="http://www.w3.org/2000/svg">
<path fill-rule="evenodd" clip-rule="evenodd" d="M15.1111 11.1111C14.0444 11.1111 12.9778 10.9333 11.9111 10.5778C11.6444 10.4889 11.2889 10.5778 11.0222 10.7556L9.06667 12.7111C6.57781 11.4667 4.53333 9.33333 3.2 6.84444L5.15556 4.88889C5.42222 4.62222 5.51111 4.26667 5.33333 4C5.06667 3.02222 4.88889 1.95556 4.88889 0.888889C4.88889 0.355556 4.53333 0 4 0H0.888889C0.355556 0 0 0.355556 0 0.888889C0 9.24444 6.75556 16 15.1111 16C15.6444 16 16 15.6444 16 15.1111V12C16 11.4667 15.6444 11.1111 15.1111 11.1111ZM14.2222 8H16C16 3.55556 12.4444 0 8 0V1.77778C11.4667 1.77778 14.2222 4.53333 14.2222 8ZM12.4444 8H10.6667C10.6667 6.48889 9.51111 5.33333 8 5.33333V3.55556C10.4889 3.55556 12.4444 5.51111 12.4444 8Z" fill="white"/>
</svg>
