<svg width="21" height="22" viewBox="0 0 21 22" fill="none" xmlns="http://www.w3.org/2000/svg">
<path fill-rule="evenodd" clip-rule="evenodd" d="M14.7473 16.4355C14.6531 16.7392 14.5714 16.9308 14.5355 17.1311C14.408 17.845 14.0974 18.4622 13.6842 19.0461C13.2685 19.6336 12.8945 20.2531 12.5172 20.8683C12.3181 21.1928 12.3643 21.4833 12.6819 21.7273C12.9812 21.9573 13.2931 21.9454 13.4924 21.6661C14.2761 20.5673 15.0311 19.4464 15.776 18.3193C15.8452 18.2146 15.8224 17.9701 15.7483 17.8541C15.4533 17.3933 15.1211 16.9577 14.7473 16.4355V16.4355ZM13.5994 14.3669C13.6284 14.3981 13.6575 14.4294 13.6866 14.4607C13.8689 14.2914 14.164 14.1521 14.215 13.9483C14.5263 12.7066 14.8059 11.455 15.0459 10.1966C15.1573 9.6117 14.6408 9.5604 14.2648 9.44232C13.9087 9.33051 13.6268 9.43093 13.5069 9.8277C13.1373 11.0522 12.7669 12.2766 12.406 13.5039C12.2982 13.87 12.4537 14.1234 12.8027 14.2214C13.0618 14.2942 13.3334 14.3201 13.5994 14.3669V14.3669ZM18.9091 7.60821C18.9071 6.6714 18.1886 5.91788 17.2816 5.90137C16.3947 5.88539 15.6398 6.66545 15.6442 7.59326C15.6491 8.57061 16.3705 9.29926 17.3202 9.2863C18.1975 9.27439 18.9112 8.52066 18.9091 7.60821V7.60821ZM9.05132 2.08164C9.05539 0.940855 8.14919 0.0100068 7.02515 7.96618e-05C5.89907 -0.00984744 4.97387 0.909297 4.96573 2.0459C4.95689 3.27048 5.8522 4.22014 7.01519 4.21972C8.14421 4.21941 9.04715 3.27121 9.05132 2.08164V2.08164ZM3.24322 14.5604C3.17521 14.7833 3.14003 14.8772 3.11808 14.9744C2.84004 16.2003 2.41947 17.352 1.61799 18.3381C1.20759 18.843 0.858189 19.4015 0.49801 19.9473C0.328747 20.2039 0.153995 20.4731 0.0621966 20.7634C-0.072197 21.1886 -0.00276369 21.5961 0.408448 21.8587C0.797905 22.1075 1.15209 22.0082 1.47119 21.7128C1.60894 21.5854 1.74527 21.4512 1.8572 21.3004C2.63601 20.2514 3.42153 19.2069 4.17442 18.1384C4.39827 17.8206 4.53937 17.4365 4.68658 17.0693C4.73395 16.9511 4.72968 16.7552 4.6637 16.6537C4.22393 15.9775 3.76117 15.3173 3.24322 14.5604V14.5604ZM0.0684995 10.3253C0.0769372 10.9203 0.229223 11.1283 0.66402 11.2551C0.906985 11.326 1.15473 11.3804 1.40207 11.4344C2.0783 11.5821 2.36752 11.3879 2.52367 10.6909C2.87582 9.11963 3.22716 7.54823 3.58205 5.97766C3.73342 5.30784 3.55633 4.95548 2.96894 4.78087C1.99169 4.49026 1.76641 4.57898 1.52121 5.3906C1.10614 6.76472 0.701532 8.14228 0.294691 9.51912C0.201978 9.83261 0.117906 10.1487 0.0684995 10.3253V10.3253ZM17.2638 13.4835C17.9366 14.4109 19.1364 15.2298 20.1686 15.4836C20.4989 15.5648 20.822 15.5556 20.9634 15.1448C21.0879 14.7824 20.8769 14.5915 20.6033 14.4455C20.2285 14.2458 19.8643 14.0113 19.4693 13.8685C18.8633 13.6496 18.509 13.2412 18.2902 12.6308C18.1043 12.1123 17.7957 11.6407 17.6047 11.1237C17.3208 10.3553 16.8197 10.0578 16.0327 10.1426C15.6894 10.1796 15.5115 10.298 15.4386 10.6437C15.2101 11.7293 14.9888 12.8175 14.7197 13.8928C14.5482 14.5779 14.7169 15.155 15.0699 15.7193C15.9843 17.1815 16.8821 18.6547 17.8076 20.1095C18.1484 20.645 18.5184 21.1693 18.9386 21.6386C19.0748 21.7909 19.4629 21.8609 19.6462 21.7725C19.8608 21.6692 20.1053 21.3524 20.1068 21.1267C20.1089 20.7906 19.9622 20.4203 19.7867 20.1218C18.8689 18.5598 17.9187 17.0178 16.9906 15.4622C16.9031 15.3154 16.8246 15.1062 16.8568 14.9513C16.9547 14.4814 17.1089 14.0239 17.2638 13.4835V13.4835ZM7.08482 9.64253C7.33623 9.99886 7.52633 10.2751 7.72385 10.5456C7.82389 10.6825 7.91284 10.8541 8.04906 10.9327C8.84343 11.3917 9.63789 11.854 10.4575 12.262C10.9551 12.5098 11.3701 12.3503 11.5416 11.9509C11.7101 11.5579 11.5162 11.1786 11.0329 10.9049C10.4267 10.5615 9.8161 10.2227 9.2342 9.83909C9.02418 9.70074 8.8421 9.4628 8.73241 9.22821C8.28664 8.27468 7.85774 7.31186 7.45374 6.3389C7.07242 5.42048 6.48727 4.92758 5.45451 5.04388C4.8044 5.11703 4.6144 5.20366 4.47472 5.84557C4.17269 7.23359 3.8976 8.62861 3.56273 10.0082C3.25898 11.2597 3.17775 12.4214 3.94253 13.5856C5.5029 15.9603 6.97777 18.3946 8.49687 20.7983C8.67965 21.0875 8.89344 21.3669 9.13742 21.602C9.51855 21.9695 10.0239 21.9989 10.4456 21.7165C10.8773 21.4274 10.9542 20.9914 10.8293 20.5221C10.755 20.2425 10.6279 19.969 10.481 19.7198C9.15084 17.4612 7.80904 15.21 6.47863 12.9518C6.38815 12.7983 6.2812 12.5843 6.31841 12.4341C6.54155 11.5342 6.80465 10.6447 7.08482 9.64253V9.64253Z" fill="#2C3F58"/>
</svg>
