<svg width="26" height="27" viewBox="0 0 26 27" fill="none" xmlns="http://www.w3.org/2000/svg">
<path fill-rule="evenodd" clip-rule="evenodd" d="M12.9816 21.06V14.8369C12.883 14.8525 12.7934 14.859 12.7079 14.8815C11.3624 15.235 10.0188 15.5956 8.67195 15.944C7.76102 16.1796 6.99947 15.8654 6.62556 15.0082C6.05674 13.7038 5.51623 12.3843 5.03663 11.045C4.73528 10.2035 4.83874 9.35001 5.50726 8.6869C6.16542 8.03402 6.96201 7.64237 7.91726 7.88172C8.77986 8.0978 9.31389 8.72658 9.67483 9.50238C10.022 10.2483 10.3444 11.006 10.6634 11.7645C10.7494 11.9691 10.8404 12.021 11.0657 11.9625C12.0656 11.7032 13.0713 11.466 14.0755 11.2235C15.3357 10.9191 16.2801 11.6471 16.2836 12.9376C16.2895 15.1279 16.2853 17.318 16.2853 19.5083V19.8866C17.1822 19.5507 18.0395 19.2308 18.8957 18.9085C20.0308 18.4811 21.1572 18.029 22.3023 17.631C23.0876 17.3582 23.4316 16.7954 23.5303 16.0268C23.5998 15.4849 23.765 15.0087 24.3322 14.8034C25.2145 14.4843 25.9762 15.031 25.9988 15.9908C26.0376 17.6326 25.0206 19.206 23.4454 19.805C20.559 20.9027 17.6576 21.9611 14.7609 23.0316C12.0815 24.0218 9.4005 25.0079 6.71923 25.9929C5.94782 26.2763 5.25824 26.0533 4.97139 25.4385C4.64257 24.734 4.96688 24.0188 5.76665 23.7233C8.05163 22.8785 10.3393 22.0411 12.6258 21.2001C12.7439 21.1567 12.8601 21.108 12.9816 21.06" fill="white"/>
<path fill-rule="evenodd" clip-rule="evenodd" d="M1.30542 9.06178C1.82559 9.04767 2.16172 9.35493 2.39071 9.83281C3.12505 11.3652 3.86575 12.8945 4.60218 14.4259C4.93152 15.1108 5.27471 15.79 5.57924 16.4859C6.01865 17.4903 7.19583 17.8171 8.18822 17.4747C8.48658 17.3717 8.78418 17.2565 9.09158 17.192C9.75743 17.0521 10.3604 17.385 10.5424 17.9629C10.7366 18.5796 10.4355 19.3217 9.81307 19.5374C9.15981 19.7637 8.47978 19.9535 7.79618 20.0437C5.73281 20.3161 3.95891 18.9299 3.28472 17.5094C2.43891 15.727 1.58802 13.9472 0.743158 12.1644C0.530767 11.7163 0.328487 11.2633 0.129641 10.809C-0.267033 9.90289 0.280922 9.06236 1.30542 9.06178" fill="white"/>
<path fill-rule="evenodd" clip-rule="evenodd" d="M5.67898 1.69946C7.11395 1.70029 8.25246 2.84427 8.24439 4.27728C8.23625 5.7071 7.07974 6.85572 5.6578 6.84612C4.2627 6.83665 3.1004 5.6685 3.0962 4.27149C3.09188 2.85229 4.25043 1.69864 5.67898 1.69946" fill="white"/>
<path fill-rule="evenodd" clip-rule="evenodd" d="M11.2846 9.93627C11.2846 8.71133 11.2846 7.55933 11.2846 6.40734C11.2846 4.64182 11.2844 2.87631 11.285 1.1108C11.2851 0.994618 11.2796 0.876849 11.2961 0.762641C11.3635 0.295699 11.7519 -0.0289276 12.1964 0.00204071C12.6407 0.0329455 12.9871 0.404566 12.988 0.873733C12.9916 2.72388 12.9897 4.57391 12.9897 6.42406C12.9897 7.22752 12.9848 8.03105 12.9934 8.83438C12.9953 9.01447 12.9495 9.12009 12.776 9.20053C12.2912 9.42532 11.8166 9.6718 11.2846 9.93627" fill="white"/>
</svg>
