<svg width="21" height="26" viewBox="0 0 21 26" fill="none" xmlns="http://www.w3.org/2000/svg">
<path fill-rule="evenodd" clip-rule="evenodd" d="M16.903 9.09766C16.8993 5.51203 14.0266 2.6343 10.4329 2.61625C6.85131 2.59831 3.93558 5.50978 3.93741 9.10224C3.9393 12.6852 6.81373 15.5655 10.4069 15.5848C13.9863 15.6041 16.9067 12.6877 16.903 9.09766M1.3208 9.10126C1.31964 4.07421 5.42868 -0.0290944 10.4346 0.000312495C15.4757 0.0299024 19.5159 4.07622 19.519 9.09888C19.5223 14.124 15.411 18.2303 10.4062 18.2008C5.36712 18.171 1.32196 14.1195 1.3208 9.10126" fill="white"/>
<path fill-rule="evenodd" clip-rule="evenodd" d="M18.0794 17.9487C18.6787 18.9871 19.2657 20.0038 19.8523 21.0208C20.0648 21.3893 20.2795 21.7567 20.4872 22.1279C21.4107 23.7783 20.3148 25.8275 18.4301 25.9757C18.2786 25.9876 18.1264 25.996 17.9744 25.9961C12.9321 25.9971 7.88983 25.9932 2.84752 26C1.75403 26.0014 0.885247 25.6056 0.345856 24.6343C-0.0970778 23.8368 -0.124837 22.9956 0.322123 22.193C1.09067 20.813 1.8946 19.4526 2.68444 18.0845C2.70909 18.0416 2.74203 18.0035 2.77156 17.9626C7.28753 21.8101 13.7956 21.6272 18.0794 17.9487" fill="white"/>
<path fill-rule="evenodd" clip-rule="evenodd" d="M10.4262 5.20401C12.5933 5.20462 14.3187 6.9384 14.3171 9.1139C14.3156 11.2751 12.5757 12.9995 10.3989 12.9972C8.241 12.9949 6.52118 11.2524 6.52393 9.07108C6.52655 6.92675 8.26559 5.2034 10.4262 5.20401" fill="white"/>
</svg>
