<svg width="25" height="25" viewBox="0 0 25 25" fill="none" xmlns="http://www.w3.org/2000/svg">
<mask id="mask0_215_3127" style="mask-type:luminance" maskUnits="userSpaceOnUse" x="0" y="0" width="25" height="25">
<circle cx="12.5" cy="12.5" r="12.5" fill="white"/>
</mask>
<g mask="url(#mask0_215_3127)">
<path d="M8.2998 17.4V25H-6.8252L8.2998 17.4Z" fill="#012169"/>
<path d="M7.7999 16.7L-8.7751 25H-12.4751L4.0499 16.7H7.7999Z" fill="#C8102E"/>
<path d="M37.475 0L20.925 8.3H17.2L33.75 0H37.475Z" fill="#C8102E"/>
<path d="M31.9 0L16.7 7.6V0H31.9Z" fill="#012169"/>
<path d="M8.29985 0V7.6L-6.90015 0H8.29985Z" fill="#012169"/>
<path d="M4.0749 8.3H0.349902L-12.4751 1.875V0L4.0749 8.3Z" fill="#C8102E"/>
<path d="M37.4749 10V15H14.9999V25H9.9999V15H-12.4751V10H9.9999V0H14.9999V10H37.4749Z" fill="#C8102E"/>
<path d="M31.825 25H16.7V17.4L31.825 25Z" fill="#012169"/>
<path d="M37.4749 23.125V25L20.8999 16.7H24.6499L37.4749 23.125Z" fill="#C8102E"/>
<path d="M9.9999 15V25H8.2999V17.4L-6.8251 25H-8.7751L7.7999 16.7H4.0499L-12.4751 25V22.15L-1.5501 16.7H-12.4751V15H9.9999Z" fill="white"/>
<path d="M37.475 2.775L26.45 8.3H37.475V10H15V0H16.7V7.6L31.9 0H33.75L17.2 8.3H20.925L37.475 0V2.775Z" fill="white"/>
<path d="M9.9999 0V10H-12.4751V8.3H-1.4501L-12.4751 2.775V1.875L0.349902 8.3H4.0749L-12.4751 0H-6.9001L8.2999 7.6V0H9.9999Z" fill="white"/>
<path d="M37.475 16.7H26.55L37.475 22.15V23.125L24.65 16.7H20.9L37.475 25H31.825L16.7 17.4V25H15V15H37.475V16.7Z" fill="white"/>
</g>
</svg>
