<svg width="119" height="50" viewBox="0 0 119 50" fill="none" xmlns="http://www.w3.org/2000/svg">
<path fill-rule="evenodd" clip-rule="evenodd" d="M79.4847 25.1426L86.9389 26.5523C96.6085 20.0773 90.5753 19.7122 88.2135 15.4702C85.4773 10.5572 98.2644 6.92718 98.2644 6.92718C90.8379 11.4503 90.6308 12.6145 98.7106 17.4243C106.025 21.7795 99.2692 28.7036 99.2692 28.7036L110.639 30.7623L108.56 13.7702H118.387L96.4989 1.437L75.4854 13.7694H81.7811L79.4847 25.1426Z" fill="white"/>
<path fill-rule="evenodd" clip-rule="evenodd" d="M93.0156 41.1L79.2023 26.5459L76.0996 41.912C97.6903 43.6981 112.878 49.0588 112.878 49.0588L111.026 33.9219L93.0156 41.1Z" fill="white"/>
<path fill-rule="evenodd" clip-rule="evenodd" d="M4.99853 13.8518H2.78253L1.26677 11.8963H3.17393L3.89053 12.8413L4.60785 11.8963H6.51429L4.99853 13.8518ZM7.78525 22.5856C7.78525 23.0638 7.68705 23.5036 7.49206 23.9064C7.29636 24.3077 7.02239 24.6557 6.66942 24.9496C6.31646 25.2421 5.88948 25.4705 5.38992 25.6335C4.89036 25.7965 4.33601 25.8776 3.72757 25.8776C3.15115 25.8776 2.57332 25.8157 1.99192 25.6904C1.41052 25.5659 0.876093 25.3837 0.387207 25.1446L0.859725 23.4011C1.25041 23.5861 1.68806 23.7427 2.17125 23.8736C2.65444 24.0039 3.15115 24.0686 3.6621 24.0686C4.20578 24.0686 4.64841 23.9576 4.9907 23.7349C5.33299 23.5121 5.50378 23.1891 5.50378 22.7649C5.50378 22.3743 5.34082 22.0533 5.0149 21.8042C4.68897 21.5538 4.18941 21.2933 3.51551 21.0215C3.03729 20.8265 2.61388 20.6229 2.24455 20.4109C1.87521 20.1988 1.56566 19.9626 1.31588 19.7021C1.0661 19.4409 0.873246 19.1499 0.737326 18.8297C0.601406 18.5094 0.533802 18.1479 0.533802 17.7466C0.533802 16.7467 0.873246 15.9782 1.55214 15.4402C2.23102 14.9029 3.14119 14.6339 4.28193 14.6339C4.8683 14.6339 5.40629 14.6887 5.89518 14.7969C6.38406 14.905 6.85587 15.0794 7.31273 15.3185L6.8886 17.062C6.5086 16.877 6.10938 16.7275 5.69165 16.6137C5.27322 16.4998 4.84624 16.4429 4.41215 16.4429C3.93394 16.4429 3.54824 16.5325 3.25505 16.7119C2.96186 16.8912 2.81527 17.1709 2.81527 17.5509C2.81527 17.7245 2.83946 17.8768 2.88857 18.007C2.93767 18.1372 3.02662 18.2596 3.15756 18.3735C3.28779 18.4881 3.45858 18.6019 3.67064 18.7158C3.8827 18.8297 4.1517 18.9577 4.47762 19.0986C4.91171 19.2837 5.3273 19.4794 5.72439 19.685C6.12005 19.8914 6.47088 20.1312 6.77474 20.4023C7.07932 20.6742 7.32412 20.9887 7.50772 21.3474C7.69274 21.706 7.78525 22.1188 7.78525 22.5856Z" fill="#FFFFFE"/>
<path fill-rule="evenodd" clip-rule="evenodd" d="M12.527 19.3267C12.169 19.3267 11.8566 19.4028 11.5905 19.5551C11.3243 19.7074 11.1151 19.8753 10.9628 20.0603V23.9878C11.1037 24.0419 11.2667 24.0831 11.4517 24.1102C11.6367 24.1372 11.8317 24.15 12.0381 24.15C12.7988 24.15 13.3525 23.9166 13.7005 23.4498C14.0484 22.983 14.2221 22.3802 14.2221 21.6409C14.2221 20.9783 14.084 20.4268 13.8065 19.987C13.5297 19.5473 13.1034 19.3267 12.527 19.3267ZM8.73047 17.7461H10.8653V18.7566C11.1258 18.398 11.4517 18.1133 11.8424 17.9013C12.2338 17.6892 12.712 17.5832 13.277 17.5832C13.7552 17.5832 14.1893 17.6807 14.5807 17.8771C14.9721 18.0721 15.3059 18.3467 15.5827 18.6997C15.8602 19.0527 16.0737 19.4768 16.226 19.9707C16.3783 20.4653 16.4551 21.0168 16.4551 21.6245C16.4551 22.3091 16.3456 22.9147 16.1292 23.4413C15.9115 23.9686 15.6183 24.4119 15.2489 24.7692C14.8796 25.1278 14.4469 25.3968 13.9531 25.5761C13.4592 25.7555 12.9291 25.8451 12.364 25.8451C12.0708 25.8451 11.8104 25.8266 11.5819 25.7882C11.3542 25.7498 11.1479 25.7042 10.9628 25.6501V29.0389H8.73047V17.7461Z" fill="#FFFFFE"/>
<path fill-rule="evenodd" clip-rule="evenodd" d="M17.3834 25.682H19.6165V17.746H17.3834V25.682ZM17.2041 15.4325C17.2041 15.0738 17.3237 14.77 17.5628 14.5195C17.8019 14.2704 18.1114 14.1452 18.4914 14.1452C18.8714 14.1452 19.1846 14.2704 19.4286 14.5195C19.6727 14.77 19.7951 15.0738 19.7951 15.4325C19.7951 15.7805 19.6727 16.0822 19.4286 16.337C19.1846 16.5917 18.8714 16.7198 18.4914 16.7198C18.1114 16.7198 17.8019 16.5917 17.5628 16.337C17.3237 16.0822 17.2041 15.7805 17.2041 15.4325Z" fill="#FFFFFE"/>
<path fill-rule="evenodd" clip-rule="evenodd" d="M21.0825 25.6826V17.7466H23.2338V18.8218C23.4949 18.3984 23.8251 18.086 24.2279 17.8846C24.6293 17.6839 25.0697 17.5829 25.5472 17.5829C26.0582 17.5829 26.4951 17.6918 26.8595 17.9088C27.2238 18.1266 27.5199 18.4169 27.7476 18.7813C27.976 19.1449 28.144 19.569 28.2528 20.0522C28.3617 20.5361 28.4158 21.0385 28.4158 21.5594V25.6826H26.1834V21.5431C26.1834 20.8265 26.0717 20.2828 25.849 19.9142C25.627 19.5441 25.2598 19.3591 24.7488 19.3591C24.4229 19.3591 24.1411 19.436 23.902 19.5882C23.6629 19.7398 23.4679 19.9191 23.3156 20.1248V25.6826H21.0825Z" fill="#FFFFFE"/>
<path fill-rule="evenodd" clip-rule="evenodd" d="M33.1897 24.1183C33.5377 24.1183 33.8394 24.05 34.0941 23.9141C34.3496 23.7781 34.5752 23.6017 34.7709 23.3846V19.4415C34.4663 19.3326 34.1077 19.2778 33.6956 19.2778C32.9783 19.2778 32.4346 19.4984 32.066 19.9382C31.696 20.378 31.5117 20.9893 31.5117 21.7714C31.5117 22.108 31.5437 22.4204 31.6092 22.7086C31.6746 22.9961 31.775 23.2437 31.9109 23.4501C32.0468 23.6565 32.2204 23.8194 32.4325 23.9383C32.6439 24.0585 32.8972 24.1183 33.1897 24.1183ZM37.0026 25.6825H34.8684V24.6556C34.6079 25.0036 34.2735 25.2889 33.8664 25.511C33.4587 25.7344 32.9783 25.8454 32.424 25.8454C31.9678 25.8454 31.5465 25.7444 31.1608 25.5437C30.7751 25.343 30.4442 25.0633 30.1674 24.7047C29.8899 24.346 29.6728 23.9205 29.5156 23.4252C29.3576 22.9313 29.2793 22.3905 29.2793 21.8041C29.2793 21.1195 29.3875 20.5139 29.6052 19.9866C29.8223 19.46 30.1155 19.0202 30.4848 18.6673C30.8541 18.3143 31.2861 18.0453 31.7807 17.8603C32.2745 17.6753 32.804 17.5827 33.369 17.5827C33.6515 17.5827 33.9098 17.6027 34.1432 17.6397C34.3767 17.6788 34.5859 17.7293 34.7709 17.7948V14.1776H37.0026V25.6825Z" fill="#FFFFFE"/>
<path fill-rule="evenodd" clip-rule="evenodd" d="M40.5878 23.3844C40.5878 23.6349 40.6391 23.8221 40.743 23.9466C40.8454 24.0718 41.0219 24.1345 41.2724 24.1345C41.3706 24.1345 41.4731 24.1288 41.5813 24.1181C41.6909 24.1074 41.7933 24.091 41.8915 24.069L41.9727 25.6331C41.7883 25.6872 41.5599 25.7342 41.2888 25.7719C41.0169 25.8096 40.7508 25.8295 40.4903 25.8295C40.0883 25.8295 39.751 25.7662 39.4798 25.6417C39.2087 25.5171 38.9881 25.3485 38.8202 25.1364C38.6508 24.9244 38.532 24.686 38.4615 24.4191C38.3903 24.153 38.3555 23.879 38.3555 23.5965V14.1774H40.5878V23.3844Z" fill="#FFFFFE"/>
<path fill-rule="evenodd" clip-rule="evenodd" d="M45.868 19.0827C45.4112 19.0827 45.0611 19.2435 44.8163 19.5638C44.5729 19.884 44.4284 20.2882 44.385 20.7771H47.1063C47.1603 20.2668 47.0842 19.857 46.8785 19.5467C46.6715 19.2371 46.3349 19.0827 45.868 19.0827ZM45.9983 17.5833C46.5199 17.5833 46.9839 17.6651 47.3916 17.8274C47.7987 17.9911 48.1381 18.2216 48.41 18.5205C48.6811 18.8194 48.8875 19.1781 49.0291 19.5965C49.1707 20.0142 49.2411 20.4839 49.2411 21.0055C49.2411 21.2233 49.2276 21.4425 49.2006 21.6652C49.1735 21.8879 49.1323 22.0922 49.0782 22.2765H44.3694C44.3907 22.8586 44.57 23.3211 44.9059 23.6656C45.2432 24.0114 45.7805 24.1829 46.5199 24.1829C46.9433 24.1829 47.356 24.1438 47.7581 24.0655C48.1602 23.9865 48.5188 23.8734 48.8334 23.7268L49.1109 25.2418C48.7195 25.4382 48.274 25.5877 47.7745 25.6901C47.2749 25.794 46.7583 25.8453 46.2267 25.8453C45.5635 25.8453 44.9771 25.7478 44.4661 25.5521C43.9552 25.3557 43.5239 25.0796 43.171 24.7209C42.818 24.3622 42.549 23.9303 42.364 23.4257C42.179 22.9205 42.0879 22.3633 42.0879 21.7549C42.0879 21.1357 42.1768 20.5686 42.3555 20.0519C42.5348 19.5367 42.7938 19.0962 43.1297 18.7326C43.467 18.3682 43.8769 18.0864 44.3608 17.8843C44.844 17.6837 45.3898 17.5833 45.9983 17.5833Z" fill="#FFFFFE"/>
<path fill-rule="evenodd" clip-rule="evenodd" d="M55.0915 19.6533H54.7164C54.1621 19.6533 53.7009 19.7401 53.3309 19.9137C52.9623 20.0874 52.6691 20.3372 52.4513 20.6631V25.6829H50.2183V17.7461H52.3702V19.1473C52.5218 18.6812 52.7637 18.3169 53.0946 18.0564C53.4263 17.7952 53.8689 17.665 54.4232 17.665C54.673 17.665 54.8958 17.6921 55.0915 17.7461V19.6533Z" fill="#FFFFFE"/>
<path fill-rule="evenodd" clip-rule="evenodd" d="M58.6602 15.1715C58.6602 15.3566 58.7143 15.5117 58.8232 15.6355C58.9321 15.7608 59.0893 15.8234 59.2957 15.8234C59.5021 15.8234 59.6622 15.7608 59.776 15.6355C59.8906 15.5117 59.9475 15.3566 59.9475 15.1715C59.9475 14.9865 59.8906 14.83 59.776 14.699C59.6622 14.5681 59.5021 14.504 59.2957 14.504C59.0893 14.504 58.9321 14.5681 58.8232 14.699C58.7143 14.83 58.6602 14.9865 58.6602 15.1715ZM60.9253 15.1715C60.9253 15.3566 60.8897 15.5359 60.8193 15.7095C60.7488 15.8832 60.6457 16.0412 60.5097 16.1821C60.3738 16.323 60.2023 16.434 59.9967 16.5165C59.7903 16.5976 59.5569 16.6382 59.2957 16.6382C59.0345 16.6382 58.804 16.5976 58.6033 16.5165C58.4026 16.434 58.2332 16.323 58.098 16.1821C57.9621 16.0412 57.8589 15.8832 57.7878 15.7095C57.718 15.5359 57.6824 15.3566 57.6824 15.1715C57.6824 14.9865 57.718 14.8043 57.7878 14.625C57.8589 14.4464 57.9621 14.2891 58.098 14.1532C58.2332 14.0173 58.4026 13.9063 58.6033 13.8195C58.804 13.7326 59.0345 13.6885 59.2957 13.6885C59.5569 13.6885 59.7903 13.7326 59.9967 13.8195C60.2023 13.9063 60.3738 14.0173 60.5097 14.1532C60.6457 14.2891 60.7488 14.4464 60.8193 14.625C60.8897 14.8043 60.9253 14.9865 60.9253 15.1715ZM62.8645 17.7462V25.6829H60.7133V24.607C60.4307 25.0304 60.0941 25.3428 59.7035 25.5435C59.3121 25.7441 58.878 25.8452 58.3998 25.8452C57.8888 25.8452 57.4547 25.737 57.0961 25.5193C56.7374 25.3015 56.4464 25.0112 56.2236 24.6468C56.0016 24.2839 55.8408 23.8598 55.7433 23.3766C55.6458 22.8934 55.5967 22.391 55.5967 21.8694V17.7462H57.829V21.8857C57.829 22.6023 57.9294 23.146 58.1308 23.5153C58.3315 23.884 58.6873 24.069 59.1982 24.069C59.5241 24.069 59.8059 23.9928 60.045 23.8413C60.2841 23.689 60.4798 23.5096 60.6321 23.3033V17.7462H62.8645Z" fill="#FFFFFE"/>
<path fill-rule="evenodd" clip-rule="evenodd" d="M66.1559 25.6826L63.3691 17.7466H65.6179L67.3457 23.5961L69.0564 17.7466H71.3052L68.5185 25.6826H66.1559Z" fill="#FFFFFE"/>
<path fill-rule="evenodd" clip-rule="evenodd" d="M45.6751 29.8237H47.9495L48.8333 41.8445H46.3611L45.9463 34.3724L43.2926 39.8228H40.6938L38.0401 34.3724L37.6245 41.8445H35.1523L36.0369 29.8237H38.3105L41.9932 37.5847L45.6751 29.8237Z" fill="#FFFFFE"/>
<path fill-rule="evenodd" clip-rule="evenodd" d="M52.4973 39.2994C52.4973 39.5769 52.5542 39.784 52.6688 39.922C52.7827 40.0608 52.9791 40.1298 53.2552 40.1298C53.3641 40.1298 53.4779 40.1234 53.5989 40.1121C53.7192 40.1 53.833 40.0822 53.9412 40.0573L54.0316 41.7901C53.8266 41.8506 53.5747 41.9011 53.2737 41.9438C52.9727 41.9858 52.6781 42.0071 52.3899 42.0071C51.9444 42.0071 51.5708 41.9374 51.2698 41.7993C50.9695 41.6613 50.7261 41.4748 50.5389 41.24C50.3525 41.0051 50.2208 40.7404 50.1418 40.4458C50.0636 40.1505 50.0244 39.8473 50.0244 39.5342V29.1018H52.4973V39.2994Z" fill="#FFFFFE"/>
<path fill-rule="evenodd" clip-rule="evenodd" d="M56.7212 31.7731L58.0391 28.7765H60.7646L58.7607 31.7731H56.7212ZM55.6025 45.563L56.7938 42.1151L53.563 33.0547H56.1255L57.9843 39.5882L59.7719 33.0547H62.2804L58.0747 45.563H55.6025Z" fill="#FFFFFE"/>
<path fill-rule="evenodd" clip-rule="evenodd" d="M62.8223 41.8442V33.0542H65.2048V34.2455C65.4937 33.7765 65.8609 33.4307 66.3064 33.2079C66.7511 32.9852 67.2379 32.8742 67.7673 32.8742C68.3331 32.8742 68.8177 32.9937 69.2205 33.2343C69.624 33.4755 69.952 33.7972 70.2039 34.2007C70.4573 34.6034 70.643 35.0731 70.764 35.6083C70.8835 36.1441 70.944 36.6999 70.944 37.2777V41.8442H68.4711V37.2599C68.4711 36.4658 68.348 35.8644 68.1018 35.4545C67.8549 35.0461 67.4485 34.8411 66.8828 34.8411C66.522 34.8411 66.2096 34.9251 65.9449 35.0945C65.6801 35.2624 65.4631 35.4609 65.2952 35.6901V41.8442H62.8223Z" fill="#FFFFFE"/>
</svg>
