<svg width="119" height="49" viewBox="0 0 119 49" fill="none" xmlns="http://www.w3.org/2000/svg">
<path fill-rule="evenodd" clip-rule="evenodd" d="M79.4847 24.1428L86.9389 25.5526C96.6085 19.0768 90.5753 18.7124 88.2135 14.4704C85.4773 9.55667 98.2644 5.92738 98.2644 5.92738C90.8379 10.4498 90.6308 11.614 98.7106 16.4246C106.025 20.7797 99.2692 27.7038 99.2692 27.7038L110.639 29.7625L108.56 12.7696H118.387L96.4989 0.436493L75.4854 12.7689H81.7811L79.4847 24.1428Z" fill="#72809D"/>
<path fill-rule="evenodd" clip-rule="evenodd" d="M93.0156 40.0995L79.2023 25.5454L76.0996 40.9115C97.6903 42.6983 112.878 48.059 112.878 48.059L111.026 32.9221L93.0156 40.0995Z" fill="#72809D"/>
<path fill-rule="evenodd" clip-rule="evenodd" d="M4.99853 12.8517H2.78253L1.26677 10.8954H3.17393L3.89053 11.8412L4.60785 10.8954H6.51429L4.99853 12.8517ZM7.78525 21.5855C7.78525 22.0644 7.68705 22.5042 7.49206 22.9055C7.29636 23.3076 7.02239 23.6556 6.66942 23.9488C6.31646 24.242 5.88948 24.4704 5.38992 24.6333C4.89036 24.7963 4.33601 24.8774 3.72757 24.8774C3.15115 24.8774 2.57332 24.8155 1.99192 24.6903C1.41052 24.565 0.876093 24.3836 0.387207 24.1445L0.859725 22.4003C1.25041 22.586 1.68806 22.7426 2.17125 22.8735C2.65444 23.0037 3.15115 23.0685 3.6621 23.0685C4.20578 23.0685 4.64841 22.9575 4.9907 22.7347C5.33299 22.5127 5.50378 22.1889 5.50378 21.7648C5.50378 21.3741 5.34082 21.0539 5.0149 20.8034C4.68897 20.5543 4.18941 20.2932 3.51551 20.0213C3.03729 19.8263 2.61388 19.6221 2.24455 19.41C1.87521 19.1987 1.56566 18.9624 1.31588 18.7013C1.0661 18.4408 0.873246 18.1505 0.737326 17.8295C0.601406 17.5093 0.533802 17.1485 0.533802 16.7464C0.533802 15.7466 0.873246 14.978 1.55214 14.44C2.23102 13.9028 3.14119 13.6338 4.28193 13.6338C4.8683 13.6338 5.40629 13.6879 5.89518 13.7967C6.38406 13.9049 6.85587 14.0793 7.31273 14.3184L6.8886 16.0618C6.5086 15.8768 6.10938 15.7281 5.69165 15.6135C5.27322 15.4997 4.84624 15.4427 4.41215 15.4427C3.93394 15.4427 3.54824 15.5324 3.25505 15.7117C2.96186 15.891 2.81527 16.1707 2.81527 16.5507C2.81527 16.7244 2.83946 16.8766 2.88857 17.0069C2.93767 17.1371 3.02662 17.2595 3.15756 17.3734C3.28779 17.4879 3.45858 17.6018 3.67064 17.7157C3.8827 17.8295 4.1517 17.9576 4.47762 18.0992C4.91171 18.2835 5.3273 18.4792 5.72439 18.6856C6.12005 18.892 6.47088 19.1311 6.77474 19.4022C7.07932 19.674 7.32412 19.9893 7.50772 20.3472C7.69274 20.7059 7.78525 21.1193 7.78525 21.5855Z" fill="#72809D"/>
<path fill-rule="evenodd" clip-rule="evenodd" d="M12.527 18.3269C12.169 18.3269 11.8566 18.403 11.5905 18.5546C11.3243 18.7076 11.1151 18.8755 10.9628 19.0606V22.9873C11.1037 23.0414 11.2667 23.0827 11.4517 23.1097C11.6367 23.1367 11.8317 23.1503 12.0381 23.1503C12.7988 23.1503 13.3525 22.9168 13.7005 22.4493C14.0484 21.9825 14.2221 21.3797 14.2221 20.6411C14.2221 19.9785 14.084 19.4263 13.8065 18.9873C13.5297 18.5468 13.1034 18.3269 12.527 18.3269ZM8.73047 16.7464H10.8653V17.7561C11.1258 17.3982 11.4517 17.1128 11.8424 16.9008C12.2338 16.6894 12.712 16.5834 13.277 16.5834C13.7552 16.5834 14.1893 16.6809 14.5807 16.8766C14.9721 17.0723 15.3059 17.347 15.5827 17.6992C15.8602 18.0529 16.0737 18.4763 16.226 18.9709C16.3783 19.4655 16.4551 20.0163 16.4551 20.6247C16.4551 21.3093 16.3456 21.9149 16.1292 22.4415C15.9115 22.9681 15.6183 23.4114 15.2489 23.7694C14.8796 24.128 14.4469 24.397 13.9531 24.5764C13.4592 24.7557 12.9291 24.8453 12.364 24.8453C12.0708 24.8453 11.8104 24.8261 11.5819 24.7884C11.3542 24.75 11.1479 24.7037 10.9628 24.6496V28.0391H8.73047V16.7464Z" fill="#72809D"/>
<path fill-rule="evenodd" clip-rule="evenodd" d="M17.3834 24.6819H19.6165V16.7458H17.3834V24.6819ZM17.2041 14.4324C17.2041 14.0737 17.3237 13.7691 17.5628 13.5193C17.8019 13.2696 18.1114 13.1443 18.4914 13.1443C18.8714 13.1443 19.1846 13.2696 19.4286 13.5193C19.6727 13.7691 19.7951 14.0737 19.7951 14.4324C19.7951 14.7803 19.6727 15.0814 19.4286 15.3368C19.1846 15.5916 18.8714 15.7197 18.4914 15.7197C18.1114 15.7197 17.8019 15.5916 17.5628 15.3368C17.3237 15.0814 17.2041 14.7803 17.2041 14.4324Z" fill="#72809D"/>
<path fill-rule="evenodd" clip-rule="evenodd" d="M21.0825 24.6821V16.7461H23.2338V17.8213C23.4949 17.3979 23.8251 17.0862 24.2279 16.8841C24.6293 16.6834 25.0697 16.5831 25.5472 16.5831C26.0582 16.5831 26.4951 16.692 26.8595 16.909C27.2238 17.1268 27.5199 17.4171 27.7476 17.7808C27.976 18.1451 28.144 18.5685 28.2528 19.0517C28.3617 19.5356 28.4158 20.038 28.4158 20.5597V24.6821H26.1834V20.5433C26.1834 19.826 26.0717 19.283 25.849 18.9137C25.627 18.5443 25.2598 18.3593 24.7488 18.3593C24.4229 18.3593 24.1411 18.4355 23.902 18.5877C23.6629 18.74 23.4679 18.9186 23.3156 19.125V24.6821H21.0825Z" fill="#72809D"/>
<path fill-rule="evenodd" clip-rule="evenodd" d="M33.1897 23.1178C33.5377 23.1178 33.8394 23.0502 34.0941 22.9143C34.3496 22.7784 34.5752 22.6019 34.7709 22.3841V18.441C34.4663 18.3321 34.1077 18.278 33.6956 18.278C32.9783 18.278 32.4346 18.4979 32.066 18.9377C31.696 19.3782 31.5117 19.9895 31.5117 20.7716C31.5117 21.1082 31.5437 21.4206 31.6092 21.7081C31.6746 21.9963 31.775 22.2432 31.9109 22.4496C32.0468 22.6567 32.2204 22.8196 32.4325 22.9385C32.6439 23.058 32.8972 23.1178 33.1897 23.1178ZM37.0026 24.6819H34.8684V23.6558C34.6079 24.0038 34.2735 24.2884 33.8664 24.5112C33.4587 24.7339 32.9783 24.8449 32.424 24.8449C31.9678 24.8449 31.5465 24.7446 31.1608 24.5439C30.7751 24.3425 30.4442 24.0628 30.1674 23.7042C29.8899 23.3455 29.6728 22.92 29.5156 22.4254C29.3576 21.9315 29.2793 21.3907 29.2793 20.8036C29.2793 20.1197 29.3875 19.5141 29.6052 18.9868C29.8223 18.4602 30.1155 18.0197 30.4848 17.6668C30.8541 17.3138 31.2861 17.0448 31.7807 16.8605C32.2745 16.6755 32.804 16.583 33.369 16.583C33.6515 16.583 33.9098 16.6022 34.1432 16.6399C34.3767 16.6783 34.5859 16.7296 34.7709 16.795V13.1771H37.0026V24.6819Z" fill="#72809D"/>
<path fill-rule="evenodd" clip-rule="evenodd" d="M40.5878 22.3843C40.5878 22.6347 40.6391 22.8219 40.743 22.9471C40.8454 23.0717 41.0219 23.1343 41.2724 23.1343C41.3706 23.1343 41.4731 23.1286 41.5813 23.1179C41.6909 23.1073 41.7933 23.0909 41.8915 23.0688L41.9727 24.633C41.7883 24.6878 41.5599 24.7333 41.2888 24.7718C41.0169 24.8095 40.7508 24.8287 40.4903 24.8287C40.0883 24.8287 39.751 24.7661 39.4798 24.6415C39.2087 24.517 38.9881 24.3483 38.8202 24.1363C38.6508 23.9242 38.532 23.6858 38.4615 23.4197C38.3903 23.1535 38.3555 22.8788 38.3555 22.5963V13.1773H40.5878V22.3843Z" fill="#72809D"/>
<path fill-rule="evenodd" clip-rule="evenodd" d="M45.868 18.0826C45.4112 18.0826 45.0611 18.2427 44.8163 18.5629C44.5729 18.8839 44.4284 19.2881 44.385 19.7769H47.1063C47.1603 19.2667 47.0842 18.8561 46.8785 18.5465C46.6715 18.237 46.3349 18.0826 45.868 18.0826ZM45.9983 16.5832C46.5199 16.5832 46.9839 16.665 47.3916 16.8273C47.7987 16.9902 48.1381 17.2215 48.41 17.5204C48.6811 17.8193 48.8875 18.1779 49.0291 18.5956C49.1707 19.0141 49.2411 19.4838 49.2411 20.0054C49.2411 20.2231 49.2276 20.4423 49.2006 20.6651C49.1735 20.8878 49.1323 21.092 49.0782 21.2763H44.3694C44.3907 21.8584 44.57 22.3217 44.9059 22.6661C45.2432 23.0106 45.7805 23.1828 46.5199 23.1828C46.9433 23.1828 47.356 23.1436 47.7581 23.0646C48.1602 22.9864 48.5188 22.8732 48.8334 22.7266L49.1109 24.2424C48.7195 24.4381 48.274 24.5875 47.7745 24.69C47.2749 24.7932 46.7583 24.8451 46.2267 24.8451C45.5635 24.8451 44.9771 24.7476 44.4661 24.5519C43.9552 24.3562 43.5239 24.0794 43.171 23.7208C42.818 23.3621 42.549 22.9302 42.364 22.4256C42.179 21.9204 42.0879 21.3632 42.0879 20.7547C42.0879 20.1356 42.1768 19.5684 42.3555 19.0518C42.5348 18.5359 42.7938 18.0961 43.1297 17.7317C43.467 17.3681 43.8769 17.0863 44.3608 16.8842C44.844 16.6835 45.3898 16.5832 45.9983 16.5832Z" fill="#72809D"/>
<path fill-rule="evenodd" clip-rule="evenodd" d="M55.0915 18.6528H54.7164C54.1621 18.6528 53.7009 18.7403 53.3309 18.914C52.9623 19.0876 52.6691 19.3367 52.4513 19.6633V24.6824H50.2183V16.7463H52.3702V18.1475C52.5218 17.6807 52.7637 17.3164 53.0946 17.0559C53.4263 16.7954 53.8689 16.6652 54.4232 16.6652C54.673 16.6652 54.8958 16.6923 55.0915 16.7463V18.6528Z" fill="#72809D"/>
<path fill-rule="evenodd" clip-rule="evenodd" d="M58.6602 14.1714C58.6602 14.3564 58.7143 14.5109 58.8232 14.6361C58.9321 14.7606 59.0893 14.8233 59.2957 14.8233C59.5021 14.8233 59.6622 14.7606 59.776 14.6361C59.8906 14.5109 59.9475 14.3564 59.9475 14.1714C59.9475 13.9871 59.8906 13.8291 59.776 13.6989C59.6622 13.5687 59.5021 13.5032 59.2957 13.5032C59.0893 13.5032 58.9321 13.5687 58.8232 13.6989C58.7143 13.8291 58.6602 13.9871 58.6602 14.1714ZM60.9253 14.1714C60.9253 14.3564 60.8897 14.5358 60.8193 14.7087C60.7488 14.883 60.6457 15.041 60.5097 15.1819C60.3738 15.3228 60.2023 15.4338 59.9967 15.5157C59.7903 15.5968 59.5569 15.6381 59.2957 15.6381C59.0345 15.6381 58.804 15.5968 58.6033 15.5157C58.4026 15.4338 58.2332 15.3228 58.098 15.1819C57.9621 15.041 57.8589 14.883 57.7878 14.7087C57.718 14.5358 57.6824 14.3564 57.6824 14.1714C57.6824 13.9871 57.718 13.8049 57.7878 13.6256C57.8589 13.4463 57.9621 13.289 58.098 13.1531C58.2332 13.0172 58.4026 12.9061 58.6033 12.8193C58.804 12.7325 59.0345 12.6884 59.2957 12.6884C59.5569 12.6884 59.7903 12.7325 59.9967 12.8193C60.2023 12.9061 60.3738 13.0172 60.5097 13.1531C60.6457 13.289 60.7488 13.4463 60.8193 13.6256C60.8897 13.8049 60.9253 13.9871 60.9253 14.1714ZM62.8645 16.7461V24.6821H60.7133V23.6068C60.4307 24.0302 60.0941 24.3427 59.7035 24.544C59.3121 24.7447 58.878 24.8451 58.3998 24.8451C57.8888 24.8451 57.4547 24.7362 57.0961 24.5191C56.7374 24.3021 56.4464 24.0117 56.2236 23.6474C56.0016 23.2838 55.8408 22.8596 55.7433 22.3764C55.6458 21.8932 55.5967 21.3908 55.5967 20.8692V16.7461H57.829V20.8856C57.829 21.6022 57.9294 22.1459 58.1308 22.5152C58.3315 22.8845 58.6873 23.0688 59.1982 23.0688C59.5241 23.0688 59.8059 22.9927 60.045 22.8411C60.2841 22.6888 60.4798 22.5095 60.6321 22.3031V16.7461H62.8645Z" fill="#72809D"/>
<path fill-rule="evenodd" clip-rule="evenodd" d="M66.1559 24.6821L63.3691 16.7461H65.6179L67.3457 22.5963L69.0564 16.7461H71.3052L68.5185 24.6821H66.1559Z" fill="#72809D"/>
<path fill-rule="evenodd" clip-rule="evenodd" d="M45.6751 28.8233H47.9495L48.8333 40.8448H46.3611L45.9463 33.372L43.2926 38.8231H40.6938L38.0401 33.372L37.6245 40.8448H35.1523L36.0369 28.8233H38.3105L41.9932 36.585L45.6751 28.8233Z" fill="#72809D"/>
<path fill-rule="evenodd" clip-rule="evenodd" d="M52.4973 38.2992C52.4973 38.5768 52.5542 38.7838 52.6688 38.9219C52.7827 39.0607 52.9791 39.1297 53.2552 39.1297C53.3641 39.1297 53.4779 39.124 53.5989 39.1119C53.7192 39.0998 53.833 39.082 53.9412 39.0571L54.0316 40.7899C53.8266 40.8504 53.5747 40.9016 53.2737 40.9436C52.9727 40.9856 52.6781 41.007 52.3899 41.007C51.9444 41.007 51.5708 40.9379 51.2698 40.7992C50.9695 40.6611 50.7261 40.4747 50.5389 40.2398C50.3525 40.005 50.2208 39.7403 50.1418 39.4457C50.0636 39.151 50.0244 38.8472 50.0244 38.5341V28.1017H52.4973V38.2992Z" fill="#72809D"/>
<path fill-rule="evenodd" clip-rule="evenodd" d="M56.7212 30.7726L58.0391 27.7767H60.7646L58.7607 30.7726H56.7212ZM55.6025 44.5624L56.7938 41.1153L53.563 32.0542H56.1255L57.9843 38.5876L59.7719 32.0542H62.2804L58.0747 44.5624H55.6025Z" fill="#72809D"/>
<path fill-rule="evenodd" clip-rule="evenodd" d="M62.8223 40.8444V32.0537H65.2048V33.2457C65.4937 32.7767 65.8609 32.4309 66.3064 32.2074C66.7511 31.9847 67.2379 31.8737 67.7673 31.8737C68.3331 31.8737 68.8177 31.994 69.2205 32.2345C69.624 32.4757 69.952 32.7974 70.2039 33.2002C70.4573 33.6036 70.643 34.0726 70.764 34.6085C70.8835 35.1436 70.944 35.7001 70.944 36.2779V40.8444H68.4711V36.2601C68.4711 35.4653 68.348 34.8639 68.1018 34.4547C67.8549 34.0456 67.4485 33.8413 66.8828 33.8413C66.522 33.8413 66.2096 33.9253 65.9449 34.094C65.6801 34.2626 65.4631 34.4612 65.2952 34.6896V40.8444H62.8223Z" fill="#72809D"/>
</svg>
