<svg width="42" height="43" viewBox="0 0 42 43" fill="none" xmlns="http://www.w3.org/2000/svg">
<path d="M9.72125 30.4048L9.90459 29.9396L9.90457 29.9396L9.72125 30.4048ZM10.4834 32.6957L10.0637 32.424L10.0632 32.4247L10.4834 32.6957ZM10.2292 33.0175L10.6666 33.2597L10.667 33.2591L10.2292 33.0175ZM8.19158 36.7275L7.75313 36.4871L7.05042 37.769L8.391 37.186L8.19158 36.7275ZM13.5065 34.4031L13.2993 33.948L13.2992 33.9481L13.5065 34.4031ZM14.5587 34.767L15.0139 34.5602L15.0139 34.5602L14.5587 34.767ZM15.7228 37.048L15.2784 37.2771L15.661 38.0194L16.1346 37.3315L15.7228 37.048ZM21.4675 28.7047L21.8791 28.4209L21.4672 27.8234L21.0556 28.4211L21.4675 28.7047ZM27.2207 37.0488L26.809 37.3326L27.2844 38.0222L27.6658 37.2765L27.2207 37.0488ZM28.1822 35.1366L27.7143 34.9605L27.7142 34.9608L28.1822 35.1366ZM29.8125 34.5615L29.5916 35.0101L29.5917 35.0101L29.8125 34.5615ZM34.7776 36.7277L34.5797 37.1868L35.9531 37.7787L35.2118 36.4798L34.7776 36.7277ZM32.1441 32.1401L32.5709 31.8796L32.5708 31.8795L32.1441 32.1401ZM32.7435 30.5704L32.5863 30.0958L32.5862 30.0958L32.7435 30.5704ZM35.8909 29.2574L36.0862 29.7177L36.944 29.3539L36.1666 28.8402L35.8909 29.2574ZM34.8779 28.5896L34.6105 29.0121L34.6108 29.0123L34.8779 28.5896ZM30.5041 25.8191L30.2315 26.2382L30.2315 26.2382L30.5041 25.8191ZM30.5769 24.6924L30.3941 24.227L30.3939 24.2271L30.5769 24.6924ZM34.4612 23.2805L34.6342 23.7496L34.6342 23.7496L34.4612 23.2805ZM39.6032 21.3594L39.7783 21.8277L40.7316 21.4712L39.8668 20.9346L39.6032 21.3594ZM37.3387 20.3657L37.5125 19.8968L37.5125 19.8968L37.3387 20.3657ZM36.6981 18.5254L37.1187 18.7958L37.1187 18.7957L36.6981 18.5254ZM39.5914 14.0444L40.0114 14.3157L40.7604 13.156L39.4425 13.5671L39.5914 14.0444ZM38.8218 14.2862L38.6446 13.8186L38.6444 13.8187L38.8218 14.2862ZM34.1819 16.0526L34.0057 15.5847L34.0057 15.5847L34.1819 16.0526ZM32.797 15.2409L32.3045 15.3271L32.3045 15.3274L32.797 15.2409ZM32.3539 12.3454L32.8483 12.2703L32.7151 11.393L32.0337 11.9614L32.3539 12.3454ZM25.8956 17.7318L25.6242 18.1517L25.9332 18.3514L26.2159 18.1158L25.8956 17.7318ZM25.579 17.5273L25.0956 17.3995L25.0029 17.7503L25.3076 17.9473L25.579 17.5273ZM28.1157 7.93339L28.5991 8.0612L28.8484 7.11821L27.9372 7.46632L28.1157 7.93339ZM26.6582 8.49069L26.8413 8.95597L26.8415 8.95587L26.6582 8.49069ZM23.8155 7.42482L24.2582 7.19243L24.2582 7.19235L23.8155 7.42482ZM21.4279 2.90276L21.87 2.66923L21.4102 1.79867L20.9785 2.68355L21.4279 2.90276ZM18.8367 8.23962L18.3833 8.02875L18.3833 8.02882L18.8367 8.23962ZM17.2033 8.98683L17.4322 8.54231L17.4322 8.54231L17.2033 8.98683ZM15.0125 8.10486L15.1965 7.63996L14.3015 7.28565L14.5263 8.22161L15.0125 8.10486ZM15.3179 9.37143L14.8345 9.49917L14.8345 9.4994L15.3179 9.37143ZM17.2711 16.7735L16.7869 16.8982L16.787 16.8983L17.2711 16.7735ZM17.2396 17.631L17.0843 18.1063L17.7069 18.3098L17.739 17.6555L17.2396 17.631ZM16.351 17.3275L16.5878 16.8871L16.5876 16.887L16.351 17.3275ZM15.7207 16.7934L16.0497 16.4168L16.0496 16.4167L15.7207 16.7934ZM10.6014 12.3246L10.9302 11.9479L10.2488 11.3531L10.1075 12.2465L10.6014 12.3246ZM10.0855 15.612L9.5905 15.5417L9.59049 15.5417L10.0855 15.612ZM9.07874 16.1905L8.89521 16.6556L8.89525 16.6556L9.07874 16.1905ZM6.95341 15.3732L6.76469 15.8362L6.76484 15.8363L6.95341 15.3732ZM3.05997 13.7529L3.2524 13.2914L1.73671 12.6594L2.64302 14.0289L3.05997 13.7529ZM6.53046 18.9826L6.94426 18.7019L6.94423 18.7019L6.53046 18.9826ZM6.16141 20.1546L5.98224 19.6878L5.98216 19.6878L6.16141 20.1546ZM3.41119 21.2632L3.22359 20.7997L2.04536 21.2766L3.23274 21.7303L3.41119 21.2632ZM11.8918 24.5181L11.7094 24.9836L11.7094 24.9836L11.8918 24.5181ZM12.9324 25.2282L13.2811 25.5865L13.7148 25.1645L13.2185 24.8181L12.9324 25.2282ZM12.0726 26.0488L12.3435 26.469L12.3436 26.469L12.0726 26.0488ZM37.2587 19.3572L36.8325 19.0958L36.5401 19.5724L37.0464 19.8099L37.2587 19.3572ZM41.0903 21.1544L41.5902 21.143L41.5832 20.8332L41.3027 20.7017L41.0903 21.1544ZM41.0964 21.4284L41.2826 21.8925L41.6033 21.7637L41.5963 21.4182L41.0964 21.4284ZM31.3689 25.3331L31.1826 24.8691L30.2795 25.2316L31.1001 25.7547L31.3689 25.3331ZM37.3989 29.1774L37.8986 29.1941L37.9081 28.9091L37.6677 28.7558L37.3989 29.1774ZM37.386 29.5499L37.5842 30.009L37.8752 29.8833L37.8857 29.5666L37.386 29.5499ZM32.8335 31.516L32.6352 31.057L32.1499 31.2666L32.3862 31.7395L32.8335 31.516ZM35.8188 37.4913L36.2378 37.7642L36.3941 37.5241L36.2661 37.2678L35.8188 37.4913ZM35.6154 37.8035L35.4176 38.2627L35.8045 38.4293L36.0344 38.0764L35.6154 37.8035ZM29.0317 34.9681L29.2294 34.5088L28.8023 34.3249L28.588 34.7376L29.0317 34.9681ZM27.2947 38.3127L26.8828 38.5962L27.3548 39.2818L27.7384 38.5432L27.2947 38.3127ZM21.9939 30.6133L22.4057 30.3298L22.2262 30.069L21.9137 30.1198L21.9939 30.6133ZM21.7262 30.6567L21.6468 30.163L21.2262 30.2307V30.6567H21.7262ZM21.7262 41.5676L21.7388 42.0674L22.2262 42.0551V41.5676H21.7262ZM21.357 41.5765L20.8963 41.7709L21.0288 42.0849L21.3696 42.0763L21.357 41.5765ZM21.1579 38.0699L20.6586 38.0951L20.6586 38.0953L21.1579 38.0699ZM21.1445 30.7153H21.6445V30.4318L21.4011 30.2862L21.1445 30.7153ZM20.9541 30.6015L21.2108 30.1724L20.8083 29.9317L20.5423 30.3179L20.9541 30.6015ZM15.6496 38.3044L15.2066 38.5362L15.5911 39.271L16.0614 38.588L15.6496 38.3044ZM13.9035 34.9687L14.3464 34.7368L14.1314 34.3261L13.7057 34.5095L13.9035 34.9687ZM7.35106 37.7917L6.99751 38.1452L7.23736 38.3851L7.54889 38.2509L7.35106 37.7917ZM7.1002 37.5398L6.65369 37.3148L6.49139 37.6368L6.74577 37.8925L7.1002 37.5398ZM10.1357 31.5158L10.5822 31.7409L10.8225 31.2641L10.331 31.0556L10.1357 31.5158ZM6.49003 29.958L6.28639 30.4146L6.28647 30.4147L6.49003 29.958ZM5.68414 29.3988L5.30635 29.0713L4.94505 29.488L5.39514 29.8068L5.68414 29.3988ZM6.32789 28.6756L6.60077 29.0946L6.60078 29.0946L6.32789 28.6756ZM10.7015 25.9047L10.9686 26.3274L10.9687 26.3273L10.7015 25.9047ZM11.5683 25.3225L11.8476 25.7373L12.646 25.1997L11.7471 24.8556L11.5683 25.3225ZM3.04007 22.0417L2.85675 22.5069L2.85682 22.5069L3.04007 22.0417ZM1.82471 21.2435L1.55317 20.8237L0.915703 21.2359L1.54623 21.6588L1.82471 21.2435ZM2.99549 20.5004L3.20349 20.9551L3.20361 20.9551L2.99549 20.5004ZM5.69388 19.3871L5.88273 19.85L6.42448 19.6291L6.12175 19.1284L5.69388 19.3871ZM1.82637 12.9904L1.41561 12.7053L1.23075 12.9716L1.39849 13.2491L1.82637 12.9904ZM2.01524 12.7175L2.18138 12.2459L1.82086 12.1189L1.60374 12.4335L2.01524 12.7175ZM9.23361 15.2604L9.06746 15.732L9.63829 15.9331L9.72808 15.3346L9.23361 15.2604ZM9.71337 12.1422L10.2052 12.2323L10.2052 12.2322L9.71337 12.1422ZM10.1102 11.1261L10.3272 10.6756L9.84584 10.4437L9.64635 10.9394L10.1102 11.1261ZM11.0722 11.6035L10.7488 11.9848L10.7488 11.9849L11.0722 11.6035ZM15.2165 15.2067L14.8884 15.584L14.8884 15.584L15.2165 15.2067ZM16.1325 15.9346L15.8221 16.3266L16.9871 17.2492L16.6167 15.81L16.1325 15.9346ZM13.8873 7.21189L13.611 6.79518L13.3144 6.99186L13.4031 7.33652L13.8873 7.21189ZM14.179 7.01804L14.3348 6.54293L14.1039 6.4672L13.9017 6.60201L14.179 7.01804ZM17.9292 8.24791L17.7734 8.72302L18.1732 8.85412L18.3707 8.48264L17.9292 8.24791ZM21.4764 1.57648L21.919 1.34381L21.4789 0.506779L21.0349 1.34173L21.4764 1.57648ZM25.0613 8.39553L24.6188 8.62821L24.826 9.02234L25.2414 8.86199L25.0613 8.39553ZM29.0586 6.8528L29.5422 6.97986L29.7906 6.03435L28.8786 6.38633L29.0586 6.8528ZM26.5609 16.3601L26.0773 16.233L25.6642 17.8054L26.8895 16.7369L26.5609 16.3601ZM32.9048 10.8283L33.3959 10.7343L33.2322 9.87951L32.5762 10.4515L32.9048 10.8283ZM33.7482 15.2337L33.2571 15.3277L33.367 15.9014L33.9169 15.7044L33.7482 15.2337ZM40.8986 12.6711L41.313 12.3914L41.0957 12.0693L40.7299 12.2004L40.8986 12.6711ZM6.79791 29.7035C7.86144 30.1581 8.69664 30.5384 9.53793 30.8699L9.90457 29.9396C9.08017 29.6147 8.2837 29.2511 7.191 28.784L6.79791 29.7035ZM9.53791 30.8699C9.97055 31.0404 10.2594 31.1606 10.4526 31.2687C10.6543 31.3817 10.6468 31.4262 10.6353 31.3922C10.6227 31.3546 10.6575 31.3803 10.5642 31.5827C10.4742 31.778 10.3133 32.0386 10.0637 32.424L10.9031 32.9675C11.1448 32.5943 11.3471 32.2731 11.4723 32.0014C11.5943 31.7369 11.6964 31.4105 11.5833 31.0737C11.4714 30.7405 11.1955 30.5387 10.9412 30.3962C10.6782 30.249 10.3233 30.1046 9.90459 29.9396L9.53791 30.8699ZM10.0632 32.4247C10.0529 32.4407 10.0378 32.4581 9.98113 32.5211C9.93684 32.5704 9.85501 32.6607 9.79144 32.7759L10.667 33.2591C10.6662 33.2604 10.6686 33.2558 10.6785 33.2433C10.689 33.2301 10.7025 33.2144 10.7249 33.1895C10.7607 33.1498 10.8401 33.0652 10.9036 32.9667L10.0632 32.4247ZM9.79177 32.7753C9.1546 33.9262 8.52408 35.0807 7.75313 36.4871L8.63002 36.9678C9.40201 35.5595 10.0308 34.4081 10.6666 33.2597L9.79177 32.7753ZM8.391 37.186C10.3584 36.3303 12.0487 35.6166 13.7137 34.8581L13.2992 33.9481C11.6445 34.7019 9.97271 35.4075 7.99215 36.269L8.391 37.186ZM13.7136 34.8582C13.8238 34.808 13.8979 34.7852 13.946 34.7765C13.9905 34.7685 13.9969 34.7754 13.9843 34.7714C13.9481 34.7597 14.001 34.7484 14.1034 34.9737L15.0139 34.5602C14.8737 34.2515 14.662 33.9392 14.2911 33.8196C13.9361 33.7052 13.5837 33.8186 13.2993 33.948L13.7136 34.8582ZM14.1034 34.9737C14.4432 35.7221 14.8553 36.4564 15.2784 37.2771L16.1672 36.8189C15.7216 35.9544 15.3404 35.2793 15.0139 34.5602L14.1034 34.9737ZM16.1346 37.3315C18.077 34.5104 19.9183 31.8366 21.8793 28.9882L21.0556 28.4211C19.0944 31.2697 17.2536 33.9429 15.311 36.7645L16.1346 37.3315ZM21.0558 28.9885C23.0558 31.8893 24.9005 34.5643 26.809 37.3326L27.6323 36.765C25.7239 33.9968 23.8789 31.3215 21.8791 28.4209L21.0558 28.9885ZM27.6658 37.2765C28.0177 36.5885 28.4088 35.9552 28.6503 35.3125L27.7142 34.9608C27.4983 35.5355 27.1824 36.0255 26.7755 36.8211L27.6658 37.2765ZM28.6502 35.3128C28.8041 34.9041 28.9259 34.8454 28.9603 34.8342C29.0184 34.8153 29.1819 34.8084 29.5916 35.0101L30.0333 34.1129C29.5961 33.8977 29.1121 33.7331 28.6507 33.8834C28.1655 34.0413 27.8957 34.4787 27.7143 34.9605L28.6502 35.3128ZM29.5917 35.0101C31.1316 35.7681 32.7525 36.3994 34.5797 37.1868L34.9755 36.2685C33.1039 35.462 31.5436 34.8564 30.0333 34.1129L29.5917 35.0101ZM35.2118 36.4798C34.2316 34.7622 33.4346 33.2947 32.5709 31.8796L31.7173 32.4006C32.5711 33.7994 33.349 35.2332 34.3433 36.9755L35.2118 36.4798ZM32.5708 31.8795C32.3195 31.4679 32.3601 31.3435 32.363 31.3362C32.3705 31.3175 32.4418 31.1971 32.9007 31.045L32.5862 30.0958C32.111 30.2533 31.6224 30.4916 31.4336 30.9672C31.2403 31.4542 31.4483 31.96 31.7174 32.4007L32.5708 31.8795ZM32.9007 31.0451C33.9522 30.6968 34.982 30.186 36.0862 29.7177L35.6957 28.7971C34.5139 29.2983 33.5881 29.764 32.5863 30.0958L32.9007 31.0451ZM36.1666 28.8402C35.7281 28.5505 35.4367 28.3512 35.145 28.1669L34.6108 29.0123C34.8914 29.1896 35.159 29.373 35.6153 29.6746L36.1666 28.8402ZM35.1454 28.1671C33.6805 27.2398 32.2201 26.3387 30.7767 25.3999L30.2315 26.2382C31.6812 27.1811 33.1591 28.0933 34.6105 29.0121L35.1454 28.1671ZM30.7767 25.3999C30.6097 25.2913 30.5171 25.2103 30.4718 25.1579C30.4244 25.103 30.472 25.131 30.4663 25.2236C30.4602 25.3236 30.4019 25.3541 30.4438 25.3199C30.4873 25.2845 30.5822 25.2276 30.7599 25.1577L30.3939 24.2271C30.1756 24.313 29.9713 24.4149 29.8118 24.545C29.6507 24.6764 29.4857 24.8793 29.4682 25.1621C29.4512 25.4375 29.5831 25.6588 29.7149 25.8114C29.8488 25.9665 30.0302 26.1073 30.2315 26.2382L30.7767 25.3999ZM30.7597 25.1578C32.0395 24.6551 33.3152 24.236 34.6342 23.7496L34.2882 22.8114C33.0218 23.2784 31.6782 23.7226 30.3941 24.227L30.7597 25.1578ZM34.6342 23.7496C36.3523 23.1159 38.0668 22.4677 39.7783 21.8277L39.428 20.8911C37.7119 21.5328 36.0035 22.1787 34.2882 22.8114L34.6342 23.7496ZM39.8668 20.9346C39.0376 20.4199 38.2259 20.1613 37.5125 19.8968L37.1649 20.8345C37.9281 21.1174 38.618 21.3364 39.3395 21.7842L39.8668 20.9346ZM37.5125 19.8968C37.1463 19.7611 36.9094 19.6694 36.753 19.5877C36.5845 19.4996 36.6266 19.4805 36.6518 19.5535C36.6783 19.63 36.6312 19.6458 36.709 19.4809C36.7817 19.3266 36.9119 19.1175 37.1187 18.7958L36.2775 18.2551C36.0811 18.5606 35.9109 18.8288 35.8045 19.0544C35.7032 19.2692 35.5983 19.5673 35.7069 19.8807C35.8142 20.1907 36.0781 20.3633 36.2899 20.4739C36.5138 20.591 36.8156 20.705 37.165 20.8345L37.5125 19.8968ZM37.1187 18.7957C38.0432 17.3569 38.9734 15.9228 40.0114 14.3157L39.1713 13.7731C38.1348 15.378 37.2027 16.815 36.2774 18.2551L37.1187 18.7957ZM39.4425 13.5671C39.0829 13.6792 38.8481 13.7415 38.6446 13.8186L38.9989 14.7537C39.1666 14.6902 39.3194 14.653 39.7402 14.5217L39.4425 13.5671ZM38.6444 13.8187C37.0922 14.4077 35.5549 15.0013 34.0057 15.5847L34.3581 16.5205C35.9064 15.9375 37.4567 15.3389 38.9991 14.7536L38.6444 13.8187ZM34.0057 15.5847C33.7202 15.6923 33.5415 15.7552 33.4162 15.7833C33.2837 15.8131 33.3246 15.7757 33.4031 15.8215C33.4789 15.8657 33.4653 15.9156 33.422 15.78C33.3814 15.6533 33.3433 15.4613 33.2894 15.1545L32.3045 15.3274C32.3559 15.6199 32.4045 15.8815 32.4695 16.0848C32.5317 16.2792 32.6427 16.5357 32.8994 16.6854C33.1588 16.8366 33.437 16.8036 33.6355 16.759C33.8414 16.7127 34.0875 16.6225 34.3582 16.5205L34.0057 15.5847ZM33.2895 15.1547C33.1319 14.2547 33.0133 13.3577 32.8483 12.2703L31.8596 12.4204C32.0208 13.4826 32.1444 14.413 32.3045 15.3271L33.2895 15.1547ZM32.0337 11.9614C29.7968 13.8271 27.6862 15.5873 25.5754 17.3478L26.2159 18.1158C28.3267 16.3553 30.4373 14.5951 32.6742 12.7293L32.0337 11.9614ZM26.167 17.3118C26.1141 17.2776 26.0612 17.2435 26.0084 17.2094C25.9557 17.1754 25.903 17.1414 25.8504 17.1074L25.3076 17.9473C25.3605 17.9815 25.4134 18.0156 25.4662 18.0497C25.519 18.0837 25.5716 18.1177 25.6242 18.1517L26.167 17.3118ZM26.0624 17.6552C26.8905 14.5239 27.7184 11.3923 28.5991 8.0612L27.6323 7.80559C26.7516 11.1368 25.9237 14.2682 25.0956 17.3995L26.0624 17.6552ZM27.9372 7.46632C27.3076 7.70688 26.8871 7.86302 26.4748 8.02552L26.8415 8.95587C27.2477 8.79577 27.6528 8.64548 28.2941 8.40047L27.9372 7.46632ZM26.4751 8.02542C25.9904 8.21617 25.6654 8.34331 25.4171 8.41091C25.1696 8.47829 25.0878 8.45936 25.0586 8.44837C25.0287 8.43715 24.9537 8.39668 24.8095 8.18169C24.6651 7.96638 24.5014 7.6557 24.2582 7.19243L23.3728 7.6572C23.6049 8.09944 23.7974 8.46794 23.979 8.73877C24.1609 9.0099 24.382 9.2625 24.7071 9.38457C25.0329 9.50687 25.3652 9.46144 25.6797 9.3758C25.9935 9.29039 26.3787 9.138 26.8413 8.95597L26.4751 8.02542ZM24.2582 7.19235C23.5019 5.75218 22.7391 4.31472 21.87 2.66923L20.9858 3.13629C21.8561 4.78401 22.6172 6.21848 23.3728 7.65728L24.2582 7.19235ZM20.9785 2.68355C20.0401 4.60719 19.1837 6.30802 18.3833 8.02875L19.29 8.45049C20.0853 6.74075 20.9314 5.06087 21.8773 3.12198L20.9785 2.68355ZM18.3833 8.02882C18.2039 8.41475 18.0774 8.58272 17.9726 8.6461C17.931 8.67124 17.8099 8.73678 17.4322 8.54231L16.9744 9.43136C17.5124 9.70835 18.0319 9.77887 18.49 9.50183C18.885 9.26302 19.1175 8.82166 19.2901 8.45042L18.3833 8.02882ZM17.4322 8.54231C16.7516 8.19182 15.9721 7.94698 15.1965 7.63996L14.8285 8.56975C15.7037 8.91623 16.3497 9.10968 16.9744 9.43136L17.4322 8.54231ZM14.5263 8.22161C14.6535 8.75138 14.7375 9.13211 14.8345 9.49917L15.8013 9.24369C15.708 8.89049 15.6319 8.54267 15.4987 7.9881L14.5263 8.22161ZM14.8345 9.4994C15.4884 11.969 16.1512 14.4292 16.7869 16.8982L17.7553 16.6488C17.1185 14.1755 16.4536 11.7074 15.8012 9.24346L14.8345 9.4994ZM16.787 16.8983C16.7984 16.9427 16.8021 17.0131 16.7889 17.144C16.7794 17.238 16.7478 17.4518 16.7402 17.6065L17.739 17.6555C17.7455 17.5233 17.764 17.441 17.7838 17.2444C17.7999 17.0846 17.8123 16.8697 17.7553 16.6487L16.787 16.8983ZM17.395 17.1557C17.245 17.1067 17.0464 17.0539 16.9296 17.0187C16.7893 16.9765 16.6795 16.9364 16.5878 16.8871L16.1142 17.7678C16.2944 17.8647 16.4797 17.9276 16.6413 17.9763C16.8263 18.032 16.9361 18.0578 17.0843 18.1063L17.395 17.1557ZM16.5876 16.887C16.526 16.8539 16.4578 16.8007 16.3656 16.7149C16.2953 16.6494 16.1561 16.5098 16.0497 16.4168L15.3918 17.17C15.4935 17.2588 15.5508 17.3225 15.6842 17.4467C15.7958 17.5507 15.9386 17.6735 16.1144 17.768L16.5876 16.887ZM16.0496 16.4167C14.3913 14.9692 12.7331 13.5218 10.9302 11.9479L10.2726 12.7013C12.0755 14.2752 13.7337 15.7225 15.3919 17.1701L16.0496 16.4167ZM10.1075 12.2465C9.9178 13.4461 9.73924 14.4946 9.5905 15.5417L10.5806 15.6824C10.7279 14.6454 10.903 13.6181 11.0952 12.4027L10.1075 12.2465ZM9.59049 15.5417C9.57227 15.6701 9.54631 15.7431 9.5272 15.7803C9.51058 15.8126 9.5063 15.8048 9.52542 15.7942C9.54338 15.7843 9.54439 15.7928 9.50263 15.7901C9.45678 15.7872 9.37926 15.7715 9.26222 15.7254L8.89525 16.6556C9.22703 16.7865 9.64045 16.8734 10.0095 16.6692C10.3861 16.4608 10.5275 16.0563 10.5806 15.6823L9.59049 15.5417ZM9.26226 15.7254C8.51888 15.432 7.85545 15.2006 7.14197 14.9101L6.76484 15.8363C7.45663 16.118 8.22626 16.3916 8.89521 16.6556L9.26226 15.7254ZM7.14212 14.9102C5.91965 14.4119 4.70687 13.8979 3.2524 13.2914L2.86754 14.2144C4.31486 14.8179 5.53737 15.336 6.76469 15.8362L7.14212 14.9102ZM2.64302 14.0289C3.90123 15.93 4.99416 17.6086 6.11668 19.2633L6.94423 18.7019C5.82594 17.0534 4.74066 15.3865 3.47693 13.477L2.64302 14.0289ZM6.11665 19.2632C6.2 19.3861 6.23677 19.4691 6.251 19.5188C6.26366 19.563 6.25363 19.5624 6.26088 19.5407C6.26774 19.5202 6.27458 19.5276 6.23559 19.5582C6.19305 19.5915 6.11514 19.6368 5.98224 19.6878L6.34058 20.6214C6.68539 20.4891 7.07095 20.2721 7.2094 19.8574C7.35019 19.4357 7.16495 19.0273 6.94426 18.7019L6.11665 19.2632ZM5.98216 19.6878C5.11507 20.0208 4.25261 20.3832 3.22359 20.7997L3.59878 21.7267C4.64431 21.3035 5.48443 20.9502 6.34066 20.6214L5.98216 19.6878ZM3.23274 21.7303C6.18835 22.8595 8.95494 23.9042 11.7094 24.9836L12.0742 24.0525C9.3145 22.9711 6.54042 21.9235 3.58964 20.7961L3.23274 21.7303ZM11.7094 24.9836C11.8343 25.0326 11.964 25.116 12.1229 25.2368C12.2587 25.34 12.4667 25.5129 12.6462 25.6382L13.2185 24.8181C13.0528 24.7025 12.9311 24.595 12.7281 24.4407C12.5483 24.304 12.3303 24.1528 12.0741 24.0525L11.7094 24.9836ZM12.5837 24.8698C12.4368 25.0128 12.271 25.1989 12.1578 25.3168C12.0275 25.4525 11.9156 25.555 11.8016 25.6286L12.3436 26.469C12.5565 26.3317 12.7323 26.1623 12.879 26.0096C13.0428 25.839 13.1435 25.7203 13.2811 25.5865L12.5837 24.8698ZM11.8017 25.6285C10.1885 26.6684 8.55679 27.675 6.72901 28.82L7.2599 29.6674C9.07987 28.5273 10.7231 27.5136 12.3435 26.469L11.8017 25.6285ZM40.7137 12.7675C39.4303 14.8603 38.1467 16.9531 36.8325 19.0958L37.6849 19.6186C38.9992 17.4759 40.2828 15.3831 41.5661 13.2903L40.7137 12.7675ZM37.0464 19.8099C38.3608 20.4265 39.6196 21.0168 40.878 21.607L41.3027 20.7017C40.0441 20.1114 38.7855 19.5211 37.471 18.9046L37.0464 19.8099ZM40.5905 21.1657C40.5926 21.257 40.5946 21.3479 40.5965 21.4386L41.5963 21.4182C41.5944 21.3261 41.5923 21.2342 41.5902 21.143L40.5905 21.1657ZM40.9101 20.9644C37.7359 22.2385 34.5617 23.5127 31.1826 24.8691L31.5551 25.7971C34.9342 24.4407 38.1084 23.1665 41.2826 21.8925L40.9101 20.9644ZM31.1001 25.7547C33.1929 27.0889 35.1615 28.3438 37.13 29.599L37.6677 28.7558C35.6991 27.5006 33.7304 26.2456 31.6377 24.9115L31.1001 25.7547ZM36.8991 29.1607C36.8956 29.2668 36.8899 29.4245 36.8863 29.5333L37.8857 29.5666C37.8904 29.4266 37.8938 29.3359 37.8986 29.1941L36.8991 29.1607ZM37.1878 29.0909C35.6974 29.7345 34.2062 30.3786 32.6352 31.057L33.0317 31.9751C34.6034 31.2963 36.0932 30.6529 37.5842 30.009L37.1878 29.0909ZM32.3862 31.7395C33.3953 33.7595 34.3834 35.7371 35.3715 37.7147L36.2661 37.2678C35.2779 35.2901 34.2898 33.3126 33.2808 31.2926L32.3862 31.7395ZM35.3998 37.2184L35.1965 37.5306L36.0344 38.0764L36.2378 37.7642L35.3998 37.2184ZM35.8132 37.3443C33.6441 36.4101 31.4748 35.4758 29.2294 34.5088L28.8339 35.4273C31.0793 36.3943 33.2486 37.3285 35.4176 38.2627L35.8132 37.3443ZM28.588 34.7376C28.0406 35.7912 27.5241 36.7861 26.8509 38.0823L27.7384 38.5432C28.4116 37.2468 28.928 36.2522 29.4754 35.1986L28.588 34.7376ZM27.7065 38.0292C25.8412 35.3196 24.1234 32.8248 22.4057 30.3298L21.5821 30.8969C23.2998 33.3919 25.0175 35.8866 26.8828 38.5962L27.7065 38.0292ZM21.9137 30.1198C21.8243 30.1343 21.7353 30.1488 21.6468 30.163L21.8056 31.1503C21.895 31.1359 21.9848 31.1214 22.074 31.1069L21.9137 30.1198ZM21.2262 30.6567V41.5676H22.2262V30.6567H21.2262ZM21.7136 41.0677C21.6525 41.0693 21.5914 41.0707 21.5297 41.0722C21.4683 41.0736 21.4063 41.0751 21.3443 41.0766L21.3696 42.0763C21.4306 42.0748 21.4917 42.0733 21.5533 42.0719C21.6148 42.0704 21.6768 42.069 21.7388 42.0674L21.7136 41.0677ZM21.8176 41.3821C21.6221 40.9187 21.5852 40.4193 21.6015 39.8532C21.6167 39.3264 21.688 38.6493 21.6573 38.0445L20.6586 38.0953C20.6871 38.6568 20.6207 39.1707 20.6019 39.8245C20.5843 40.4389 20.6173 41.1097 20.8963 41.7709L21.8176 41.3821ZM21.6573 38.0448C21.5974 36.8546 21.6445 35.679 21.6445 34.4431H20.6445C20.6445 35.6255 20.597 36.8727 20.6586 38.0951L21.6573 38.0448ZM21.6445 34.4431V30.7153H20.6445V34.4431H21.6445ZM21.4011 30.2862C21.3694 30.2672 21.3376 30.2483 21.3059 30.2293C21.2742 30.2103 21.2425 30.1914 21.2108 30.1724L20.6975 31.0306C20.7292 31.0496 20.7609 31.0686 20.7927 31.0875C20.8244 31.1065 20.8561 31.1255 20.8878 31.1445L21.4011 30.2862ZM20.5423 30.3179C18.8294 32.8053 17.1166 35.2924 15.2378 38.0208L16.0614 38.588C17.9402 35.8595 19.653 33.3724 21.3659 30.8851L20.5423 30.3179ZM16.0926 38.0726C15.4348 36.8155 14.9048 35.8031 14.3464 34.7368L13.4605 35.2006C14.0189 36.2669 14.5488 37.2792 15.2066 38.5362L16.0926 38.0726ZM13.7057 34.5095C11.4683 35.4734 9.31071 36.403 7.15324 37.3325L7.54889 38.2509C9.70635 37.3214 11.8641 36.3917 14.1013 35.4279L13.7057 34.5095ZM7.70462 37.4381C7.62144 37.355 7.53875 37.2717 7.45462 37.1871L6.74577 37.8925C6.82875 37.9758 6.91317 38.0609 6.99751 38.1452L7.70462 37.4381ZM7.5467 37.7648C8.53787 35.798 9.52846 33.8318 10.5822 31.7409L9.6892 31.2908C8.63565 33.3813 7.64458 35.3485 6.65369 37.3148L7.5467 37.7648ZM10.331 31.0556C9.06141 30.5167 7.87199 30.0265 6.69358 29.5013L6.28647 30.4147C7.47576 30.9447 8.68348 31.4427 9.94036 31.9761L10.331 31.0556ZM6.69366 29.5013C6.60004 29.4596 6.50174 29.3948 6.37967 29.3021C6.27713 29.2242 6.11194 29.0891 5.97314 28.9908L5.39514 29.8068C5.52359 29.8978 5.61465 29.9768 5.7749 30.0985C5.91562 30.2054 6.08664 30.3255 6.28639 30.4146L6.69366 29.5013ZM6.06193 29.7263C6.17395 29.5971 6.30881 29.4094 6.38013 29.319C6.47297 29.2014 6.5402 29.1341 6.60077 29.0946L6.05501 28.2567C5.85456 28.3872 5.70596 28.5591 5.59521 28.6994C5.46293 28.867 5.40642 28.9558 5.30635 29.0713L6.06193 29.7263ZM6.60078 29.0946C8.04314 28.1552 9.50382 27.2528 10.9686 26.3274L10.4344 25.482C8.98123 26.4001 7.50489 27.3123 6.05501 28.2567L6.60078 29.0946ZM10.9687 26.3273C11.225 26.1653 11.4828 25.9828 11.8476 25.7373L11.2891 24.9077C10.8975 25.1714 10.6752 25.3298 10.4343 25.4821L10.9687 26.3273ZM11.7471 24.8556C8.79721 23.7261 6.00311 22.6715 3.22332 21.5765L2.85682 22.5069C5.64257 23.6043 8.44553 24.6623 11.3896 25.7894L11.7471 24.8556ZM3.22339 21.5765C3.06236 21.5131 2.9002 21.411 2.71201 21.2743C2.54524 21.1532 2.31139 20.9679 2.10319 20.8282L1.54623 21.6588C1.74149 21.7897 1.89461 21.9165 2.12431 22.0834C2.33259 22.2347 2.57638 22.3964 2.85675 22.5069L3.22339 21.5765ZM2.09624 21.6634C2.29336 21.5359 2.51167 21.3776 2.68067 21.2627C2.86508 21.1374 3.03342 21.0329 3.20349 20.9551L2.7875 20.0458C2.54105 20.1585 2.31825 20.2999 2.11854 20.4357C1.90341 20.5819 1.74459 20.6999 1.55317 20.8237L2.09624 21.6634ZM3.20361 20.9551C4.03577 20.5741 4.88305 20.2578 5.88273 19.85L5.50504 18.9241C4.54173 19.3171 3.64453 19.6534 2.78737 20.0458L3.20361 20.9551ZM6.12175 19.1284C4.81517 16.9674 3.53471 14.8495 2.25424 12.7317L1.39849 13.2491C2.67895 15.3669 3.95942 17.4848 5.26601 19.6458L6.12175 19.1284ZM2.23712 13.2754C2.30035 13.1844 2.36363 13.093 2.42674 13.0015L1.60374 12.4335C1.54121 12.5241 1.47844 12.6147 1.41561 12.7053L2.23712 13.2754ZM1.84911 13.1891C4.21912 14.024 6.58885 14.8587 9.06746 15.732L9.39976 14.7888C6.92114 13.9155 4.55132 13.0808 2.18138 12.2459L1.84911 13.1891ZM9.72808 15.3346C9.89393 14.2291 10.0224 13.23 10.2052 12.2323L9.22156 12.0521C9.03491 13.0708 8.90088 14.1082 8.73914 15.1862L9.72808 15.3346ZM10.2052 12.2322C10.2267 12.115 10.2729 11.9881 10.3422 11.8312C10.4014 11.6974 10.5038 11.4874 10.574 11.3127L9.64635 10.9394C9.58064 11.1027 9.51675 11.2251 9.42753 11.4271C9.34852 11.6059 9.26436 11.8182 9.22154 12.0522L10.2052 12.2322ZM9.8932 11.5765C10.0628 11.6582 10.2903 11.7444 10.4157 11.7983C10.5699 11.8647 10.6742 11.9216 10.7488 11.9848L11.3956 11.2222C11.2052 11.0607 10.9903 10.9569 10.8107 10.8797C10.6022 10.79 10.4813 10.7498 10.3272 10.6756L9.8932 11.5765ZM10.7488 11.9849C12.1419 13.1663 13.5009 14.377 14.8884 15.584L15.5447 14.8295C14.1697 13.6334 12.7944 12.4085 11.3956 11.2222L10.7488 11.9849ZM14.8884 15.584C15.1473 15.8092 15.4409 16.0247 15.8221 16.3266L16.4429 15.5427C16.0209 15.2085 15.7816 15.0355 15.5446 14.8294L14.8884 15.584ZM16.6167 15.81C15.8359 12.7758 15.1036 9.93154 14.3715 7.08726L13.4031 7.33652C14.1352 10.1809 14.8675 13.025 15.6483 16.0592L16.6167 15.81ZM14.1636 7.6286C14.261 7.56405 14.3588 7.49909 14.4564 7.43406L13.9017 6.60201C13.8052 6.66635 13.7081 6.73077 13.611 6.79518L14.1636 7.6286ZM14.0232 7.49314C15.2112 7.88271 16.399 8.27228 17.7734 8.72302L18.085 7.77281C16.7106 7.32208 15.5228 6.9325 14.3348 6.54293L14.0232 7.49314ZM18.3707 8.48264C19.4975 6.3633 20.633 4.22743 21.9179 1.81123L21.0349 1.34173C19.7501 3.75795 18.6145 5.89389 17.4877 8.01318L18.3707 8.48264ZM21.0338 1.80915C22.3132 4.24275 23.4438 6.39341 24.6188 8.62821L25.5039 8.16286C24.3289 5.92805 23.1984 3.77746 21.919 1.34381L21.0338 1.80915ZM25.2414 8.86199C26.4982 8.37684 27.7011 7.91264 29.2386 7.31926L28.8786 6.38633C27.3411 6.9797 26.1381 7.44392 24.8813 7.92908L25.2414 8.86199ZM28.575 6.72573C27.7151 9.99876 26.9359 12.9654 26.0773 16.233L27.0445 16.4871C27.9031 13.2193 28.6822 10.253 29.5422 6.97986L28.575 6.72573ZM26.8895 16.7369C29.0551 14.8486 30.9895 13.1617 33.2334 11.2052L32.5762 10.4515C30.3323 12.408 28.3979 14.0949 26.2323 15.9832L26.8895 16.7369ZM32.4137 10.9224C32.7255 12.5505 32.9809 13.8852 33.2571 15.3277L34.2393 15.1396C33.9631 13.6973 33.7077 12.3624 33.3959 10.7343L32.4137 10.9224ZM33.9169 15.7044C36.3088 14.8472 38.6882 13.9945 41.0673 13.1417L40.7299 12.2004C38.3508 13.0531 35.9715 13.9059 33.5795 14.763L33.9169 15.7044ZM40.4841 12.9507C40.565 13.0706 40.645 13.1889 40.7249 13.3078L41.5549 12.7501C41.4743 12.6301 41.393 12.5099 41.313 12.3914L40.4841 12.9507Z" fill="#2C3F58"/>
</svg>
