<svg width="42" height="41" viewBox="0 0 42 41" fill="none" xmlns="http://www.w3.org/2000/svg">
<path fill-rule="evenodd" clip-rule="evenodd" d="M20.3779 26.693C20.3797 24.6203 20.3815 22.5477 20.3836 20.475C20.3837 20.4064 20.3829 19.6888 20.3836 19.4496C20.3878 17.8326 20.3908 16.2156 20.3981 14.5988C20.3985 14.5133 20.4232 14.3601 20.4564 14.3544C20.5999 14.33 20.7518 14.3402 20.8975 14.3604C20.9217 14.3638 20.9438 14.4791 20.9442 14.543C20.948 15.0861 20.9466 15.6293 20.9466 16.1724C20.9464 17.4458 20.9475 18.7192 20.9441 19.9926C20.9436 20.1702 20.9403 20.9072 20.9397 21.0238C20.931 22.9841 20.9236 24.9443 20.9162 26.9045C20.9157 27.0398 20.9161 27.1751 20.9161 27.361C20.9984 27.2952 21.0462 27.2627 21.0874 27.2232C23.0121 25.3795 24.9362 23.535 26.8603 21.6908C27.0435 21.5151 27.0437 21.5144 27.2176 21.699C27.2808 21.7661 27.3411 21.8357 27.3445 21.869C27.0633 22.1777 26.7982 22.5032 26.4982 22.7924C24.6874 24.5385 22.8694 26.277 21.0509 28.015C20.9519 28.1096 20.912 28.2061 20.912 28.3419C20.9112 30.321 20.9055 32.3 20.9017 34.2791C20.8986 35.9515 20.8971 37.6238 20.8908 39.2961C20.8905 39.3745 20.8584 39.516 20.8269 39.5202C20.683 39.5393 20.5321 39.5299 20.3884 39.5046C20.363 39.5001 20.3476 39.3714 20.3476 39.3001C20.3487 37.8268 20.3527 36.3534 20.3561 34.8801C20.3611 32.7274 20.3645 30.5746 20.375 28.4219C20.3758 28.2559 20.3216 28.1441 20.2046 28.0322C18.129 26.0481 16.0568 24.0604 13.9827 22.0747C13.9335 22.0276 13.8694 21.9962 13.79 21.9423C13.9304 21.7942 14.0244 21.6784 14.1379 21.5866C14.1662 21.5637 14.2744 21.6 14.3168 21.64C14.8211 22.115 15.3201 22.5958 15.8204 23.0752C17.276 24.4701 18.7316 25.8652 20.1876 27.2597C20.2297 27.3 20.2767 27.3349 20.3215 27.3724C20.3403 27.3635 20.3591 27.3546 20.3779 27.3457C20.3779 27.1281 20.3778 26.9105 20.3779 26.693Z" stroke="black" stroke-linecap="round"/>
<path d="M8.33636 26.6069C8.33104 26.6212 8.32564 26.6356 8.32031 26.6499C8.35249 26.6842 8.38233 26.7211 8.41721 26.7524C8.93789 27.2186 9.47666 27.6663 9.97717 28.1533C11.3594 29.4979 12.7212 30.8635 14.1001 32.2115C14.868 32.9621 15.6536 33.6954 16.5679 34.2715C17.0093 34.5496 17.4717 34.777 18.007 34.8107C18.1606 34.8203 18.2187 34.773 18.1651 34.6177C18.0816 34.3762 18.0123 34.1295 17.9204 33.8913C17.3818 32.4944 16.5457 31.2914 15.4881 30.2428C13.6614 28.4319 11.5081 27.2136 8.97089 26.709C8.76091 26.6673 8.54792 26.6405 8.33636 26.6069" stroke="black" stroke-linecap="round"/>
<path d="M6.65674 26.0108C6.74891 26.0005 6.79518 25.9915 6.8416 25.9908C8.68459 25.9643 10.4313 26.3658 12.0873 27.1709C14.2216 28.2086 16.0005 29.6672 17.3467 31.6321C18.03 32.6293 18.5255 33.7135 18.8013 34.8941C18.8737 35.204 18.8757 35.2049 18.5677 35.2871C17.9321 35.4568 17.3445 35.2958 16.7782 35.0156C15.9358 34.5987 15.2109 34.0129 14.5397 33.3691C13.2881 32.1686 12.0612 30.9422 10.8262 29.7245C9.54561 28.462 8.22668 27.2431 6.79923 26.146C6.75858 26.1148 6.72431 26.0755 6.65674 26.0108" stroke="black" stroke-linecap="round"/>
<path d="M32.9107 26.6069C32.916 26.6212 32.9214 26.6356 32.9268 26.6499C32.8946 26.6842 32.8647 26.7211 32.8299 26.7524C32.3092 27.2186 31.7704 27.6663 31.2699 28.1533C29.8877 29.4979 28.5258 30.8635 27.147 32.2115C26.379 32.9621 25.5935 33.6954 24.6792 34.2715C24.2378 34.5496 23.7754 34.777 23.2401 34.8107C23.0865 34.8203 23.0284 34.773 23.082 34.6177C23.1654 34.3762 23.2348 34.1295 23.3267 33.8913C23.8653 32.4944 24.7013 31.2914 25.759 30.2428C27.5857 28.4319 29.739 27.2136 32.2762 26.709C32.4862 26.6673 32.6991 26.6405 32.9107 26.6069" stroke="black" stroke-linecap="round"/>
<path d="M34.5903 26.0108C34.4982 26.0005 34.4519 25.9915 34.4055 25.9908C32.5625 25.9643 30.8158 26.3658 29.1598 27.1709C27.0255 28.2086 25.2466 29.6672 23.9004 31.6321C23.2171 32.6293 22.7216 33.7135 22.4458 34.8941C22.3733 35.204 22.3714 35.2049 22.6794 35.2871C23.315 35.4568 23.9026 35.2958 24.4688 35.0156C25.3112 34.5987 26.0361 34.0129 26.7073 33.3691C27.959 32.1686 29.1858 30.9422 30.4209 29.7245C31.7015 28.462 33.0204 27.2431 34.4478 26.146C34.4885 26.1148 34.5228 26.0755 34.5903 26.0108" stroke="black" stroke-linecap="round"/>
<path d="M18.1178 3.00689C18.3074 2.66799 18.4798 2.32248 18.6868 1.99911C18.987 1.53047 19.3697 1.13742 19.8801 0.893086C20.6203 0.538811 21.4547 0.713099 22.1133 1.34628C22.552 1.7682 22.8686 2.27194 23.1142 2.82427C23.1394 2.88112 23.1666 2.93722 23.1948 2.99264C23.1995 3.00201 23.2145 3.00621 23.2165 3.00749C23.4545 2.8035 23.6749 2.58017 23.9282 2.40393C24.6737 1.88542 25.4933 1.60284 26.4145 1.73453C26.9333 1.80862 27.3651 2.04965 27.7069 2.48815C27.5802 2.58864 27.4677 2.68523 27.346 2.76863C27.3204 2.78618 27.2461 2.7705 27.2204 2.7444C26.6132 2.12742 25.8886 2.15495 25.1486 2.39628C24.4307 2.63041 23.8199 3.02908 23.4485 3.71919C23.3801 3.846 23.2727 3.80385 23.171 3.81263C22.9696 3.8301 22.8691 3.76216 22.8013 3.54985C22.577 2.84707 22.2427 2.19994 21.6829 1.69755C21.0245 1.1066 20.3141 1.10862 19.6549 1.70265C19.0962 2.20624 18.7761 2.85772 18.5327 3.55465C18.4964 3.65859 18.505 3.80978 18.3333 3.80318C18.1552 3.79628 17.9772 3.88035 17.8393 3.63677C17.4562 2.95949 16.8238 2.58917 16.1002 2.36673C15.574 2.20504 15.0428 2.16635 14.5351 2.43475C14.3944 2.50915 14.268 2.61736 14.1503 2.72641C14.073 2.79795 14.0253 2.7954 13.9447 2.73721C13.5947 2.48485 13.5888 2.45553 13.9237 2.18179C14.5284 1.68758 15.2271 1.61521 15.9599 1.7673C16.7768 1.93679 17.4759 2.32691 18.036 2.95334C18.0523 2.97156 18.0716 2.98769 18.0918 3.00164C18.101 3.00794 18.1155 3.00651 18.1178 3.00689" stroke="black" stroke-linecap="round"/>
<path d="M33.6356 12.0347C33.8233 11.9748 34.0151 11.9079 34.21 11.8524C34.8175 11.6798 35.4296 11.6061 36.0593 11.7346C36.8525 11.8965 37.4577 12.5494 37.5555 13.3576C37.6452 14.098 37.4946 14.7972 37.2214 15.4788C37.1941 15.5468 37.1685 15.6153 37.1269 15.7229C37.2208 15.7229 37.2845 15.722 37.3482 15.723C38.4773 15.7418 39.4502 16.1191 40.1939 16.9927C40.5252 17.3818 40.6778 17.8443 40.6664 18.3599C40.6629 18.5191 40.6188 18.6002 40.444 18.5511C40.3846 18.5344 40.3111 18.5503 40.2612 18.5215C40.2035 18.4882 40.1231 18.421 40.1242 18.3702C40.1389 17.748 39.8348 17.2921 39.3625 16.9418C38.6472 16.4116 37.8482 16.163 36.9511 16.3168C36.6698 16.365 36.5642 16.3276 36.4203 16.0732C36.3905 16.0204 36.4089 15.917 36.4413 15.8561C36.7276 15.3169 36.9595 14.7553 37.0084 14.1443C37.0343 13.8206 37.0216 13.4769 36.9393 13.1653C36.7889 12.5961 36.3506 12.3168 35.7862 12.2434C34.9767 12.1381 34.2297 12.3683 33.5058 12.7028C33.4296 12.738 33.3174 12.803 33.2712 12.7744C33.147 12.6979 33.047 12.5807 32.9446 12.4729C32.9278 12.4552 32.9397 12.4009 32.9505 12.3675C33.1717 11.6832 33.0281 11.0329 32.8153 10.371C32.6837 9.96164 32.451 9.65049 32.1668 9.34819C31.8833 9.04663 31.524 8.98491 31.1487 8.96819C30.9806 8.96076 30.9061 8.91337 30.9124 8.74485C30.9148 8.68306 30.8832 8.61451 30.901 8.56014C30.9189 8.50547 30.9794 8.42358 31.0206 8.42395C31.4476 8.42808 31.8451 8.48612 32.1977 8.79255C32.4101 8.97711 32.6692 9.11023 32.8419 9.34616C33.3932 10.0992 33.6493 10.9414 33.608 11.874C33.6064 11.9111 33.6044 11.9484 33.6057 11.9854C33.606 11.996 33.6177 12.0062 33.6356 12.0347" stroke="black" stroke-linecap="round"/>
<path d="M31.0112 23.3704C30.1019 23.3676 29.3948 23.1755 28.7098 22.8894C28.6684 22.872 28.6102 22.8003 28.6191 22.7736C28.6618 22.6442 28.7158 22.5159 28.7876 22.4008C28.8038 22.3747 28.9098 22.3905 28.9689 22.4072C29.3759 22.5226 29.7753 22.6743 30.1885 22.7565C31.3007 22.9778 32.2856 22.666 33.1689 21.9809C33.8594 21.4452 34.4206 20.7819 34.9999 20.1364C35.5173 19.5598 36.0382 18.9872 36.6968 18.5625C37.4928 18.0491 38.3439 17.9126 39.2583 18.1762C39.396 18.216 39.4218 18.2719 39.3749 18.4041C39.2572 18.7357 39.2624 18.7384 38.9234 18.6603C37.9912 18.4455 37.2018 18.7554 36.5337 19.3757C35.9905 19.88 35.4907 20.4323 34.9873 20.9777C34.3636 21.6531 33.7406 22.3261 32.9376 22.7979C32.2937 23.1761 31.6003 23.375 31.0112 23.3704" stroke="black" stroke-linecap="round"/>
<path d="M31.1105 9.6806C31.5398 10.7339 31.2836 11.6596 30.642 12.5152C30.1541 13.1657 29.5207 13.6666 28.9005 14.1803C28.2371 14.7298 27.5671 15.2721 27.0398 15.9643C26.3113 16.9207 26.099 17.984 26.3759 19.1475C26.4407 19.4199 26.5246 19.6883 26.6126 19.9542C26.6549 20.0818 26.6372 20.1416 26.5019 20.1904C26.1477 20.3184 26.1526 20.3247 26.0309 19.957C25.7871 19.2204 25.6528 18.4713 25.7441 17.6915C25.8617 16.6868 26.323 15.845 27.0242 15.1476C27.5841 14.5905 28.2104 14.1005 28.7996 13.5721C29.3974 13.0358 30.0354 12.536 30.4476 11.8236C30.7619 11.2805 30.8493 10.7014 30.7238 10.0897C30.6648 9.80217 30.6606 9.80299 30.9418 9.72597C31.0005 9.70993 31.0592 9.6944 31.1105 9.6806" stroke="black" stroke-linecap="round"/>
<path d="M29.6064 21.0836C29.3249 21.0458 29.3378 21.0445 29.3637 20.7657C29.3829 20.5584 29.4611 20.4922 29.6718 20.4756C30.1411 20.4387 30.555 20.2198 30.9565 19.9919C32.3337 19.2102 33.5329 18.2 34.6512 17.0875C34.7185 17.0204 34.8396 16.9045 34.8718 16.9229C34.9978 16.9951 35.1044 17.1065 35.2016 17.2178C35.2179 17.2364 35.1663 17.3416 35.1227 17.3811C34.4483 17.9917 33.7879 18.6195 33.0882 19.1997C32.3192 19.8372 31.4938 20.402 30.5646 20.7882C30.2575 20.916 29.9266 20.9867 29.6064 21.0836" stroke="black" stroke-linecap="round"/>
<path d="M31.9931 13.8874C32.0234 13.9067 32.0414 13.9142 32.054 13.9269C32.3814 14.2572 32.3775 14.2533 32.0411 14.5694C30.9146 15.6279 29.8836 16.7686 29.0743 18.0934C28.8141 18.5194 28.5803 18.9606 28.5317 19.474C28.5273 19.5204 28.4568 19.5883 28.4073 19.5982C27.986 19.6827 27.9361 19.6316 28.0187 19.2045C28.1482 18.5344 28.4873 17.9589 28.8607 17.4043C29.7223 16.1249 30.7541 14.9933 31.896 13.9598C31.9233 13.9351 31.9553 13.9154 31.9931 13.8874" stroke="black" stroke-linecap="round"/>
<path d="M7.69843 12.0347C7.51064 11.9748 7.31888 11.9079 7.12397 11.8524C6.51651 11.6798 5.9044 11.6061 5.27467 11.7346C4.48146 11.8965 3.87632 12.5494 3.77845 13.3576C3.68876 14.098 3.83943 14.7972 4.11263 15.4788C4.13985 15.5468 4.1655 15.6153 4.20705 15.7229C4.11316 15.7229 4.04949 15.722 3.98582 15.723C2.8567 15.7418 1.88379 16.1191 1.14007 16.9927C0.808816 17.3818 0.656201 17.8443 0.667601 18.3599C0.671125 18.5191 0.715222 18.6002 0.889959 18.5511C0.94943 18.5344 1.02293 18.5503 1.0728 18.5215C1.13047 18.4882 1.21086 18.421 1.20974 18.3702C1.19511 17.748 1.49914 17.2921 1.97153 16.9418C2.68683 16.4116 3.48575 16.163 4.38284 16.3168C4.66414 16.365 4.76973 16.3276 4.91365 16.0732C4.9435 16.0204 4.92505 15.917 4.89265 15.8561C4.6064 15.3169 4.37444 14.7553 4.32554 14.1443C4.29967 13.8206 4.31234 13.4769 4.39469 13.1653C4.54513 12.5961 4.98339 12.3168 5.5478 12.2434C6.3573 12.1381 7.10424 12.3683 7.82817 12.7028C7.90436 12.738 8.01655 12.803 8.06283 12.7744C8.18694 12.6979 8.28699 12.5807 8.38943 12.4729C8.40623 12.4552 8.3943 12.4009 8.3835 12.3675C8.16227 11.6832 8.30588 11.0329 8.51872 10.371C8.65026 9.96164 8.88297 9.65049 9.1672 9.34819C9.45068 9.04663 9.80998 8.98491 10.1853 8.96819C10.3534 8.96076 10.4279 8.91337 10.4216 8.74485C10.4192 8.68306 10.4508 8.61451 10.433 8.56014C10.4151 8.50547 10.3546 8.42358 10.3133 8.42395C9.8864 8.42808 9.48892 8.48612 9.1363 8.79255C8.92392 8.97711 8.66481 9.11023 8.4921 9.34616C7.94081 10.0992 7.6847 10.9414 7.72595 11.874C7.7276 11.9111 7.72962 11.9484 7.72827 11.9854C7.72797 11.996 7.71628 12.0062 7.69843 12.0347" stroke="black" stroke-linecap="round"/>
<path d="M10.3228 23.3704C11.232 23.3676 11.9392 23.1755 12.6242 22.8894C12.6656 22.872 12.7238 22.8003 12.7149 22.7736C12.6722 22.6442 12.6182 22.5159 12.5464 22.4008C12.5302 22.3747 12.4242 22.3905 12.3651 22.4072C11.9581 22.5226 11.5587 22.6743 11.1455 22.7565C10.0333 22.9778 9.04834 22.666 8.16505 21.9809C7.47458 21.4452 6.91339 20.7819 6.33406 20.1364C5.81667 19.5598 5.29583 18.9872 4.63723 18.5625C3.84116 18.0491 2.99012 17.9126 2.07563 18.1762C1.93802 18.216 1.91222 18.2719 1.95909 18.4041C2.07676 18.7357 2.07158 18.7384 2.41056 18.6603C3.34282 18.4455 4.13214 18.7554 4.80027 19.3757C5.34345 19.88 5.84329 20.4323 6.34673 20.9777C6.97039 21.6531 7.59337 22.3261 8.39641 22.7979C9.04024 23.1761 9.73372 23.375 10.3228 23.3704" stroke="black" stroke-linecap="round"/>
<path d="M10.2235 9.6806C9.79416 10.7339 10.0503 11.6596 10.692 12.5152C11.1798 13.1657 11.8132 13.6666 12.4335 14.1803C13.0969 14.7298 13.7669 15.2721 14.2942 15.9643C15.0226 16.9207 15.235 17.984 14.9581 19.1475C14.8933 19.4199 14.8094 19.6883 14.7214 19.9542C14.6791 20.0818 14.6968 20.1416 14.8321 20.1904C15.1863 20.3184 15.1814 20.3247 15.3031 19.957C15.5469 19.2204 15.6812 18.4713 15.5899 17.6915C15.4723 16.6868 15.011 15.845 14.3098 15.1476C13.7498 14.5905 13.1236 14.1005 12.5344 13.5721C11.9365 13.0358 11.2986 12.536 10.8864 11.8236C10.5721 11.2805 10.4846 10.7014 10.6102 10.0897C10.6692 9.80217 10.6734 9.80299 10.3922 9.72597C10.3335 9.70993 10.2748 9.6944 10.2235 9.6806" stroke="black" stroke-linecap="round"/>
<path d="M11.7275 21.0836C12.0091 21.0458 11.9962 21.0445 11.9703 20.7657C11.9511 20.5584 11.8729 20.4922 11.6622 20.4756C11.1928 20.4387 10.7789 20.2198 10.3775 19.9919C9.00029 19.2102 7.80113 18.2 6.68281 17.0875C6.61546 17.0204 6.49435 16.9045 6.46217 16.9229C6.33618 16.9951 6.22961 17.1065 6.13235 17.2178C6.11607 17.2364 6.16767 17.3416 6.21124 17.3811C6.88567 17.9917 7.54607 18.6195 8.24577 19.1997C9.01477 19.8372 9.84023 20.402 10.7693 20.7882C11.0765 20.916 11.4074 20.9867 11.7275 21.0836" stroke="black" stroke-linecap="round"/>
<path d="M9.34092 13.8874C9.31062 13.9067 9.29263 13.9142 9.28003 13.9269C8.9526 14.2572 8.9565 14.2533 9.29285 14.5694C10.4194 15.6279 11.4504 16.7686 12.2596 18.0934C12.5199 18.5194 12.7537 18.9606 12.8023 19.474C12.8067 19.5204 12.8772 19.5883 12.9266 19.5982C13.348 19.6827 13.3978 19.6316 13.3153 19.2045C13.1858 18.5344 12.8467 17.9589 12.4733 17.4043C11.6117 16.1249 10.5799 14.9933 9.43797 13.9598C9.41067 13.9351 9.37872 13.9154 9.34092 13.8874" stroke="black" stroke-linecap="round"/>
<path d="M26.61 3.15308C26.6367 3.19087 26.6751 3.23557 26.7027 3.28604C26.8704 3.5912 26.8708 3.59352 26.5897 3.77643C25.928 4.20698 25.5591 4.82846 25.4781 5.59895C25.4236 6.11769 25.4284 6.6452 25.4413 7.16792C25.464 8.09088 25.5621 9.01429 25.5408 9.93545C25.4947 11.9249 24.4361 13.2385 22.6607 14.0283C22.5825 14.063 22.431 14.1026 22.4142 14.0761C22.3358 13.9528 22.2844 13.8092 22.2454 13.6669C22.2389 13.6431 22.3355 13.5779 22.3933 13.5516C22.9193 13.3128 23.4118 13.0236 23.8387 12.6293C24.5122 12.007 24.8561 11.2248 24.9701 10.3274C25.0742 9.5094 24.9851 8.69466 24.9457 7.87797C24.9123 7.18689 24.8672 6.49191 24.9041 5.80279C24.9635 4.69362 25.4527 3.80695 26.4328 3.22822C26.4703 3.2061 26.5081 3.18427 26.5467 3.16403C26.5571 3.15855 26.5708 3.15945 26.61 3.15308" stroke="black" stroke-linecap="round"/>
<path d="M15.7779 9.04024C15.8261 8.31182 15.8813 7.58377 15.9201 6.85482C15.9545 6.21039 15.9355 5.56889 15.7071 4.95258C15.5108 4.42275 15.1624 4.0162 14.6775 3.73482C14.5104 3.63793 14.4618 3.55018 14.5832 3.39104C14.6168 3.34702 14.6394 3.29378 14.6623 3.24271C14.7075 3.14214 14.7674 3.14319 14.8562 3.19433C15.5998 3.6233 16.1013 4.23998 16.322 5.07483C16.5264 5.8478 16.4848 6.63351 16.4391 7.41953C16.3978 8.12943 16.3435 8.83911 16.3265 9.54968C16.3117 10.1704 16.401 10.7821 16.6327 11.3651C16.9869 12.256 17.645 12.862 18.4678 13.3107C18.6427 13.4062 18.8223 13.4943 19.0049 13.5742C19.1115 13.6209 19.1255 13.6758 19.0802 13.7774C18.8873 14.2095 18.9716 14.1604 18.5639 13.9724C17.8709 13.6527 17.2508 13.2291 16.7586 12.6371C16.118 11.8666 15.845 10.9597 15.7952 9.97588C15.7794 9.66487 15.7927 9.35237 15.7927 9.04054C15.7877 9.04039 15.7829 9.04032 15.7779 9.04024" stroke="black" stroke-linecap="round"/>
<path d="M19.6845 12.3756C19.521 12.1489 19.3618 11.9662 19.2453 11.7594C18.9041 11.1538 18.747 10.4841 18.6209 9.80902C18.367 8.44869 18.2817 7.07494 18.3135 5.69226C18.3176 5.51085 18.358 5.43526 18.5578 5.45528C18.8711 5.4867 18.8664 5.47426 18.8609 5.79208C18.8335 7.35707 18.936 8.91014 19.3247 10.4328C19.4544 10.9408 19.6113 11.4416 19.9692 11.8494C19.9941 11.8778 20.007 11.9503 19.9887 11.9776C19.9067 12.0996 19.8114 12.2126 19.6845 12.3756" stroke="black" stroke-linecap="round"/>
<path d="M21.6465 12.3597C21.5319 12.2133 21.442 12.1102 21.368 11.9968C21.3457 11.9628 21.3467 11.8825 21.3718 11.8531C21.8107 11.3391 21.9665 10.7058 22.1061 10.0731C22.4235 8.63377 22.5203 7.17272 22.4741 5.70207C22.4684 5.51714 22.526 5.44934 22.7018 5.46412C22.7388 5.46727 22.7773 5.46494 22.8138 5.45827C22.9668 5.43022 23.0295 5.48924 23.0276 5.64718C23.0226 6.0463 23.0391 6.44602 23.0261 6.84477C22.9845 8.11923 22.8643 9.38476 22.5358 10.6219C22.409 11.0993 22.2513 11.5668 21.966 11.9776C21.8787 12.1031 21.7698 12.2135 21.6465 12.3597" stroke="black" stroke-linecap="round"/>
<path d="M8.33636 26.6069C8.54792 26.6405 8.76091 26.6673 8.97089 26.709C11.5081 27.2136 13.6614 28.4319 15.4881 30.2428C16.5457 31.2914 17.3818 32.4944 17.9204 33.8913C18.0123 34.1295 18.0816 34.3762 18.1651 34.6177C18.2187 34.773 18.1606 34.8203 18.007 34.8107C17.4717 34.777 17.0093 34.5496 16.5679 34.2715C15.6536 33.6954 14.868 32.9621 14.1001 32.2115C12.7212 30.8635 11.3594 29.4979 9.97717 28.1533C9.47666 27.6663 8.93789 27.2186 8.41721 26.7524C8.38233 26.7211 8.35249 26.6842 8.32031 26.6499C8.32564 26.6356 8.33104 26.6212 8.33636 26.6069" stroke="black" stroke-linecap="round"/>
</svg>
