<svg width="43" height="43" viewBox="0 0 43 43" fill="none" xmlns="http://www.w3.org/2000/svg">
<path d="M34.6459 29.2619L35.0814 29.5076L35.0814 29.5076L34.6459 29.2619ZM40.1651 26.6102L40.1761 27.1101L41.8436 27.0734L40.4309 26.1867L40.1651 26.6102ZM36.7195 21.7065L36.2196 21.7126L36.2196 21.7126L36.7195 21.7065ZM40.1434 16.6858L40.4161 17.1049L41.7937 16.2085L40.1503 16.1858L40.1434 16.6858ZM34.7036 14.135L35.1353 13.8828L35.1353 13.8828L34.7036 14.135ZM35.2095 8.09176L35.6518 8.32494L36.4492 6.8125L34.9625 7.65701L35.2095 8.09176ZM29.1747 8.62866L28.9263 9.0626L28.9263 9.06261L29.1747 8.62866ZM26.6483 3.03178L27.1478 3.00814L27.0707 1.37851L26.2214 2.77151L26.6483 3.03178ZM21.6956 6.57118L21.6981 7.07118L21.6981 7.07118L21.6956 6.57118ZM16.7284 3.31304L17.1418 3.0317L16.2801 1.76576L16.2287 3.29626L16.7284 3.31304ZM14.1243 8.58298L13.8704 8.15229L13.8704 8.1523L14.1243 8.58298ZM8.04472 7.98533L8.29117 7.55029L6.96889 6.80123L7.58811 8.18906L8.04472 7.98533ZM8.81018 9.70534L9.27101 9.51136L9.27101 9.51134L8.81018 9.70534ZM4.66258 16.5756L4.61673 16.0777L4.61658 16.0777L4.66258 16.5756ZM3.25194 16.7753L3.18104 16.2803L1.76641 16.483L2.99882 17.2064L3.25194 16.7753ZM6.63305 21.7753L6.13311 21.7677L6.13311 21.7678L6.63305 21.7753ZM3.3158 26.5575L3.04937 26.1344L1.78285 26.932L3.27444 27.0558L3.3158 26.5575ZM8.58761 29.1872L8.15588 29.4395L8.15588 29.4395L8.58761 29.1872ZM8.24125 35.1011L7.78991 34.886L7.15349 36.2211L8.46946 35.546L8.24125 35.1011ZM14.169 34.6845L14.419 34.2515L14.419 34.2515L14.169 34.6845ZM16.7776 40.0171L16.2803 40.0692L16.43 41.4962L17.1996 40.2853L16.7776 40.0171ZM21.6601 36.7517L21.6642 37.2517L21.6643 37.2517L21.6601 36.7517ZM26.6729 40.2657L26.2535 40.5378L27.1298 41.8883L27.1728 40.279L26.6729 40.2657ZM29.2026 34.7337L28.9505 34.3019L28.9505 34.3019L29.2026 34.7337ZM39.0192 27.4625L39.0177 26.9625L39.0177 26.9625L39.0192 27.4625ZM35.3215 33.8228L35.7499 33.565L35.7499 33.565L35.3215 33.8228ZM36.424 36.309L36.2839 36.789L37.3098 37.0885L36.8823 36.109L36.424 36.309ZM35.2928 35.973L35.4901 35.5136L35.4898 35.5135L35.2928 35.973ZM33.2215 35.0437L33.4051 34.5786L33.405 34.5786L33.2215 35.0437ZM27.4708 38.5511L27.968 38.6044L27.968 38.6043L27.4708 38.5511ZM27.1439 41.4496L27.2667 41.9343L27.6019 41.8494L27.6407 41.5057L27.1439 41.4496ZM26.819 41.5317L26.4165 41.8282L26.6156 42.0985L26.9412 42.0165L26.819 41.5317ZM25.457 39.679L25.0496 39.9689L25.0496 39.9689L25.457 39.679ZM17.8669 39.6986L17.4599 39.4082L17.4598 39.4083L17.8669 39.6986ZM16.5406 41.5484L16.386 42.0239L16.7338 42.1369L16.9469 41.8398L16.5406 41.5484ZM16.1702 41.4285L15.6728 41.4788L15.7056 41.8038L16.0164 41.9043L16.1702 41.4285ZM15.9322 39.0293L16.4311 38.9962L16.4311 38.9962L15.9322 39.0293ZM9.64114 35.2522L9.43638 34.796L9.4363 34.7961L9.64114 35.2522ZM7.25529 36.2774L6.88491 36.6133L7.12455 36.8776L7.4524 36.7369L7.25529 36.2774ZM7.02549 36.0243L6.56858 35.8212L6.4363 36.1189L6.65511 36.3602L7.02549 36.0243ZM7.95854 33.9284L7.50448 33.719L7.50447 33.719L7.95854 33.9284ZM4.32036 27.4162L4.37364 26.919L4.3736 26.919L4.32036 27.4162ZM1.58691 27.0957L1.24548 26.7304L0.458231 27.4663L1.52847 27.5923L1.58691 27.0957ZM2.49372 26.2542L2.80145 26.6483L2.80151 26.6482L2.49372 26.2542ZM4.3805 24.8167L4.05425 24.4378L4.05424 24.4378L4.3805 24.8167ZM4.21951 18.3551L3.91104 18.7486L3.9111 18.7487L4.21951 18.3551ZM2.46272 17.0859L2.15091 17.4767L2.15106 17.4768L2.46272 17.0859ZM1.87169 16.3363L1.70012 15.8667L1.06039 16.1004L1.47501 16.6407L1.87169 16.3363ZM2.78449 16.0148L2.70605 15.521L2.70604 15.521L2.78449 16.0148ZM4.53011 15.8432L4.57712 16.341L4.57714 16.341L4.53011 15.8432ZM8.08729 9.67248L8.54294 9.46661L8.54294 9.4666L8.08729 9.67248ZM7.03748 7.27981L6.67131 6.93934L6.44779 7.17972L6.57948 7.4804L7.03748 7.27981ZM7.23483 7.06737L7.39979 6.59536L7.09124 6.48753L6.86867 6.72689L7.23483 7.06737ZM8.30903 7.44513L8.12847 7.91139L8.12859 7.91144L8.30903 7.44513ZM11.0869 8.50549L11.1818 8.01457L11.1816 8.01455L11.0869 8.50549ZM15.9051 4.58542L16.4026 4.63503L16.4026 4.63497L15.9051 4.58542ZM16.1742 1.8774L16.0458 1.39415L15.711 1.48309L15.6766 1.82785L16.1742 1.8774ZM16.4823 1.79556L16.8749 1.48591L16.6714 1.22799L16.3539 1.31232L16.4823 1.79556ZM17.4399 3.02806L17.0029 3.27098L17.0029 3.271L17.4399 3.02806ZM25.8837 3.04625L25.4432 2.80963L25.4432 2.80976L25.8837 3.04625ZM26.9724 1.5484L27.4593 1.43488L27.2126 0.37677L26.5694 1.25239L26.9724 1.5484ZM27.2867 2.91027L26.7941 2.99598L26.7941 2.99612L27.2867 2.91027ZM27.8242 5.93117L28.2881 5.74457L28.2881 5.74451L27.8242 5.93117ZM33.4796 8.10416L33.2797 7.64587L33.2796 7.64588L33.4796 8.10416ZM35.5484 7.17069L35.737 7.63376L35.7374 7.63358L35.5484 7.17069ZM36.1781 7.20748L35.9418 7.64813L35.9426 7.64853L36.1781 7.20748ZM36.1746 7.76008L36.6368 7.95087L36.6368 7.9508L36.1746 7.76008ZM35.2868 9.73675L35.7438 9.93947L35.7439 9.93941L35.2868 9.73675ZM38.9706 15.8577L39.0116 15.3594L39.0115 15.3594L38.9706 15.8577ZM41.5454 16.1607L42.0341 16.0549L41.9587 15.7066L41.6048 15.6642L41.5454 16.1607ZM41.627 16.5388L41.921 16.9433L42.1846 16.7516L42.1157 16.4331L41.627 16.5388ZM39.7597 17.8947L40.0488 18.3026L40.0489 18.3026L39.7597 17.8947ZM39.7254 25.3934L39.4354 25.8008L39.4355 25.8009L39.7254 25.3934ZM41.5995 26.7621L42.0905 26.8566L42.1504 26.5455L41.8947 26.3585L41.5995 26.7621ZM35.7601 35.0756C34.6679 32.9301 34.0795 31.2824 35.0814 29.5076L34.2105 29.0161C32.9259 31.2918 33.7824 33.3949 34.8689 35.5292L35.7601 35.0756ZM35.0814 29.5076C36.0933 27.7145 37.7667 27.1632 40.1761 27.1101L40.1541 26.1104C37.6125 26.1664 35.4821 26.7628 34.2105 29.0161L35.0814 29.5076ZM40.4309 26.1867C38.4251 24.9278 37.2441 23.7086 37.2195 21.7004L36.2196 21.7126C36.2507 24.2513 37.8171 25.7268 39.8993 27.0337L40.4309 26.1867ZM37.2195 21.7004C37.1945 19.6578 38.4002 18.4166 40.4161 17.1049L39.8707 16.2667C37.794 17.618 36.1879 19.1245 36.2196 21.7126L37.2195 21.7004ZM40.1503 16.1858C37.7632 16.1529 36.1421 15.6062 35.1353 13.8828L34.2719 14.3872C35.54 16.558 37.6077 17.1509 40.1365 17.1857L40.1503 16.1858ZM35.1353 13.8828C34.1139 12.1343 34.5323 10.4484 35.6518 8.32494L34.7672 7.85858C33.6081 10.0572 32.9763 12.1695 34.2719 14.3872L35.1353 13.8828ZM34.9625 7.65701C33.9169 8.25101 32.9724 8.63565 32.0736 8.74866C31.1896 8.85981 30.3258 8.71138 29.4231 8.19471L28.9263 9.06261C30.0174 9.68709 31.0993 9.87903 32.1984 9.74084C33.2826 9.60452 34.3587 9.15013 35.4565 8.52651L34.9625 7.65701ZM29.4231 8.19471C27.6266 7.16641 27.2627 5.43702 27.1478 3.00814L26.1489 3.05542C26.2646 5.49908 26.6315 7.74908 28.9263 9.0626L29.4231 8.19471ZM26.2214 2.77151C24.9653 4.83196 23.7155 6.06099 21.6931 6.07119L21.6981 7.07118C24.2664 7.05823 25.7746 5.42548 27.0753 3.29205L26.2214 2.77151ZM21.6931 6.07119C19.6385 6.08145 18.3653 4.82928 17.1418 3.0317L16.3151 3.59438C17.5793 5.45172 19.1154 7.08407 21.6981 7.07118L21.6931 6.07119ZM16.2287 3.29626C16.1564 5.44807 15.6286 7.11543 13.8704 8.15229L14.3783 9.01367C16.5709 7.72069 17.1512 5.62153 17.2281 3.32982L16.2287 3.29626ZM13.8704 8.1523C12.0918 9.20114 10.382 8.73473 8.29117 7.55029L7.79827 8.42038C9.96539 9.64803 12.1143 10.3488 14.3783 9.01367L13.8704 8.1523ZM7.58811 8.18906C7.94818 8.99607 8.15607 9.4402 8.34934 9.89933L9.27101 9.51134C9.07246 9.03969 8.85216 8.56792 8.50133 7.78161L7.58811 8.18906ZM8.34934 9.89931C8.98315 11.4051 8.84012 12.8715 8.1635 13.9917C7.48667 15.1122 6.25109 15.9272 4.61673 16.0777L4.70844 17.0735C6.63724 16.8959 8.16734 15.9195 9.01946 14.5087C9.87179 13.0977 10.021 11.2931 9.27101 9.51136L8.34934 9.89931ZM4.61658 16.0777C4.2205 16.1143 3.80669 16.1907 3.18104 16.2803L3.32285 17.2702C4.0041 17.1726 4.34416 17.1072 4.70858 17.0735L4.61658 16.0777ZM2.99882 17.2064C4.02359 17.808 4.81303 18.444 5.34243 19.1753C5.86414 19.8961 6.14885 20.7304 6.13311 21.7677L7.13299 21.7829C7.15197 20.5321 6.80204 19.4863 6.15247 18.589C5.51059 17.7022 4.59212 16.9822 3.50507 16.3441L2.99882 17.2064ZM6.13311 21.7678C6.10262 23.7849 4.83703 25.0087 3.04937 26.1344L3.58224 26.9806C5.43793 25.8121 7.09445 24.3333 7.13299 21.7829L6.13311 21.7678ZM3.27444 27.0558C5.4284 27.2346 7.12127 27.6684 8.15588 29.4395L9.01934 28.935C7.71914 26.7094 5.56448 26.2425 3.35717 26.0593L3.27444 27.0558ZM8.15588 29.4395C9.20437 31.2342 8.71692 32.9413 7.78991 34.886L8.69259 35.3163C9.64202 33.3246 10.3383 31.1928 9.01933 28.935L8.15588 29.4395ZM8.46946 35.546C10.4045 34.5534 12.1043 34.0699 13.919 35.1175L14.419 34.2515C12.1386 32.935 10.0165 33.6286 8.01304 34.6563L8.46946 35.546ZM13.919 35.1175C15.7225 36.1588 16.0543 37.9135 16.2803 40.0692L17.2749 39.9649C17.0512 37.8322 16.7019 35.5695 14.419 34.2515L13.919 35.1175ZM17.1996 40.2853C18.3507 38.4742 19.6042 37.2688 21.6642 37.2517L21.6559 36.2517C19.081 36.2731 17.5683 37.841 16.3556 39.7489L17.1996 40.2853ZM21.6643 37.2517C23.7365 37.234 24.9472 38.5247 26.2535 40.5378L27.0924 39.9935C25.7675 37.9517 24.2925 36.2293 21.6558 36.2517L21.6643 37.2517ZM27.1728 40.279C27.237 37.8756 27.6936 36.1939 29.4547 35.1655L28.9505 34.3019C26.7182 35.6054 26.2395 37.7658 26.1731 40.2523L27.1728 40.279ZM29.4547 35.1655C31.24 34.123 32.9478 34.5885 35.0762 35.742L35.5527 34.8628C33.3583 33.6736 31.2161 32.979 28.9505 34.3019L29.4547 35.1655ZM41.4605 26.6881C40.5617 26.7931 39.8156 26.9601 39.0177 26.9625L39.0207 27.9625C39.8897 27.9599 40.8092 27.771 41.5765 27.6814L41.4605 26.6881ZM39.0177 26.9625C35.1515 26.9741 33.1618 31.2036 34.8931 34.0806L35.7499 33.565C34.3946 31.3127 35.978 27.9716 39.0207 27.9625L39.0177 26.9625ZM34.8931 34.0806C35.0785 34.3887 35.2312 34.7266 35.3972 35.1291C35.5593 35.5219 35.7406 35.993 35.9658 36.509L36.8823 36.109C36.6613 35.6027 36.4966 35.1719 36.3216 34.7477C36.1507 34.3333 35.9751 33.9392 35.7499 33.565L34.8931 34.0806ZM36.5642 35.8291C36.2653 35.7418 36.0358 35.6825 35.8675 35.6362C35.6936 35.5884 35.5859 35.5548 35.4901 35.5136L35.0955 36.4325C35.2586 36.5025 35.4224 36.551 35.6024 36.6004C35.7879 36.6514 35.9946 36.7045 36.2839 36.789L36.5642 35.8291ZM35.4898 35.5135C35.1515 35.3685 34.8194 35.2102 34.4717 35.0477C34.1279 34.8869 33.772 34.7235 33.4051 34.5786L33.0379 35.5088C33.374 35.6414 33.706 35.7936 34.0481 35.9535C34.3864 36.1117 34.7384 36.2794 35.0958 36.4326L35.4898 35.5135ZM33.405 34.5786C30.4239 33.402 27.3144 35.3153 26.9737 38.4978L27.968 38.6043C28.2394 36.0691 30.6802 34.5783 33.0379 35.5088L33.405 34.5786ZM26.9737 38.4977C26.8701 39.4626 26.7566 40.4239 26.6471 41.3935L27.6407 41.5057C27.7495 40.5431 27.8641 39.5726 27.968 38.6044L26.9737 38.4977ZM27.0211 40.9649C26.9129 40.9923 26.805 41.0196 26.6969 41.0468L26.9412 42.0165C27.0496 41.9892 27.1579 41.9619 27.2667 41.9343L27.0211 40.9649ZM27.2216 41.2351C26.7614 40.6103 26.3057 40.0092 25.8643 39.3891L25.0496 39.9689C25.4969 40.5974 25.9674 41.2185 26.4165 41.8282L27.2216 41.2351ZM25.8644 39.3891C24.6993 37.7517 23.2203 36.8567 21.6664 36.8605C20.1132 36.8643 18.6317 37.7657 17.4599 39.4082L18.2739 39.989C19.3214 38.5207 20.5328 37.8633 21.6688 37.8605C22.8041 37.8577 24.0104 38.5083 25.0496 39.9689L25.8644 39.3891ZM17.4598 39.4083C17.0197 40.0256 16.5775 40.639 16.1343 41.257L16.9469 41.8398C17.3881 41.2245 17.8329 40.6075 18.274 39.9889L17.4598 39.4083ZM16.6951 41.0729C16.5712 41.0326 16.4471 40.9926 16.324 40.9528L16.0164 41.9043C16.1401 41.9443 16.2631 41.984 16.386 42.0239L16.6951 41.0729ZM16.6677 41.3783C16.5849 40.5585 16.4835 39.787 16.4311 38.9962L15.4333 39.0623C15.4871 39.8747 15.594 40.6991 15.6728 41.4788L16.6677 41.3783ZM16.4311 38.9962C16.311 37.1861 15.4169 35.747 14.1008 34.9566C12.7848 34.1661 11.0934 34.0522 9.43638 34.796L9.8459 35.7084C11.2269 35.0884 12.571 35.2042 13.586 35.8138C14.6009 36.4234 15.3333 37.5548 15.4333 39.0624L16.4311 38.9962ZM9.4363 34.7961C8.65142 35.1486 7.86315 35.4726 7.05819 35.8179L7.4524 36.7369C8.23827 36.3998 9.05159 36.0651 9.84598 35.7083L9.4363 34.7961ZM7.62567 35.9415C7.5873 35.8992 7.54884 35.8569 7.51053 35.8147C7.47217 35.7725 7.43396 35.7304 7.39587 35.6884L6.65511 36.3602C6.69348 36.4025 6.73194 36.4448 6.77026 36.487C6.80861 36.5292 6.84682 36.5713 6.88491 36.6133L7.62567 35.9415ZM7.4824 36.2273C7.79634 35.5209 8.0943 34.8282 8.41261 34.1377L7.50447 33.719C7.18257 34.4173 6.87585 35.1298 6.56858 35.8212L7.4824 36.2273ZM8.41261 34.1377C9.23417 32.3557 9.2708 30.6504 8.52444 29.3144C7.77731 27.977 6.31101 27.1267 4.37364 26.919L4.26708 27.9134C5.97596 28.0965 7.1036 28.8215 7.65143 29.8021C8.20004 30.7841 8.23264 32.1396 7.50448 33.719L8.41261 34.1377ZM4.3736 26.919C3.57031 26.833 2.77322 26.7319 1.64536 26.5991L1.52847 27.5923C2.64449 27.7236 3.45725 27.8266 4.26711 27.9134L4.3736 26.919ZM1.92835 27.4609C2.41206 27.0088 2.57966 26.8214 2.80145 26.6483L2.18599 25.8601C1.91925 26.0684 1.66114 26.3419 1.24548 26.7304L1.92835 27.4609ZM2.80151 26.6482C3.10521 26.411 3.41684 26.188 3.74233 25.9491C4.06329 25.7136 4.39225 25.4664 4.70675 25.1956L4.05424 24.4378C3.77068 24.682 3.46779 24.9102 3.15064 25.143C2.83803 25.3724 2.5053 25.6107 2.18594 25.8601L2.80151 26.6482ZM4.70674 25.1956C7.00413 23.2174 6.91297 19.8307 4.52792 17.9616L3.9111 18.7487C5.80384 20.232 5.87056 22.8738 4.05425 24.4378L4.70674 25.1956ZM4.52798 17.9616C4.22972 17.7278 3.91841 17.5141 3.62373 17.3107C3.32452 17.1042 3.04112 16.9075 2.77439 16.6949L2.15106 17.4768C2.4487 17.7141 2.75965 17.9294 3.05572 18.1337C3.35631 18.3412 3.6412 18.5371 3.91104 18.7486L4.52798 17.9616ZM2.77454 16.695C2.70931 16.643 2.64258 16.565 2.55725 16.4446C2.48972 16.3492 2.36941 16.1636 2.26836 16.0319L1.47501 16.6407C1.56822 16.7622 1.62232 16.8547 1.7412 17.0226C1.84228 17.1653 1.97394 17.3355 2.15091 17.4767L2.77454 16.695ZM2.04325 16.806C2.1991 16.749 2.39274 16.6637 2.50981 16.617C2.64996 16.561 2.7614 16.5247 2.86294 16.5086L2.70604 15.521C2.49407 15.5546 2.30101 15.6236 2.13908 15.6882C1.95407 15.7621 1.84806 15.8126 1.70012 15.8667L2.04325 16.806ZM2.86292 16.5086C3.41948 16.4202 3.95946 16.3993 4.57712 16.341L4.48311 15.3455C3.93647 15.3971 3.30223 15.4263 2.70605 15.521L2.86292 16.5086ZM4.57714 16.341C6.31755 16.1766 7.68659 15.2804 8.42972 13.9907C9.17263 12.7014 9.2644 11.0634 8.54294 9.46661L7.63164 9.87834C8.23051 11.2039 8.13392 12.5011 7.56326 13.4914C6.99283 14.4814 5.92312 15.2094 4.48309 15.3455L4.57714 16.341ZM8.54294 9.4666C8.18589 8.67637 7.84757 7.88315 7.49548 7.07922L6.57948 7.4804C6.92629 8.27227 7.27159 9.08147 7.63164 9.87835L8.54294 9.4666ZM7.40364 7.62028C7.43664 7.5848 7.46966 7.54923 7.50255 7.51381C7.53548 7.47835 7.56828 7.44303 7.601 7.40784L6.86867 6.72689C6.83567 6.76238 6.80265 6.79794 6.76976 6.83336C6.73683 6.86882 6.70403 6.90414 6.67131 6.93934L7.40364 7.62028ZM7.06988 7.53937C7.44601 7.67082 7.78447 7.77817 8.12847 7.91139L8.4896 6.97888C8.126 6.83807 7.74034 6.71438 7.39979 6.59536L7.06988 7.53937ZM8.12859 7.91144C8.58284 8.08722 9.00053 8.29009 9.48842 8.49972C9.95702 8.70106 10.4594 8.89362 10.9922 8.99643L11.1816 8.01455C10.756 7.93241 10.3324 7.77395 9.88319 7.58094C9.45326 7.39622 8.96125 7.16139 8.48948 6.97883L8.12859 7.91144ZM10.9921 8.99641C13.7492 9.52908 16.1201 7.46816 16.4026 4.63503L15.4076 4.53581C15.1738 6.87984 13.2703 8.41805 11.1818 8.01457L10.9921 8.99641ZM16.4026 4.63497C16.4476 4.18354 16.4924 3.73211 16.5372 3.28079C16.582 2.82944 16.6268 2.37819 16.6717 1.92695L15.6766 1.82785C15.6317 2.27929 15.5869 2.73071 15.5421 3.18203C15.4973 3.63338 15.4525 4.08464 15.4076 4.53587L16.4026 4.63497ZM16.3025 2.36064L16.6106 2.27881L16.3539 1.31232L16.0458 1.39415L16.3025 2.36064ZM16.0897 2.10522C16.2546 2.31427 16.4559 2.53925 16.6048 2.71729C16.7663 2.91049 16.9011 3.08778 17.0029 3.27098L17.877 2.78514C17.729 2.51887 17.5463 2.28439 17.372 2.07596C17.1851 1.85236 17.0326 1.68583 16.8749 1.48591L16.0897 2.10522ZM17.0029 3.271C18.1704 5.37109 19.9275 6.45395 21.7339 6.43237C23.5364 6.41085 25.2463 5.29081 26.3243 3.28273L25.4432 2.80976C24.4992 4.5682 23.0863 5.41615 21.722 5.43245C20.3615 5.44869 18.9077 4.6392 17.877 2.78512L17.0029 3.271ZM26.3242 3.28287C26.4227 3.09942 26.5498 2.92071 26.7268 2.69045C26.8985 2.46712 27.1226 2.18842 27.3753 1.84441L26.5694 1.25239C26.3245 1.5858 26.1229 1.83521 25.934 2.08104C25.7503 2.31995 25.5819 2.55145 25.4432 2.80963L26.3242 3.28287ZM26.4854 1.66192C26.6431 2.3381 26.7344 2.65281 26.7941 2.99598L27.7793 2.82455C27.7134 2.44567 27.603 2.05114 27.4593 1.43488L26.4854 1.66192ZM26.7941 2.99612C26.8801 3.48905 26.9152 3.96616 26.9854 4.51482C27.0526 5.03931 27.1492 5.59308 27.3604 6.11783L28.2881 5.74451C28.1256 5.34075 28.0415 4.88914 27.9773 4.38783C27.9162 3.91071 27.8694 3.34162 27.7793 2.82441L26.7941 2.99612ZM27.3603 6.11777C28.4069 8.71941 31.1364 9.67201 33.6795 8.56244L33.2796 7.64588C31.2027 8.55204 29.1043 7.77369 28.2881 5.74457L27.3603 6.11777ZM33.6795 8.56245C34.4264 8.23665 35.0289 7.9222 35.737 7.63376L35.3598 6.70763C34.6676 6.98956 33.9199 7.36659 33.2797 7.64587L33.6795 8.56245ZM35.7374 7.63358C35.7366 7.63394 35.7455 7.6304 35.7658 7.6277C35.7854 7.62508 35.8097 7.62407 35.8365 7.62574C35.8632 7.6274 35.8881 7.63148 35.9086 7.63677C35.9299 7.64223 35.9405 7.64741 35.9418 7.64812L36.4144 6.76683C36.251 6.67924 36.0654 6.63805 35.8987 6.62767C35.7325 6.61732 35.5384 6.63469 35.3594 6.7078L35.7374 7.63358ZM35.9426 7.64853C35.8275 7.58709 35.7757 7.49815 35.7584 7.46446C35.7387 7.42597 35.7327 7.39782 35.7317 7.39309C35.7294 7.38273 35.7325 7.39311 35.7318 7.42748C35.7313 7.45807 35.728 7.49275 35.7226 7.52426C35.7166 7.55859 35.711 7.57283 35.7124 7.56936L36.6368 7.9508C36.703 7.79034 36.7288 7.59545 36.7317 7.44662C36.7331 7.36896 36.7291 7.27509 36.7094 7.18323C36.6996 7.13774 36.6823 7.07452 36.6484 7.00852C36.6171 6.94731 36.5484 6.83841 36.4136 6.76643L35.9426 7.64853ZM35.7124 7.56929C35.4384 8.23309 35.1354 8.84468 34.8297 9.53409L35.7439 9.93941C36.0239 9.30786 36.3598 8.62166 36.6368 7.95087L35.7124 7.56929ZM34.8297 9.53402C34.1015 11.1759 34.1827 12.8124 34.9516 14.0883C35.72 15.3631 37.133 16.2086 38.9297 16.356L39.0115 15.3594C37.4873 15.2343 36.3871 14.5328 35.8081 13.5721C35.2297 12.6124 35.1295 11.3247 35.7438 9.93947L34.8297 9.53402ZM38.9297 16.356C39.7788 16.4257 40.6066 16.5519 41.4859 16.6571L41.6048 15.6642C40.7681 15.5641 39.8839 15.431 39.0116 15.3594L38.9297 16.356ZM41.0567 16.2664C41.0703 16.3292 41.0838 16.3921 41.0974 16.4551C41.111 16.5181 41.1246 16.5813 41.1383 16.6446L42.1157 16.4331C42.1021 16.3703 42.0886 16.3074 42.075 16.2444C42.0614 16.1814 42.0478 16.1182 42.0341 16.0549L41.0567 16.2664ZM41.333 16.1344C40.7052 16.5909 40.0948 17.0441 39.4704 17.4869L40.0489 18.3026C40.6793 17.8555 41.3044 17.3916 41.921 16.9433L41.333 16.1344ZM39.4705 17.4868C37.8406 18.6424 36.9429 20.1065 36.9359 21.6441C36.9289 23.1826 37.8143 24.6471 39.4354 25.8008L40.0153 24.9861C38.571 23.9582 37.9308 22.7671 37.9359 21.6486C37.941 20.5292 38.5931 19.3347 40.0488 18.3026L39.4705 17.4868ZM39.4355 25.8009C40.0625 26.2469 40.6737 26.7045 41.3044 27.1657L41.8947 26.3585C41.2763 25.9063 40.6488 25.4369 40.0152 24.986L39.4355 25.8009ZM41.1085 26.6677C41.0949 26.7383 41.0814 26.809 41.0679 26.8795C41.0544 26.95 41.041 27.0202 41.0275 27.0903L42.0095 27.2792C42.0231 27.2086 42.0366 27.1378 42.0501 27.0674C42.0636 26.9969 42.077 26.9267 42.0905 26.8566L41.1085 26.6677Z" fill="#2C3F58"/>
<path d="M35.4968 21.8972L34.9969 21.8862L34.9969 21.8862L35.4968 21.8972ZM21.9343 7.88713L21.9448 7.38724L21.9448 7.38724L21.9343 7.88713ZM7.84944 21.1979L8.34934 21.2079L8.34934 21.2079L7.84944 21.1979ZM29.2026 34.7337L28.9505 34.3019L28.9505 34.3019L29.2026 34.7337ZM26.6729 40.2656L26.2535 40.5378L27.1298 41.8883L27.1728 40.279L26.6729 40.2656ZM21.6601 36.7517L21.6643 37.2516L21.6643 37.2516L21.6601 36.7517ZM16.7776 40.0172L16.2803 40.0694L16.43 41.4964L17.1996 40.2854L16.7776 40.0172ZM14.169 34.6845L14.419 34.2515L14.419 34.2515L14.169 34.6845ZM8.24126 35.1013L7.78991 34.8862L7.1535 36.2214L8.4695 35.5462L8.24126 35.1013ZM8.58762 29.1872L8.15588 29.4394L8.15589 29.4394L8.58762 29.1872ZM3.31581 26.5575L3.04941 26.1344L1.78265 26.9319L3.27444 27.0558L3.31581 26.5575ZM6.63306 21.7755L6.13312 21.7679L6.13312 21.7679L6.63306 21.7755ZM3.25195 16.7752L3.18105 16.2803L1.76642 16.4829L2.99882 17.2064L3.25195 16.7752ZM4.66259 16.5758L4.70832 17.0737L4.70847 17.0737L4.66259 16.5758ZM8.81018 9.70529L9.27102 9.51132L9.27102 9.5113L8.81018 9.70529ZM8.04473 7.98529L8.29121 7.55027L6.96883 6.80102L7.58812 8.18902L8.04473 7.98529ZM14.1244 8.58294L13.8704 8.15225L13.8704 8.15225L14.1244 8.58294ZM16.7286 3.313L17.142 3.03169L16.2805 1.76572L16.2289 3.29617L16.7286 3.313ZM21.6956 6.57114L21.6931 6.07115L21.6931 6.07115L21.6956 6.57114ZM26.6484 3.03174L27.1478 3.0081L27.0707 1.37847L26.2214 2.77147L26.6484 3.03174ZM29.1747 8.62861L28.9263 9.06256L28.9264 9.06257L29.1747 8.62861ZM35.2095 8.09172L35.6518 8.32487L36.449 6.81258L34.9625 7.65697L35.2095 8.09172ZM34.7036 14.135L34.2719 14.3872L34.2719 14.3872L34.7036 14.135ZM40.1434 16.6857L40.4162 17.1048L41.7937 16.2083L40.1503 16.1858L40.1434 16.6857ZM36.7195 21.7065L36.2196 21.7126L36.2196 21.7126L36.7195 21.7065ZM40.1651 26.6102L40.1761 27.1101L41.8436 27.0733L40.4309 26.1867L40.1651 26.6102ZM34.646 29.2618L35.0814 29.5076L35.0814 29.5076L34.646 29.2618ZM21.4067 35.8988C29.3201 36.0652 35.823 29.8284 35.9966 21.9082L34.9969 21.8862C34.8353 29.2557 28.7884 35.0538 21.4278 34.899L21.4067 35.8988ZM35.9966 21.9082C36.169 14.051 29.8717 7.55372 21.9448 7.38724L21.9238 8.38702C29.3081 8.5421 35.1569 14.5914 34.9969 21.8862L35.9966 21.9082ZM21.9448 7.38724C14.1961 7.22453 7.5032 13.5387 7.34954 21.1878L8.34934 21.2079C8.49161 14.1258 14.7131 8.23561 21.9238 8.38702L21.9448 7.38724ZM7.34954 21.1878C7.18676 29.2761 13.3492 35.7295 21.4068 35.8988L21.4278 34.899C13.9262 34.7414 8.19758 28.7486 8.34934 21.2079L7.34954 21.1878ZM35.5527 34.8628C33.3584 33.6736 31.2161 32.979 28.9505 34.3019L29.4547 35.1654C31.24 34.123 32.9478 34.5885 35.0763 35.742L35.5527 34.8628ZM28.9505 34.3019C26.7182 35.6054 26.2395 37.7658 26.1731 40.2523L27.1728 40.279C27.237 37.8756 27.6936 36.1938 29.4548 35.1654L28.9505 34.3019ZM27.0924 39.9935C25.7675 37.9516 24.2925 36.2292 21.6558 36.2517L21.6643 37.2516C23.7366 37.234 24.9472 38.5247 26.2535 40.5378L27.0924 39.9935ZM21.6559 36.2517C19.081 36.2733 17.5683 37.8411 16.3556 39.749L17.1996 40.2854C18.3507 38.4744 19.6042 37.2689 21.6643 37.2516L21.6559 36.2517ZM17.2749 39.9651C17.0513 37.8321 16.7019 35.5694 14.419 34.2515L13.919 35.1175C15.7225 36.1587 16.0543 37.9134 16.2803 40.0694L17.2749 39.9651ZM14.419 34.2515C12.1386 32.935 10.0165 33.6285 8.01301 34.6564L8.4695 35.5462C10.4045 34.5534 12.1043 34.0698 13.919 35.1175L14.419 34.2515ZM8.69261 35.3164C9.64203 33.3245 10.3383 31.1928 9.01934 28.935L8.15589 29.4394C9.20438 31.2342 8.71693 32.9413 7.78991 34.8862L8.69261 35.3164ZM9.01935 28.935C7.71915 26.7093 5.56449 26.2425 3.35718 26.0592L3.27444 27.0558C5.42841 27.2346 7.12128 27.6684 8.15588 29.4394L9.01935 28.935ZM3.58221 26.9806C5.43795 25.8122 7.09446 24.3332 7.133 21.783L6.13312 21.7679C6.10263 23.7848 4.83702 25.0089 3.04941 26.1344L3.58221 26.9806ZM7.133 21.7831C7.15198 20.5322 6.80205 19.4863 6.15248 18.589C5.5106 17.7022 4.59213 16.9822 3.50508 16.344L2.99882 17.2064C4.02359 17.808 4.81304 18.4439 5.34243 19.1753C5.86414 19.8961 6.14886 20.7305 6.13312 21.7679L7.133 21.7831ZM3.32286 17.2702C4.0041 17.1726 4.34411 17.1071 4.70832 17.0737L4.61686 16.0779C4.22057 16.1143 3.8067 16.1906 3.18105 16.2803L3.32286 17.2702ZM4.70847 17.0737C6.63727 16.8959 8.16736 15.9195 9.01947 14.5087C9.8718 13.0976 10.021 11.293 9.27102 9.51132L8.34934 9.89927C8.98316 11.4051 8.84013 12.8715 8.1635 13.9917C7.48667 15.1122 6.25108 15.9273 4.6167 16.0779L4.70847 17.0737ZM9.27102 9.5113C9.07247 9.03965 8.85217 8.56787 8.50134 7.78156L7.58812 8.18902C7.94818 8.99603 8.15608 9.44016 8.34935 9.89929L9.27102 9.5113ZM7.79825 8.42032C9.96543 9.64822 12.1143 10.3488 14.3783 9.01363L13.8704 8.15225C12.0918 9.20111 10.382 8.73487 8.29121 7.55027L7.79825 8.42032ZM14.3783 9.01363C16.5709 7.72065 17.1512 5.6215 17.2284 3.32982L16.2289 3.29617C16.1565 5.44802 15.6286 7.11539 13.8704 8.15225L14.3783 9.01363ZM16.3153 3.5943C17.5793 5.45164 19.1154 7.08426 21.6982 7.07114L21.6931 6.07115C19.6385 6.08159 18.3653 4.82928 17.142 3.03169L16.3153 3.5943ZM21.6981 7.07114C24.2664 7.05819 25.7746 5.42544 27.0753 3.29201L26.2214 2.77147C24.9653 4.83192 23.7155 6.06095 21.6931 6.07115L21.6981 7.07114ZM26.1489 3.05538C26.2646 5.49904 26.6315 7.74903 28.9263 9.06256L29.4231 8.19467C27.6266 7.16636 27.2628 5.43698 27.1478 3.0081L26.1489 3.05538ZM28.9264 9.06257C30.0176 9.68704 31.0994 9.87898 32.1985 9.7408C33.2827 9.60448 34.3587 9.15008 35.4565 8.52647L34.9625 7.65697C33.9169 8.25098 32.9725 8.63561 32.0737 8.74861C31.1897 8.85976 30.3259 8.71134 29.4231 8.19465L28.9264 9.06257ZM34.7672 7.85857C33.6083 10.0571 32.9765 12.1695 34.2719 14.3872L35.1354 13.8828C34.1141 12.1343 34.5325 10.4483 35.6518 8.32487L34.7672 7.85857ZM34.2719 14.3872C35.54 16.558 37.6076 17.151 40.1366 17.1857L40.1503 16.1858C37.7633 16.1531 36.1421 15.6062 35.1353 13.8828L34.2719 14.3872ZM39.8707 16.2667C37.794 17.6181 36.1879 19.1246 36.2196 21.7126L37.2195 21.7003C37.1945 19.6579 38.4002 18.4167 40.4162 17.1048L39.8707 16.2667ZM36.2196 21.7126C36.2507 24.2512 37.8171 25.7268 39.8993 27.0337L40.4309 26.1867C38.4251 24.9278 37.2441 23.7085 37.2195 21.7003L36.2196 21.7126ZM40.1541 26.1103C37.6125 26.1663 35.4822 26.763 34.2105 29.016L35.0814 29.5076C36.0933 27.7147 37.7667 27.1632 40.1761 27.1101L40.1541 26.1103ZM34.2105 29.016C32.9259 31.2919 33.7825 33.3949 34.8689 35.5292L35.7601 35.0756C34.668 32.93 34.0795 31.2826 35.0814 29.5076L34.2105 29.016Z" fill="#2C3F58"/>
<path d="M21.894 34.7495L21.9008 35.2495L21.9008 35.2495L21.894 34.7495ZM34.7168 21.23L35.2168 21.2233L35.2168 21.2233L34.7168 21.23ZM21.5297 8.5682L21.5352 8.06823L21.5352 8.06823L21.5297 8.5682ZM7.84924 21.1978L8.34914 21.2079L8.34914 21.2079L7.84924 21.1978ZM21.9341 7.88706L21.9446 7.38717L21.9446 7.38717L21.9341 7.88706ZM35.4966 21.8971L34.9967 21.8862L34.9967 21.8862L35.4966 21.8971ZM8.11738 21.7861C8.14382 30.0591 15.1812 35.3405 21.9008 35.2495L21.8872 34.2495C15.6396 34.3342 9.14178 29.4188 9.11738 21.7829L8.11738 21.7861ZM21.9008 35.2495C29.4497 35.1472 35.3199 28.9275 35.2168 21.2233L34.2169 21.2367C34.313 28.4139 28.8592 34.1551 21.8872 34.2495L21.9008 35.2495ZM35.2168 21.2233C35.138 15.3585 30.5174 8.16809 21.5352 8.06823L21.5241 9.06817C29.8668 9.16092 34.144 15.8124 34.2169 21.2368L35.2168 21.2233ZM21.5352 8.06823C14.0792 7.98562 8.00402 14.3738 8.11744 21.7921L9.11732 21.7769C9.01211 14.8954 14.656 8.99207 21.5241 9.06817L21.5352 8.06823ZM21.4278 34.8989C13.9262 34.7413 8.19738 28.7488 8.34914 21.2079L7.34934 21.1877C7.18657 29.2763 13.3492 35.7294 21.4068 35.8987L21.4278 34.8989ZM8.34914 21.2079C8.49161 14.1257 14.7129 8.23554 21.9236 8.38695L21.9446 7.38717C14.1959 7.22446 7.50322 13.5386 7.34934 21.1877L8.34914 21.2079ZM21.9236 8.38695C29.3079 8.54203 35.1567 14.5913 34.9967 21.8862L35.9964 21.9081C36.1688 14.0509 29.8715 7.55365 21.9446 7.38717L21.9236 8.38695ZM34.9967 21.8862C34.8353 29.2556 28.7884 35.0539 21.4278 34.8989L21.4067 35.8987C29.3202 36.0653 35.823 29.8283 35.9964 21.9081L34.9967 21.8862Z" fill="#2C3F58"/>
<path d="M32.8108 21.8832L33.3107 21.8903L33.3107 21.8902L32.8108 21.8832ZM21.9669 10.5097L21.9748 10.0097L21.9748 10.0097L21.9669 10.5097ZM10.5309 21.3172L11.0309 21.3261L11.0309 21.3261L10.5309 21.3172ZM21.53 8.56833L21.5245 9.0683L21.5245 9.0683L21.53 8.56833ZM34.7172 21.23L35.2171 21.2233L35.2171 21.2232L34.7172 21.23ZM21.8944 34.7494L21.9011 35.2494L21.9011 35.2494L21.8944 34.7494ZM21.4792 33.2173C27.9121 33.339 33.2208 28.2668 33.3107 21.8903L32.3108 21.8761C32.2288 27.6882 27.3874 32.3289 21.4982 32.2175L21.4792 33.2173ZM33.3107 21.8902C33.4009 15.4895 28.2836 10.1091 21.9748 10.0097L21.959 11.0096C27.6995 11.1 32.3934 16.0102 32.3108 21.8762L33.3107 21.8902ZM21.9748 10.0097C15.626 9.90987 10.1424 15.0759 10.031 21.3082L11.0309 21.3261C11.132 15.6666 16.1399 10.9181 21.959 11.0096L21.9748 10.0097ZM10.031 21.3082C9.91328 27.892 14.9104 33.093 21.4792 33.2173L21.4982 32.2175C15.4837 32.1037 10.9229 27.3607 11.0309 21.3261L10.031 21.3082ZM9.11766 21.7768C9.01225 14.8953 14.6564 8.992 21.5245 9.0683L21.5356 8.06836C14.0795 7.98553 8.00414 14.3737 8.11778 21.7921L9.11766 21.7768ZM21.5245 9.0683C29.8672 9.16085 34.1443 15.8125 34.2172 21.2367L35.2171 21.2232C35.1383 15.3586 30.5177 8.168 21.5356 8.06836L21.5245 9.0683ZM34.2172 21.2367C34.3133 28.4138 28.8596 34.155 21.8876 34.2495L21.9011 35.2494C29.4501 35.1471 35.3203 28.9274 35.2171 21.2233L34.2172 21.2367ZM21.8876 34.2495C15.6399 34.3341 9.14212 29.4187 9.11772 21.7828L8.11772 21.786C8.14416 30.059 15.1815 35.3404 21.9011 35.2494L21.8876 34.2495Z" fill="#2C3F58"/>
<path d="M21.7826 11.2958L21.7769 11.7958L21.7769 11.7958L21.7826 11.2958ZM11.2766 21.6096L11.7766 21.6091L11.7766 21.6091L11.2766 21.6096ZM21.3773 32.0521L21.3905 31.5523L21.3905 31.5523L21.3773 32.0521ZM10.5308 21.3172L10.0308 21.3082L10.0308 21.3082L10.5308 21.3172ZM21.9669 10.5097L21.9748 10.0097L21.9748 10.0097L21.9669 10.5097ZM32.8108 21.8832L33.3108 21.8903L33.3108 21.8902L32.8108 21.8832ZM32.5424 21.6666C32.5936 15.735 27.7659 10.8638 21.7883 10.7958L21.7769 11.7958C27.2125 11.8576 31.5888 16.2867 31.5425 21.658L32.5424 21.6666ZM21.7883 10.7958C15.6693 10.7262 10.7712 15.5136 10.7766 21.61L11.7766 21.6091C11.7717 16.0783 16.2065 11.7323 21.7769 11.7958L21.7883 10.7958ZM10.7766 21.61C10.7827 28.444 16.2839 32.418 21.3641 32.552L21.3905 31.5523C16.7566 31.4301 11.7821 27.811 11.7766 21.6091L10.7766 21.61ZM21.3641 32.552C27.5512 32.7153 32.4892 27.822 32.5424 21.6666L31.5425 21.658C31.494 27.2672 27.0056 31.7006 21.3905 31.5523L21.3641 32.552ZM21.4982 32.2175C15.4835 32.1037 10.9228 27.3607 11.0307 21.3261L10.0308 21.3082C9.9131 27.892 14.9102 33.093 21.4793 33.2173L21.4982 32.2175ZM11.0307 21.3261C11.132 15.6668 16.1399 10.9181 21.9591 11.0096L21.9748 10.0097C15.626 9.90988 10.1424 15.0761 10.0308 21.3082L11.0307 21.3261ZM21.9591 11.0096C27.6994 11.1 32.3935 16.0102 32.3109 21.8762L33.3108 21.8902C33.4009 15.4895 28.2834 10.1091 21.9748 10.0097L21.9591 11.0096ZM32.3109 21.8762C32.2289 27.6884 27.3874 32.3289 21.4982 32.2175L21.4793 33.2173C27.9121 33.339 33.2208 28.267 33.3108 21.8903L32.3109 21.8762Z" fill="#2C3F58"/>
</svg>
