<svg width="36" height="42" viewBox="0 0 36 42" fill="none" xmlns="http://www.w3.org/2000/svg">
<path d="M17.9351 38.8259L17.5416 39.1344L17.9369 39.6386L18.33 39.1326L17.9351 38.8259ZM2.0031 11.4637L1.93519 10.9683L1.2634 11.0604L1.54994 11.675L2.0031 11.4637ZM33.7183 11.4751L34.1824 11.6611L34.4273 11.0499L33.7728 10.978L33.7183 11.4751ZM33.8675 29.8343L33.889 30.3338L34.6455 30.3012L34.3185 29.6183L33.8675 29.8343ZM2.00992 29.8159L1.55077 29.6179L1.28063 30.2446L1.95955 30.3133L2.00992 29.8159ZM17.9223 7.7286L17.5345 8.04428L17.9324 8.53301L18.3179 8.03438L17.9223 7.7286ZM30.6426 30.1539L30.745 29.6645L30.745 29.6645L30.6426 30.1539ZM29.4695 28.9295L29.8819 28.6469L29.8819 28.6469L29.4695 28.9295ZM25.2742 25.4565L25.4161 24.9771L24.6956 24.7638L24.7772 25.5108L25.2742 25.4565ZM25.6134 28.7366L26.1123 28.7034L26.1123 28.7033L25.6134 28.7366ZM25.3052 29.5618L24.8787 29.8227L25.4017 30.6779L25.7702 29.7457L25.3052 29.5618ZM24.8858 28.8474L25.3798 28.7698L25.3797 28.7696L24.8858 28.8474ZM24.523 25.7724L24.0233 25.789L24.0233 25.789L24.523 25.7724ZM23.1552 24.1832L23.3002 23.7046L22.5851 23.488L22.6576 24.2316L23.1552 24.1832ZM23.3241 26.106L22.8242 26.114L22.8242 26.114L23.3241 26.106ZM23.0033 26.7301L22.615 27.0451L23.0859 27.6255L23.4426 26.9687L23.0033 26.7301ZM22.6085 26.2207L23.0972 26.1151L23.097 26.1144L22.6085 26.2207ZM22.4164 24.6869L21.9167 24.6718L21.9166 24.6719L22.4164 24.6869ZM21.098 22.9801L21.2172 22.4945L20.6869 22.3644L20.6038 22.904L21.098 22.9801ZM20.9502 23.9413L21.0997 24.4184L21.397 24.3253L21.4444 24.0174L20.9502 23.9413ZM20.6102 24.0478L20.1333 24.1982L20.2836 24.6743L20.7599 24.5248L20.6102 24.0478ZM20.0376 22.3786L20.4223 22.0592L20.4222 22.0591L20.0376 22.3786ZM18.3278 21.2892L18.5872 20.8617L17.8306 20.4027L17.8279 21.2876L18.3278 21.2892ZM19.2144 24.1567L18.9979 24.6074L18.9983 24.6076L19.2144 24.1567ZM19.4311 24.74L19.3988 25.239L20.1491 25.2875L19.9037 24.5768L19.4311 24.74ZM18.3659 24.6716L18.3979 24.1726L18.0206 24.1484L17.8945 24.5049L18.3659 24.6716ZM19.1514 26.5325L18.9019 26.9658L18.902 26.9658L19.1514 26.5325ZM20.4665 27.5284L20.1324 27.9004L20.1326 27.9005L20.4665 27.5284ZM20.6552 28.1204L20.6411 28.6202L21.3277 28.6396L21.1352 27.9803L20.6552 28.1204ZM20.0264 28.0888L19.761 28.5125L19.761 28.5125L20.0264 28.0888ZM18.4074 26.9389L18.7003 26.5336L18.1235 26.1167L17.9269 26.8007L18.4074 26.9389ZM19.0902 28.9411L19.3542 28.5165L19.3542 28.5165L19.0902 28.9411ZM21.4982 30.7205L21.8067 30.327L21.8067 30.327L21.4982 30.7205ZM21.998 31.5275L21.9272 32.0224L22.6918 32.1318L22.4786 31.3895L21.998 31.5275ZM18.3169 29.4163L18.5245 28.9614L17.7954 28.6287L17.8171 29.4299L18.3169 29.4163ZM18.7165 33.2386L18.2911 33.5014L18.2912 33.5015L18.7165 33.2386ZM18.6011 39.34L19.0101 39.6277L19.0101 39.6276L18.6011 39.34ZM17.9291 40.7444L17.4802 40.9646L17.9383 41.8985L18.3814 40.9574L17.9291 40.7444ZM16.701 38.2698L16.273 38.5282L16.273 38.5283L16.701 38.2698ZM16.6673 34.2131L16.2207 33.9882L16.2207 33.9882L16.6673 34.2131ZM17.4423 29.4256L17.9368 29.3518L17.8366 28.6801L17.2249 28.9753L17.4423 29.4256ZM13.9366 31.6769L13.5313 31.9697L13.7382 32.2561L14.0773 32.1567L13.9366 31.6769ZM13.706 31.3573L13.3399 31.0168L13.0605 31.317L13.3004 31.6497L13.706 31.3573ZM14.2823 30.7486L13.9783 30.3516L13.9782 30.3516L14.2823 30.7486ZM16.8606 28.8516L16.5897 28.4313L16.5897 28.4313L16.8606 28.8516ZM17.4355 26.9151L17.9186 26.7864L17.7307 26.0808L17.1408 26.5112L17.4355 26.9151ZM15.8 28.0873L16.0667 28.5103L16.0668 28.5102L15.8 28.0873ZM15.1709 28.1099L14.6967 27.9513L14.4736 28.6187L15.1772 28.6098L15.1709 28.1099ZM15.3867 27.5104L15.0513 27.1396L15.0513 27.1396L15.3867 27.5104ZM16.6983 26.5105L16.9433 26.9464L16.9435 26.9463L16.6983 26.5105ZM17.4685 24.5344L17.9503 24.4004L17.7904 23.8255L17.2524 24.0835L17.4685 24.5344ZM17.0464 24.7278L17.1238 25.2218L17.1244 25.2217L17.0464 24.7278ZM16.3996 24.7396L15.9271 24.5761L15.696 25.2437L16.4025 25.2396L16.3996 24.7396ZM16.6212 24.1457L16.8432 24.5938L16.8435 24.5936L16.6212 24.1457ZM17.5111 21.3491L18.011 21.3366L17.9907 20.5262L17.2756 20.9081L17.5111 21.3491ZM15.5135 23.4146L16.0131 23.3961L16.0131 23.3959L15.5135 23.4146ZM15.0603 23.9682L14.6143 24.1942L14.9526 24.8616L15.4398 24.2937L15.0603 23.9682ZM14.5921 23.0442L15.0381 22.818L14.8768 22.5L14.5236 22.5489L14.5921 23.0442ZM13.343 25.0478L12.8516 24.9554L12.8516 24.9554L13.343 25.0478ZM12.7468 26.7214L12.2482 26.7594L13.216 26.8941L12.7468 26.7214ZM12.6205 25.0034L12.1211 25.0283L12.1211 25.0284L12.6205 25.0034ZM12.6742 24.2042L13.1729 24.2408L13.2227 23.5627L12.5605 23.7173L12.6742 24.2042ZM11.2868 25.7062L11.786 25.734L11.786 25.7339L11.2868 25.7062ZM10.9029 28.987L11.3973 29.0618L11.3973 29.0615L10.9029 28.987ZM10.4657 29.5544L10.0055 29.7498L10.3318 30.5184L10.8553 29.8678L10.4657 29.5544ZM10.1939 28.8774L10.6922 28.9188L10.6922 28.9187L10.1939 28.8774ZM10.3576 25.2641L10.8568 25.2358L10.8037 24.2981L10.0554 24.8657L10.3576 25.2641ZM7.52399 27.4317L7.83977 27.8193L7.83981 27.8193L7.52399 27.4317ZM6.76598 28.4051L6.31405 28.1911L6.31398 28.1913L6.76598 28.4051ZM0.843029 30.6903L0.44233 30.9893L0.640433 31.2548L0.962106 31.1759L0.843029 30.6903ZM0.620605 30.3924L0.219678 30.0936L-0.00304776 30.3925L0.219805 30.6913L0.620605 30.3924ZM3.39097 26.772L3.02376 26.4327L3.02363 26.4328L3.39097 26.772ZM5.16416 26.4219L5.19026 26.9212L5.19027 26.9212L5.16416 26.4219ZM10.1054 24.5734L10.4296 24.9541L11.0404 24.434L10.3044 24.1147L10.1054 24.5734ZM7.2071 23.2955L6.98544 23.7437L6.98548 23.7437L7.2071 23.2955ZM6.44061 22.5352L6.46865 22.036L5.18502 21.9639L6.08266 22.8843L6.44061 22.5352ZM7.45061 22.6074L7.62641 22.1393L7.62635 22.1393L7.45061 22.6074ZM9.91111 23.6773L9.68386 24.1227L9.68391 24.1227L9.91111 23.6773ZM12.193 23.3561L12.562 23.6935L13.0257 23.1864L12.4005 22.9012L12.193 23.3561ZM10.4351 22.5346L10.1932 22.9722L10.1933 22.9723L10.4351 22.5346ZM10.0465 21.9492L9.9713 21.4549L9.21595 21.5698L9.62364 22.216L10.0465 21.9492ZM10.6894 21.8659L10.5303 22.3399L10.5304 22.3399L10.6894 21.8659ZM12.106 22.4863L12.3573 22.054L12.3573 22.054L12.106 22.4863ZM14.2628 22.1927L14.6256 22.5368L14.9963 22.1461L14.5791 21.8054L14.2628 22.1927ZM13.4924 21.5633L12.9953 21.6166L13.0171 21.8206L13.176 21.9504L13.4924 21.5633ZM13.4544 21.2104L13.5332 20.7167L12.8875 20.6137L12.9572 21.2637L13.4544 21.2104ZM16.9557 20.4828L17.386 20.7375L17.6551 20.2827L17.1862 20.0391L16.9557 20.4828ZM15.2747 19.6605L15.3507 19.1663L15.3506 19.1663L15.2747 19.6605ZM13.591 20.0425L13.1175 20.203L13.2659 20.6409L13.714 20.5271L13.591 20.0425ZM13.4649 19.669L13.1527 19.2784L12.8793 19.497L12.9911 19.8287L13.4649 19.669ZM14.2362 19.0527L14.5482 19.4435L14.9436 19.1277L14.6231 18.7361L14.2362 19.0527ZM12.179 18.7055L12.4133 19.1472L12.4133 19.1472L12.179 18.7055ZM10.1271 19.5104L9.66832 19.7092L9.85868 20.1486L10.3059 19.9774L10.1271 19.5104ZM9.91029 19.0091L9.67947 18.5656L9.26639 18.7806L9.45148 19.2079L9.91029 19.0091ZM12.161 17.8381L12.3917 18.2817L12.9539 17.9892L12.5387 17.5105L12.161 17.8381ZM10.0128 17.5096L10.2472 17.9513L10.2473 17.9512L10.0128 17.5096ZM7.36152 18.6583L7.17621 18.1939L7.17612 18.194L7.36152 18.6583ZM6.41167 18.685L6.01993 18.3743L5.54101 18.9781L6.28759 19.1694L6.41167 18.685ZM10.0139 16.6235L10.3039 17.0307L10.7879 16.686L10.3656 16.2681L10.0139 16.6235ZM4.40139 14.7223L4.43777 14.2236L4.43771 14.2236L4.40139 14.7223ZM2.71357 13.7501L3.13094 13.4748L3.13092 13.4748L2.71357 13.7501ZM0.649339 10.8367L0.182483 10.6577L0.0863368 10.9085L0.242284 11.1271L0.649339 10.8367ZM0.759103 10.5523L0.807047 10.0546L0.429174 10.0182L0.292588 10.3724L0.759103 10.5523ZM2.29725 10.6881L2.26254 10.1893L2.26248 10.1893L2.29725 10.6881ZM7.34002 13.4618L6.92085 13.7344L6.92086 13.7344L7.34002 13.4618ZM10.3088 15.9979L9.99062 16.3836L10.3268 16.661L10.6474 16.3658L10.3088 15.9979ZM10.5687 15.7588L10.9073 16.1267L11.0955 15.9534L11.0651 15.6993L10.5687 15.7588ZM10.223 12.7129L10.7219 12.6796L10.7219 12.6796L10.223 12.7129ZM10.4965 11.6499L10.9397 11.4184L10.3515 10.2925L10.0145 11.5173L10.4965 11.6499ZM10.9565 12.5655L11.4496 12.4832L11.4496 12.4831L10.9565 12.5655ZM11.2727 15.3342L10.7731 15.3527L10.7731 15.3529L11.2727 15.3342ZM12.623 16.9904L12.5337 17.4823L13.123 17.5893V16.9904H12.623ZM12.623 14.4608L12.5688 13.9638L12.123 14.0123V14.4608H12.623ZM13.0329 14.4164L13.525 14.3281L13.4427 13.8688L12.9788 13.9193L13.0329 14.4164ZM13.363 16.2979L13.8596 16.2398L13.8596 16.2397L13.363 16.2979ZM14.7139 18.2011L14.6469 18.6966L15.1731 18.7677L15.2125 18.2382L14.7139 18.2011ZM14.7587 17.7242L14.291 17.5476L14.2906 17.5486L14.7587 17.7242ZM15.0603 17.2502L15.4115 16.8943L14.9783 16.4669L14.643 16.9748L15.0603 17.2502ZM15.4973 17.7015L15.9962 17.7344L15.9963 17.7338L15.4973 17.7015ZM17.4708 19.8695L17.2373 20.3116L17.9701 20.6987L17.9708 19.8699L17.4708 19.8695ZM16.8852 17.281L17.1569 16.8613L17.1568 16.8612L16.8852 17.281ZM16.3814 16.5038V16.0038H15.4823L15.9567 16.7676L16.3814 16.5038ZM17.4824 16.5038V17.0038H17.836L17.9538 16.6703L17.4824 16.5038ZM16.8726 14.8377L17.1325 14.4106L17.1325 14.4105L16.8726 14.8377ZM15.6371 13.9066L15.2961 14.2724L15.2962 14.2724L15.6371 13.9066ZM15.1525 13.1248L15.2413 12.6328L14.1596 12.4376L14.7233 13.3812L15.1525 13.1248ZM16.0309 13.2999L16.2781 12.8653L16.2778 12.8652L16.0309 13.2999ZM17.4047 14.2812L17.1098 14.685L17.6605 15.0872L17.8785 14.441L17.4047 14.2812ZM16.8323 12.3571L16.5601 12.7765L16.5601 12.7765L16.8323 12.3571ZM14.187 10.3782L14.5014 9.98952L14.5014 9.98951L14.187 10.3782ZM13.8949 9.65682L13.9791 9.16396L13.1167 9.01655L13.4275 9.8344L13.8949 9.65682ZM14.612 9.79304L14.325 10.2025L14.3252 10.2026L14.612 9.79304ZM17.4948 11.9195L17.1963 12.3206L17.9257 12.8635L17.9934 11.9567L17.4948 11.9195ZM17.2031 8.08063L17.6268 7.81504L17.6267 7.81497L17.2031 8.08063ZM17.2356 1.85609L16.8126 1.58947L16.8126 1.58951L17.2356 1.85609ZM17.7559 0.78428L17.691 0.288508L17.4222 0.323693L17.305 0.568194L17.7559 0.78428ZM18.0589 0.744385L18.5151 0.539632L18.3624 0.199544L17.9929 0.248762L18.0589 0.744385ZM19.0445 2.90102L18.6162 3.15895L18.6162 3.15899L19.0445 2.90102ZM19.0162 7.11983L19.4425 7.38115L19.4425 7.38111L19.0162 7.11983ZM18.3386 11.8912L17.8423 11.952L17.9425 12.7699L18.6217 12.3033L18.3386 11.8912ZM21.8085 9.50757L22.2121 9.21251L21.9256 8.82052L21.5254 9.09543L21.8085 9.50757ZM22.1039 9.91169L22.4112 10.3061L22.7936 10.0081L22.5075 9.61664L22.1039 9.91169ZM19.7724 11.7361L20.0905 12.1219L20.0905 12.1219L19.7724 11.7361ZM18.3797 14.2076L17.9064 14.3688L18.1043 14.95L18.6335 14.6384L18.3797 14.2076ZM20.5374 12.9371L20.9644 12.6769L20.7081 12.2564L20.2837 12.5063L20.5374 12.9371ZM20.7226 13.2404L21.1985 13.3938L21.2689 13.1754L21.1492 12.9796L20.7226 13.2404ZM18.3841 16.6648L17.9047 16.8068L18.0717 17.3704L18.6012 17.1152L18.3841 16.6648ZM18.8326 16.4602L18.8828 16.9576L18.883 16.9576L18.8326 16.4602ZM19.4515 16.5201L19.9217 16.6901L20.1367 16.0956L19.5087 16.0234L19.4515 16.5201ZM19.2533 17.0311L19.0312 16.5831L19.031 16.5832L19.2533 17.0311ZM18.3533 19.9075L17.8548 19.9471L17.9274 20.8615L18.6566 20.305L18.3533 19.9075ZM20.2815 18.1403L20.7786 18.1937L20.7786 18.1936L20.2815 18.1403ZM20.7319 17.2469L21.1847 17.0349L20.7578 16.1232L20.2894 17.0142L20.7319 17.2469ZM21.1935 18.2317L20.7408 18.4438L20.9288 18.8451L21.3498 18.7066L21.1935 18.2317ZM22.4181 16.6202L22.9181 16.6188L22.9181 16.6187L22.4181 16.6202ZM22.761 14.4813L22.8104 13.9837L22.347 13.9377L22.2682 14.3967L22.761 14.4813ZM23.136 14.5185H23.636V14.0656L23.1853 14.0209L23.136 14.5185ZM23.136 16.9893H22.636V17.5734L23.2131 17.4834L23.136 16.9893ZM24.5948 15.4382L25.0946 15.452L25.0946 15.4519L24.5948 15.4382ZM24.9117 12.5651L24.4161 12.4988L24.4161 12.4989L24.9117 12.5651ZM25.1543 11.6669L25.2237 11.1717L24.7899 11.1109L24.6726 11.5331L25.1543 11.6669ZM25.5841 11.727L26.0823 11.7699L26.1228 11.2976L25.6534 11.2319L25.5841 11.727ZM25.2242 15.9153L24.726 15.8725L24.6568 16.6783L25.4086 16.38L25.2242 15.9153ZM29.0465 12.8131L28.607 12.5748L28.607 12.5748L29.0465 12.8131ZM32.7256 10.7195L32.7144 11.2194L32.7147 11.2194L32.7256 10.7195ZM33.2399 10.6761L33.2303 11.176L33.2304 11.176L33.2399 10.6761ZM35.1001 10.7309L35.5313 10.9841L35.9581 10.2573L35.1156 10.2311L35.1001 10.7309ZM34.1445 12.3695L33.6987 12.1431L33.6987 12.1432L34.1445 12.3695ZM29.647 14.9356L29.6309 15.4354L29.631 15.4354L29.647 14.9356ZM25.5837 16.6365L25.2959 16.2276L24.5751 16.735L25.3805 17.0933L25.5837 16.6365ZM29.4672 18.3644L29.952 18.4869L30.0551 18.0787L29.6704 17.9076L29.4672 18.3644ZM29.38 18.7104L29.3377 19.2086L29.7607 19.2445L29.8647 18.8329L29.38 18.7104ZM28.544 18.628L28.7257 18.1621L28.7257 18.1621L28.544 18.628ZM25.8911 17.4848L26.1305 17.0459L26.1304 17.0459L25.8911 17.4848ZM23.6321 17.8869L23.2535 17.5603L22.808 18.0767L23.4345 18.3462L23.6321 17.8869ZM25.2687 18.6112L25.5105 18.1736L25.5104 18.1735L25.2687 18.6112ZM25.7697 19.2504L25.7881 19.75L26.7433 19.7149L26.1697 18.9503L25.7697 19.2504ZM24.9468 19.2659L25.0817 18.7844L25.0816 18.7844L24.9468 19.2659ZM23.7113 18.7501L23.4533 19.1784L23.4533 19.1785L23.7113 18.7501ZM21.5367 19.078L21.1667 18.7416L20.7519 19.1978L21.284 19.5094L21.5367 19.078ZM22.0047 19.3667L21.622 19.6886L21.6223 19.6889L22.0047 19.3667ZM22.212 19.8728L22.3284 20.359L22.8829 20.2263L22.6789 19.6939L22.212 19.8728ZM21.6807 19.9873L21.4029 20.403L21.4034 20.4033L21.6807 19.9873ZM18.7512 20.6314L18.4713 20.2171L17.7802 20.6839L18.5176 21.0735L18.7512 20.6314ZM21.5892 21.2677L21.3089 20.8536L21.3089 20.8536L21.5892 21.2677ZM22.23 21.3427L22.6518 21.6111L23.0686 20.9559L22.2997 20.8476L22.23 21.3427ZM21.6392 22.2719L21.2172 22.0037L21.0298 22.2985L21.2422 22.5759L21.6392 22.2719ZM24.141 22.2994L24.3164 22.7676L24.3166 22.7675L24.141 22.2994ZM25.79 22.0191L26.0815 22.4253L25.7121 21.5252L25.79 22.0191ZM24.4743 22.9553L24.2003 22.537L24.1999 22.5373L24.4743 22.9553ZM23.6513 23.372L23.4286 22.9244L22.8357 23.2193L23.2817 23.7088L23.6513 23.372ZM25.8003 23.7166L26.0299 24.1608L26.03 24.1608L25.8003 23.7166ZM28.6422 22.4879L28.8247 22.9534L28.8252 22.9532L28.6422 22.4879ZM29.3833 22.5212L29.793 22.8078L30.3028 22.0789L29.4152 22.0222L29.3833 22.5212ZM28.9178 23.1581L29.1344 23.6087L29.1346 23.6086L28.9178 23.1581ZM25.6953 24.5834L25.4956 24.125L24.6958 24.4735L25.4008 24.9874L25.6953 24.5834ZM30.0605 26.339L30.0771 26.8387L30.0771 26.8387L30.0605 26.339ZM33.8646 28.5477L34.3078 28.3162L34.3078 28.3162L33.8646 28.5477ZM35.1812 30.3411L35.6154 30.589L35.7779 30.3043L35.5816 30.0417L35.1812 30.3411ZM17.5163 33.3243C16.7968 34.3388 16.3938 35.3024 16.3959 36.2865C16.398 37.2757 16.809 38.2 17.5416 39.1344L18.3286 38.5174C17.6791 37.6891 17.3974 36.9761 17.3959 36.2843C17.3944 35.5874 17.6771 34.8262 18.332 33.9029L17.5163 33.3243ZM18.33 39.1326C19.0525 38.2024 19.4354 37.2225 19.4307 36.214C19.4259 35.2063 19.0344 34.2307 18.3195 33.3075L17.5288 33.9198C18.143 34.7129 18.4272 35.4807 18.4307 36.2187C18.4342 36.9558 18.158 37.7239 17.5402 38.5192L18.33 39.1326ZM7.10691 13.8538C6.42307 12.6658 5.75914 11.8327 4.91918 11.3585C4.06376 10.8755 3.10503 10.8079 1.93519 10.9683L2.07102 11.9591C3.13719 11.8129 3.84239 11.8989 4.42755 12.2293C5.02818 12.5684 5.58148 13.2083 6.24024 14.3527L7.10691 13.8538ZM1.54994 11.675C2.03713 12.7199 2.6968 13.5495 3.57713 14.0685C4.46208 14.5902 5.51919 14.7681 6.74227 14.5985L6.60488 13.608C5.5597 13.7529 4.73934 13.5928 4.085 13.2071C3.42605 12.8186 2.88461 12.1711 2.45626 11.2524L1.54994 11.675ZM29.131 14.6037C30.3166 14.7713 31.3637 14.6121 32.2357 14.0971C33.1064 13.5828 33.7474 12.7464 34.1824 11.6611L33.2541 11.289C32.879 12.225 32.3622 12.861 31.7272 13.236C31.0935 13.6103 30.287 13.7572 29.271 13.6135L29.131 14.6037ZM33.7728 10.978C32.6511 10.855 31.6105 10.9804 30.7282 11.4645C29.8386 11.9526 29.1668 12.774 28.7327 13.9332L29.6692 14.2839C30.0361 13.3041 30.568 12.693 31.2092 12.3412C31.8577 11.9854 32.6752 11.8636 33.6637 11.9721L33.7728 10.978ZM28.7582 27.2996C29.1919 28.5233 29.9046 29.3283 30.8279 29.8003C31.7338 30.2634 32.7939 30.381 33.889 30.3338L33.846 29.3347C32.8347 29.3783 31.9717 29.2619 31.2831 28.9099C30.6119 28.5668 30.0587 27.9755 29.7008 26.9655L28.7582 27.2996ZM34.3185 29.6183C33.8292 28.5966 33.1895 27.7374 32.3263 27.19C31.4516 26.6354 30.397 26.4324 29.1478 26.6393L29.3112 27.6258C30.353 27.4533 31.1519 27.6294 31.7908 28.0345C32.4411 28.4469 32.975 29.1282 33.4165 30.0502L34.3185 29.6183ZM6.65888 26.5894C5.31722 26.5612 4.27368 26.7095 3.43597 27.2031C2.58804 27.7027 2.0288 28.5091 1.55077 29.6179L2.46908 30.0138C2.90844 28.9946 3.35724 28.4101 3.94359 28.0647C4.54015 27.7132 5.35714 27.5623 6.63784 27.5892L6.65888 26.5894ZM1.95955 30.3133C3.10552 30.4294 4.16027 30.2871 5.05756 29.7858C5.96004 29.2816 6.64888 28.4446 7.11315 27.2736L6.18356 26.905C5.78625 27.9071 5.23274 28.5424 4.56984 28.9128C3.90174 29.286 3.06807 29.4205 2.06029 29.3184L1.95955 30.3133ZM17.5193 1.93123C16.7612 2.91594 16.3435 3.94566 16.3402 5.00189C16.337 6.0609 16.7506 7.08145 17.5345 8.04428L18.31 7.41291C17.6376 6.58706 17.3378 5.78378 17.3402 5.00495C17.3426 4.22335 17.6496 3.40123 18.3117 2.54124L17.5193 1.93123ZM18.3179 8.03438C19.0588 7.07584 19.471 6.06091 19.4771 5.00694C19.4832 3.95168 19.0819 2.9196 18.3098 1.9289L17.5211 2.54357C18.1882 3.39964 18.4817 4.21919 18.4771 5.00114C18.4726 5.78439 18.1687 6.59225 17.5267 7.42281L18.3179 8.03438ZM35.0427 30.181C33.5487 30.0188 32.1363 29.9557 30.745 29.6645L30.5401 30.6433C31.9949 30.9478 33.524 31.022 34.9347 31.1752L35.0427 30.181ZM30.745 29.6645C30.6936 29.6537 30.5748 29.5858 30.3891 29.3623C30.2132 29.1507 30.0582 28.9041 29.8819 28.6469L29.057 29.2121C29.2028 29.425 29.4047 29.7424 29.62 30.0015C29.8255 30.2486 30.1322 30.5579 30.5402 30.6433L30.745 29.6645ZM29.8819 28.6469C28.8197 27.0966 27.5707 25.6148 25.4161 24.9771L25.1323 25.9359C26.9458 26.4727 28.0286 27.7113 29.057 29.2121L29.8819 28.6469ZM24.7772 25.5108C24.9018 26.6517 25.0433 27.7038 25.1146 28.77L26.1123 28.7033C26.0393 27.6093 25.8923 26.5104 25.7713 25.4022L24.7772 25.5108ZM25.1146 28.7698C25.1144 28.767 25.1155 28.8045 25.0551 28.9318C25.0263 28.9924 24.9966 29.0483 24.9564 29.1271C24.9198 29.199 24.8767 29.2859 24.8403 29.378L25.7702 29.7457C25.7883 29.7 25.8132 29.6483 25.8473 29.5813C25.8779 29.5212 25.9217 29.4382 25.9586 29.3603C26.0296 29.2107 26.1303 28.9734 26.1123 28.7034L25.1146 28.7698ZM25.7318 29.301C25.653 29.1721 25.5114 28.9896 25.4662 28.9248C25.3927 28.8194 25.3811 28.7785 25.3798 28.7698L24.3919 28.9251C24.4304 29.1702 24.556 29.3679 24.6459 29.4968C24.7642 29.6665 24.8124 29.7143 24.8787 29.8227L25.7318 29.301ZM25.3797 28.7696C25.2178 27.7417 25.0558 26.7474 25.0228 25.7557L24.0233 25.789C24.0589 26.8545 24.2326 27.9138 24.3919 28.9252L25.3797 28.7696ZM25.0228 25.7558C25.0058 25.2441 24.8725 24.7942 24.5533 24.4294C24.2434 24.0754 23.8071 23.8582 23.3002 23.7046L23.0102 24.6617C23.4331 24.7898 23.6663 24.9344 23.8008 25.088C23.9258 25.2309 24.0116 25.4347 24.0233 25.789L25.0228 25.7558ZM22.6576 24.2316C22.7269 24.943 22.8147 25.5171 22.8242 26.114L23.824 26.098C23.8137 25.4476 23.7154 24.7772 23.6529 24.1347L22.6576 24.2316ZM22.8242 26.114C22.8236 26.0789 22.8324 26.0625 22.828 26.0731C22.8234 26.0846 22.8119 26.1076 22.7858 26.1484C22.7582 26.1916 22.7306 26.2304 22.6888 26.2916C22.6517 26.3459 22.6051 26.4156 22.5639 26.4914L23.4426 26.9687C23.458 26.9404 23.4802 26.9059 23.5144 26.8559C23.5438 26.8128 23.5899 26.7472 23.6289 26.6863C23.6995 26.5756 23.8283 26.3615 23.824 26.098L22.8242 26.114ZM23.3916 26.4151C23.3414 26.3532 23.2879 26.2978 23.2459 26.2552C23.1984 26.2069 23.1681 26.1772 23.1367 26.1434C23.1074 26.1117 23.0935 26.0934 23.0874 26.084C23.0817 26.0753 23.091 26.0867 23.0972 26.1151L22.1197 26.3264C22.1707 26.5622 22.3189 26.732 22.4031 26.8229C22.4482 26.8717 22.5003 26.9232 22.5333 26.9567C22.5718 26.9958 22.5968 27.0226 22.615 27.0451L23.3916 26.4151ZM23.097 26.1144C22.9881 25.614 22.9029 25.1454 22.9162 24.7019L21.9166 24.6719C21.8994 25.2488 22.0101 25.8224 22.1199 26.327L23.097 26.1144ZM22.9162 24.7021C22.9328 24.1559 22.82 23.6598 22.5104 23.26C22.202 22.8617 21.7493 22.6251 21.2172 22.4945L20.9789 23.4657C21.3726 23.5623 21.5933 23.709 21.7198 23.8723C21.8451 24.0341 21.9286 24.2778 21.9167 24.6718L22.9162 24.7021ZM20.6038 22.904C20.5541 23.2273 20.5053 23.5453 20.456 23.8652L21.4444 24.0174C21.4935 23.6986 21.5427 23.3775 21.5922 23.0562L20.6038 22.904ZM20.8007 23.4642C20.6882 23.4994 20.5736 23.5352 20.4604 23.5707L20.7599 24.5248C20.8732 24.4892 20.9852 24.4543 21.0997 24.4184L20.8007 23.4642ZM21.087 23.8973C21.0486 23.7756 21.016 23.6431 20.9818 23.495C20.949 23.3528 20.9131 23.1889 20.8722 23.0327C20.7913 22.7239 20.6709 22.3588 20.4223 22.0592L19.6528 22.6979C19.7554 22.8215 19.8319 23.0077 19.9048 23.2861C19.9408 23.4234 19.971 23.5621 20.0075 23.7199C20.0425 23.8718 20.0824 24.0366 20.1333 24.1982L21.087 23.8973ZM20.4222 22.0591C20.1673 21.7522 19.8349 21.5423 19.5251 21.3708C19.183 21.1813 18.9095 21.0572 18.5872 20.8617L18.0685 21.7167C18.3994 21.9174 18.7879 22.1056 19.0408 22.2456C19.326 22.4036 19.5219 22.5402 19.6529 22.698L20.4222 22.0591ZM17.8279 21.2876C17.827 21.5662 17.8053 21.8295 17.7894 22.1243C17.7743 22.4052 17.7652 22.7099 17.8045 23.0063C17.8447 23.3088 17.9372 23.6193 18.1363 23.9062C18.3363 24.1941 18.6215 24.4266 18.9979 24.6074L19.4309 23.706C19.1813 23.5861 19.0421 23.4574 18.9578 23.3359C18.8728 23.2134 18.8212 23.0661 18.7958 22.8747C18.7696 22.677 18.7733 22.4515 18.788 22.1779C18.8019 21.9182 18.8269 21.603 18.8278 21.2908L17.8279 21.2876ZM18.9983 24.6076C18.8893 24.5553 18.8505 24.4751 18.8489 24.472C18.8453 24.4648 18.851 24.4749 18.8627 24.5207C18.8744 24.5668 18.883 24.6103 18.8987 24.6812C18.9121 24.7419 18.931 24.8237 18.9585 24.9033L19.9037 24.5768C19.8965 24.5561 19.8879 24.523 19.8752 24.4655C19.8647 24.4183 19.8488 24.3407 19.8318 24.2741C19.8148 24.2071 19.7878 24.113 19.7418 24.0217C19.6978 23.9345 19.6069 23.7903 19.4305 23.7058L18.9983 24.6076ZM19.4633 24.2411C19.1239 24.2192 18.7845 24.1974 18.3979 24.1726L18.3339 25.1706C18.7207 25.1954 19.0598 25.2171 19.3988 25.239L19.4633 24.2411ZM17.8945 24.5049C17.7234 24.9887 17.7028 25.4722 17.8945 25.9222C18.0826 26.3637 18.4451 26.7028 18.9019 26.9658L19.4008 26.0991C19.0598 25.9028 18.8897 25.7068 18.8145 25.5304C18.7431 25.3625 18.7287 25.1452 18.8373 24.8384L17.8945 24.5049ZM18.902 26.9658C19.3299 27.2121 19.7321 27.5408 20.1324 27.9004L20.8006 27.1564C20.3844 26.7825 19.9204 26.3981 19.4008 26.0991L18.902 26.9658ZM20.1326 27.9005C20.1136 27.8835 20.1011 27.8674 20.0937 27.8562C20.09 27.8507 20.0875 27.8463 20.086 27.8434C20.0845 27.8405 20.0838 27.8389 20.0838 27.8389C20.0838 27.8389 20.0843 27.8401 20.0853 27.8428C20.0862 27.8455 20.0875 27.8494 20.089 27.8546C20.0921 27.8653 20.0957 27.8795 20.0998 27.8986C20.1091 27.9419 20.1155 27.982 20.1276 28.0486C20.1381 28.1066 20.1527 28.1833 20.1753 28.2606L21.1352 27.9803C21.1283 27.9567 21.1212 27.9238 21.1116 27.8705C21.1035 27.8259 21.0913 27.753 21.0774 27.6883C21.0535 27.5771 20.9972 27.3328 20.8004 27.1563L20.1326 27.9005ZM20.6693 27.6206C20.5885 27.6183 20.5103 27.6236 20.451 27.6281C20.3829 27.6333 20.3421 27.6373 20.297 27.6394C20.2548 27.6413 20.2361 27.6397 20.2308 27.6389C20.2264 27.6383 20.2538 27.6412 20.2918 27.665L19.761 28.5125C19.9805 28.65 20.2251 28.6436 20.342 28.6384C20.4082 28.6354 20.4821 28.6287 20.5276 28.6252C20.5817 28.621 20.6159 28.6195 20.6411 28.6202L20.6693 27.6206ZM20.2918 27.6651C19.7666 27.336 19.2898 26.9596 18.7003 26.5336L18.1145 27.3441C18.66 27.7383 19.1985 28.1602 19.761 28.5125L20.2918 27.6651ZM17.9269 26.8007C17.7798 27.3126 17.7336 27.806 17.8857 28.2648C18.0411 28.7337 18.3759 29.0857 18.8262 29.3657L19.3542 28.5165C19.0345 28.3177 18.8949 28.1314 18.8349 27.9503C18.7716 27.7591 18.7691 27.4907 18.888 27.077L17.9269 26.8007ZM18.8262 29.3657C19.6417 29.8728 20.3908 30.4876 21.1897 31.1139L21.8067 30.327C21.0342 29.7213 20.2288 29.0603 19.3542 28.5165L18.8262 29.3657ZM21.1897 31.1139C21.3207 31.2166 21.438 31.3888 21.5175 31.6655L22.4786 31.3895C22.3584 30.9707 22.1466 30.5935 21.8067 30.327L21.1897 31.1139ZM22.0688 31.0325C21.464 30.946 20.9749 30.6428 20.4245 30.2298C19.8962 29.8335 19.2808 29.3066 18.5245 28.9614L18.1093 29.8712C18.7373 30.1578 19.2263 30.5811 19.8244 31.0298C20.4003 31.4618 21.0596 31.8983 21.9272 32.0224L22.0688 31.0325ZM17.8171 29.4299C17.8255 29.7409 17.8107 30.0545 17.7929 30.3837C17.7755 30.7068 17.7549 31.0498 17.7572 31.3891C17.7618 32.0752 17.8589 32.8018 18.2911 33.5014L19.1418 32.9759C18.8458 32.4966 18.7612 31.9792 18.7571 31.3824C18.7551 31.0803 18.7734 30.7722 18.7915 30.4376C18.8092 30.1093 18.8264 29.7589 18.8167 29.4028L17.8171 29.4299ZM18.2912 33.5015C18.8962 34.4804 19.1829 35.4097 19.172 36.3072C19.1611 37.2023 18.8535 38.1117 18.1921 39.0524L19.0101 39.6276C19.7656 38.5532 20.1581 37.4514 20.1719 36.3194C20.1857 35.1896 19.8217 34.0758 19.1418 32.9758L18.2912 33.5015ZM18.1922 39.0523C18.048 39.2572 17.9441 39.4759 17.8426 39.706C17.7374 39.9448 17.6342 40.1971 17.4767 40.5314L18.3814 40.9574C18.5455 40.6091 18.6643 40.3212 18.7576 40.1095C18.8548 39.8891 18.9262 39.7469 19.0101 39.6277L18.1922 39.0523ZM18.378 40.5242C17.9079 39.5658 17.568 38.7385 17.1291 38.0114L16.273 38.5283C16.6832 39.2077 16.9684 39.9212 17.4802 40.9646L18.378 40.5242ZM17.1291 38.0114C16.758 37.3968 16.6012 36.8302 16.6049 36.2703C16.6087 35.7049 16.7764 35.1084 17.1139 34.4379L16.2207 33.9882C15.8373 34.7499 15.61 35.4997 15.605 36.2637C15.5999 37.033 15.8205 37.7787 16.273 38.5282L17.1291 38.0114ZM17.1139 34.4379C17.6406 33.3919 17.9336 32.6173 18.045 31.8379C18.1562 31.0601 18.0805 30.3151 17.9368 29.3518L16.9478 29.4994C17.0899 30.4521 17.1442 31.0732 17.0551 31.6963C16.9663 32.3178 16.7289 32.979 16.2207 33.9882L17.1139 34.4379ZM17.2249 28.9753C16.5326 29.3095 15.9406 29.8208 15.4157 30.2383C14.8683 30.6739 14.3725 31.0281 13.796 31.1971L14.0773 32.1567C14.858 31.9278 15.4865 31.4599 16.0383 31.0209C16.6126 30.564 17.0947 30.1486 17.6597 29.8759L17.2249 28.9753ZM14.342 31.3841C14.265 31.2777 14.1883 31.1714 14.1115 31.0649L13.3004 31.6497C13.3774 31.7566 13.4545 31.8633 13.5313 31.9697L14.342 31.3841ZM14.072 31.6979C14.1708 31.5918 14.2868 31.4513 14.3589 31.3693C14.4449 31.2715 14.5158 31.1995 14.5863 31.1455L13.9782 30.3516C13.8296 30.4655 13.7077 30.5955 13.6079 30.7089C13.4943 30.8381 13.4317 30.9181 13.3399 31.0168L14.072 31.6979ZM14.5862 31.1456C15.4464 30.487 16.2584 29.8347 17.1315 29.2718L16.5897 28.4313C15.6723 29.0227 14.8127 29.7128 13.9783 30.3516L14.5862 31.1456ZM17.1315 29.2718C17.5906 28.976 17.8855 28.6053 18.0001 28.1379C18.1083 27.6964 18.0379 27.2342 17.9186 26.7864L16.9523 27.0438C17.0583 27.4418 17.0764 27.7056 17.0288 27.8998C16.9876 28.068 16.8824 28.2426 16.5897 28.4313L17.1315 29.2718ZM17.1408 26.5112C16.5339 26.9539 16.0583 27.3331 15.5331 27.6645L16.0668 28.5102C16.6298 28.1549 17.1674 27.7296 17.7302 27.319L17.1408 26.5112ZM15.5332 27.6644C15.5748 27.6382 15.6057 27.6351 15.6024 27.6355C15.5984 27.636 15.5804 27.6374 15.5381 27.6348C15.4931 27.6321 15.4522 27.6274 15.3839 27.621C15.3244 27.6154 15.2459 27.6089 15.1646 27.6099L15.1772 28.6098C15.2023 28.6095 15.2364 28.6116 15.2909 28.6167C15.3365 28.6209 15.4108 28.6289 15.4773 28.633C15.5924 28.64 15.843 28.6513 16.0667 28.5103L15.5332 27.6644ZM15.6451 28.2684C15.6707 28.1919 15.6886 28.1159 15.7017 28.0575C15.7167 27.9909 15.725 27.9499 15.7364 27.9058C15.7471 27.8644 15.7545 27.8455 15.7576 27.8389C15.7603 27.833 15.7516 27.8546 15.7222 27.8812L15.0513 27.1396C14.8632 27.3098 14.7982 27.5396 14.7682 27.6557C14.7515 27.7203 14.7362 27.7929 14.7261 27.8381C14.714 27.8916 14.7052 27.9259 14.6967 27.9513L15.6451 28.2684ZM15.7221 27.8812C16.1258 27.5161 16.5198 27.1844 16.9433 26.9464L16.4534 26.0746C15.9256 26.3712 15.4617 26.7684 15.0513 27.1396L15.7221 27.8812ZM16.9435 26.9463C17.4012 26.6889 17.7574 26.3487 17.9387 25.8865C18.1183 25.4284 18.0963 24.9257 17.9503 24.4004L16.9868 24.6683C17.0977 25.0672 17.0818 25.3326 17.0077 25.5214C16.9352 25.7063 16.7779 25.8921 16.4532 26.0747L16.9435 26.9463ZM17.2524 24.0835C17.2012 24.108 17.1545 24.1337 17.1173 24.1545C17.0759 24.1776 17.0506 24.1922 17.0222 24.2072C16.9657 24.2372 16.9563 24.2359 16.9685 24.234L17.1244 25.2217C17.2806 25.1971 17.4092 25.134 17.4912 25.0905C17.6042 25.0304 17.6173 25.0176 17.6847 24.9852L17.2524 24.0835ZM16.969 24.2339C16.9047 24.244 16.8297 24.2469 16.7311 24.2457C16.6542 24.2448 16.5038 24.239 16.3968 24.2396L16.4025 25.2396C16.5114 25.239 16.579 25.2439 16.7187 25.2456C16.8368 25.2471 16.9771 25.2448 17.1238 25.2218L16.969 24.2339ZM16.8721 24.9032C16.8999 24.8228 16.9191 24.7402 16.9328 24.6787C16.9487 24.607 16.9575 24.5626 16.9695 24.5158C16.9814 24.4695 16.9875 24.4584 16.9844 24.4645C16.9831 24.4671 16.9463 24.5427 16.8432 24.5938L16.3992 23.6977C16.2271 23.783 16.137 23.9244 16.0922 24.0129C16.0456 24.1048 16.0182 24.1996 16.0008 24.2677C15.9835 24.3353 15.9672 24.4138 15.9565 24.4619C15.9436 24.5202 15.9347 24.5543 15.9271 24.5761L16.8721 24.9032ZM16.8435 24.5936C17.2126 24.4104 17.4933 24.1787 17.6923 23.8962C17.8909 23.6143 17.9882 23.31 18.0328 23.0115C18.0765 22.7187 18.0707 22.4205 18.0563 22.1456C18.0408 21.8509 18.0178 21.6102 18.011 21.3366L17.0113 21.3616C17.0184 21.6471 17.0451 21.9592 17.0576 22.1982C17.0713 22.4571 17.0721 22.6736 17.0437 22.8639C17.0162 23.0484 16.9628 23.1954 16.8747 23.3204C16.7871 23.4448 16.6453 23.5756 16.399 23.6979L16.8435 24.5936ZM17.2756 20.9081C17.0542 21.0263 16.833 21.121 16.5799 21.2387C16.34 21.3503 16.078 21.48 15.843 21.6503C15.6028 21.8245 15.3792 22.049 15.224 22.3558C15.0685 22.6632 14.9983 23.02 15.0138 23.4333L16.0131 23.3959C16.0028 23.1199 16.0506 22.9371 16.1163 22.8073C16.1822 22.6769 16.2831 22.5664 16.4299 22.46C16.5821 22.3497 16.7697 22.2533 17.0016 22.1454C17.2202 22.0437 17.4928 21.9257 17.7466 21.7902L17.2756 20.9081ZM15.0138 23.4331C15.0119 23.3826 15.0215 23.3426 15.0303 23.3172C15.0388 23.2929 15.0475 23.2795 15.0485 23.278C15.0496 23.2762 15.047 23.2805 15.0376 23.2913C15.0284 23.3019 15.0155 23.3155 14.9978 23.333C14.9583 23.372 14.919 23.4067 14.8596 23.4616C14.8078 23.5095 14.7408 23.5728 14.6809 23.6426L15.4398 24.2937C15.4592 24.2712 15.4893 24.2414 15.5383 24.196C15.5797 24.1577 15.6451 24.0991 15.6999 24.0451C15.7553 23.9904 15.8277 23.9142 15.887 23.8229C15.945 23.7337 16.0201 23.5852 16.0131 23.3961L15.0138 23.4331ZM15.5063 23.7421C15.3525 23.4387 15.1983 23.1339 15.0381 22.818L14.1462 23.2703C14.3064 23.5862 14.4601 23.89 14.6143 24.1942L15.5063 23.7421ZM14.5236 22.5489C14.162 22.5989 13.8581 22.7177 13.6145 22.9129C13.3708 23.1081 13.2216 23.3525 13.1254 23.5979C13.0317 23.8369 12.9837 24.0895 12.9489 24.3138C12.9106 24.56 12.8911 24.7452 12.8516 24.9554L13.8343 25.1403C13.8766 24.9155 13.9082 24.6529 13.937 24.4671C13.9693 24.2594 14.0043 24.0958 14.0564 23.9628C14.106 23.8362 14.1653 23.7529 14.2398 23.6933C14.3144 23.6335 14.4382 23.5702 14.6607 23.5395L14.5236 22.5489ZM12.8516 24.9554C12.8064 25.1956 12.7225 25.4397 12.6164 25.707C12.5184 25.954 12.3811 26.2673 12.2776 26.5487L13.216 26.8941C13.3173 26.6188 13.4241 26.3827 13.5459 26.0759C13.6597 25.7892 13.7714 25.4749 13.8344 25.1403L12.8516 24.9554ZM13.2454 26.6834C13.2008 26.0987 13.1482 25.5433 13.1199 24.9784L12.1211 25.0284C12.1503 25.6103 12.2056 26.1989 12.2482 26.7594L13.2454 26.6834ZM13.1199 24.9785C13.1158 24.8965 13.1206 24.806 13.1319 24.6825C13.1424 24.5693 13.1607 24.4073 13.1729 24.2408L12.1756 24.1676C12.164 24.3251 12.1496 24.4445 12.1361 24.5909C12.1236 24.7269 12.1134 24.874 12.1211 25.0283L13.1199 24.9785ZM12.5605 23.7173C12.0843 23.8286 11.6435 24.0077 11.316 24.3424C10.9774 24.6884 10.8174 25.1407 10.7876 25.6785L11.786 25.7339C11.8064 25.367 11.9055 25.1697 12.0308 25.0418C12.1672 24.9023 12.395 24.7829 12.788 24.6911L12.5605 23.7173ZM10.7876 25.6784C10.7278 26.7499 10.5728 27.8225 10.4085 28.9124L11.3973 29.0615C11.5613 27.9739 11.7234 26.8583 11.786 25.734L10.7876 25.6784ZM10.4086 28.9122C10.4142 28.8745 10.427 28.8581 10.4208 28.8679C10.4141 28.8785 10.3983 28.8995 10.3641 28.9361C10.3279 28.9748 10.2928 29.0087 10.239 29.0627C10.1915 29.1105 10.1315 29.1722 10.0762 29.2409L10.8553 29.8678C10.8757 29.8424 10.9044 29.8119 10.9481 29.7679C10.9857 29.7301 11.0445 29.6726 11.0948 29.6188C11.1851 29.5222 11.3568 29.3294 11.3973 29.0618L10.4086 28.9122ZM10.926 29.359C10.8916 29.278 10.8512 29.2026 10.8185 29.143C10.7818 29.0762 10.7569 29.033 10.7323 28.9849C10.6784 28.8794 10.6957 28.8763 10.6922 28.9188L9.69561 28.836C9.6741 29.0951 9.77935 29.3176 9.84186 29.4399C9.8755 29.5058 9.91599 29.5771 9.94203 29.6245C9.97208 29.6792 9.99191 29.7178 10.0055 29.7498L10.926 29.359ZM10.6922 28.9187C10.7836 27.8155 10.9365 26.6422 10.8568 25.2358L9.85841 25.2923C9.93297 26.6087 9.79111 27.6829 9.6956 28.8361L10.6922 28.9187ZM10.0554 24.8657C9.11991 25.5753 8.13858 26.286 7.20818 27.044L7.83981 27.8193C8.75246 27.0757 9.70017 26.3903 10.6598 25.6624L10.0554 24.8657ZM7.20821 27.044C6.83604 27.3472 6.51724 27.7619 6.31405 28.1911L7.2179 28.619C7.35992 28.319 7.58768 28.0247 7.83977 27.8193L7.20821 27.044ZM6.31398 28.1913C6.02436 28.8036 5.67758 29.1828 5.30698 29.4297C4.93215 29.6794 4.50192 29.8144 4.01468 29.8906C3.51904 29.9681 3.00089 29.9806 2.43413 30.0054C1.8832 30.0295 1.29203 30.0654 0.723951 30.2047L0.962106 31.1759C1.4246 31.0625 1.92725 31.0285 2.47781 31.0044C3.01255 30.9811 3.60357 30.9671 4.16919 30.8786C4.74322 30.7889 5.32635 30.6184 5.86139 30.262C6.40067 29.9027 6.86027 29.3751 7.21797 28.6188L6.31398 28.1913ZM1.24373 30.3912C1.16891 30.291 1.09554 30.1929 1.02141 30.0935L0.219805 30.6913C0.293673 30.7904 0.368723 30.8907 0.44233 30.9893L1.24373 30.3912ZM1.02153 30.6912C1.95737 29.4353 2.75538 28.1974 3.75832 27.1112L3.02363 26.4328C1.97349 27.5701 1.10209 28.9095 0.219678 30.0936L1.02153 30.6912ZM3.75819 27.1114C3.79098 27.0759 3.9144 27.0084 4.23267 26.9706C4.53887 26.9343 4.84111 26.9394 5.19026 26.9212L5.13806 25.9225C4.87823 25.9361 4.45997 25.9366 4.11487 25.9776C3.78184 26.0171 3.32316 26.1087 3.02376 26.4327L3.75819 27.1114ZM5.19027 26.9212C7.0692 26.8229 8.8275 26.3184 10.4296 24.9541L9.78125 24.1928C8.38601 25.3809 6.85593 25.8327 5.13804 25.9225L5.19027 26.9212ZM10.3044 24.1147C9.29127 23.6753 8.34744 23.3016 7.42872 22.8473L6.98548 23.7437C7.9338 24.2126 8.93224 24.6096 9.90646 25.0321L10.3044 24.1147ZM7.42877 22.8474C7.36699 22.8168 7.29148 22.7534 7.17965 22.626C7.09596 22.5306 6.93177 22.3227 6.79856 22.1861L6.08266 22.8843C6.20205 23.0068 6.26814 23.1034 6.42807 23.2856C6.55985 23.4357 6.74128 23.623 6.98544 23.7437L7.42877 22.8474ZM6.41257 23.0345C6.59067 23.0445 6.83551 23.0348 6.95482 23.0358C7.11224 23.0371 7.20811 23.0504 7.27487 23.0755L7.62635 22.1393C7.39028 22.0507 7.15045 22.0374 6.96322 22.0358C6.73789 22.0339 6.62914 22.045 6.46865 22.036L6.41257 23.0345ZM7.27481 23.0755C8.0992 23.3851 8.90937 23.7275 9.68386 24.1227L10.1384 23.232C9.32158 22.8152 8.47516 22.4581 7.62641 22.1393L7.27481 23.0755ZM9.68391 24.1227C10.1294 24.35 10.6157 24.5158 11.1267 24.472C11.6557 24.4267 12.1313 24.1645 12.562 23.6935L11.824 23.0187C11.5217 23.3493 11.2655 23.4565 11.0413 23.4757C10.7991 23.4964 10.511 23.422 10.1383 23.2319L9.68391 24.1227ZM12.4005 22.9012C11.7694 22.6133 11.2137 22.3935 10.6769 22.097L10.1933 22.9723C10.7745 23.2934 11.414 23.5503 11.9855 23.811L12.4005 22.9012ZM10.6771 22.0971C10.7054 22.1127 10.7141 22.1268 10.7063 22.117C10.6979 22.1066 10.6832 22.0848 10.6602 22.0421C10.6359 21.997 10.6154 21.9538 10.5824 21.8878C10.5531 21.8292 10.5151 21.7549 10.4694 21.6824L9.62364 22.216C9.64113 22.2437 9.66063 22.2802 9.68769 22.3344C9.71108 22.3813 9.74572 22.4531 9.78003 22.5167C9.84277 22.6331 9.96559 22.8463 10.1932 22.9722L10.6771 22.0971ZM10.1217 22.4435C10.2011 22.4314 10.2764 22.4132 10.3349 22.3983C10.401 22.3816 10.4423 22.3703 10.4877 22.3603C10.5302 22.3509 10.553 22.3482 10.5641 22.3477C10.5743 22.3473 10.5589 22.3495 10.5303 22.3399L10.8485 21.3919C10.6174 21.3143 10.3934 21.357 10.2721 21.3838C10.2068 21.3982 10.1354 21.4173 10.0895 21.4289C10.0359 21.4425 9.99994 21.4505 9.9713 21.4549L10.1217 22.4435ZM10.5304 22.3399C10.9985 22.497 11.4499 22.6832 11.8547 22.9185L12.3573 22.054C11.8745 21.7734 11.3552 21.5619 10.8484 21.3919L10.5304 22.3399ZM11.8547 22.9185C12.3046 23.1801 12.784 23.3325 13.2827 23.2747C13.7865 23.2163 14.231 22.9528 14.6256 22.5368L13.9001 21.8486C13.6183 22.1456 13.3769 22.2571 13.1676 22.2813C12.9533 22.3062 12.6924 22.2488 12.3573 22.054L11.8547 22.9185ZM14.5791 21.8054C14.3313 21.6031 14.0701 21.3897 13.8088 21.1761L13.176 21.9504C13.4373 22.164 13.6987 22.3776 13.9466 22.58L14.5791 21.8054ZM13.9896 21.51C13.9832 21.4509 13.9769 21.3919 13.9705 21.3331C13.9641 21.2743 13.9578 21.2157 13.9515 21.1571L12.9572 21.2637C12.9636 21.3228 12.9699 21.3818 12.9763 21.4406C12.9827 21.4994 12.989 21.558 12.9953 21.6166L13.9896 21.51ZM13.3756 21.7042C13.713 21.758 13.961 21.8161 14.3341 21.8801C14.6658 21.9371 15.024 21.9834 15.3813 21.9685C15.7434 21.9534 16.1166 21.8751 16.471 21.6743C16.8269 21.4727 17.133 21.1649 17.386 20.7375L16.5254 20.2281C16.3475 20.5286 16.16 20.7012 15.978 20.8043C15.7945 20.9083 15.5856 20.9591 15.3396 20.9693C15.0888 20.9798 14.8131 20.9478 14.5033 20.8946C14.2349 20.8485 13.8339 20.7646 13.5332 20.7167L13.3756 21.7042ZM17.1862 20.0391C17.0689 19.9782 16.9471 19.9056 16.8123 19.8233C16.6818 19.7436 16.5353 19.6523 16.3881 19.5681C16.0951 19.4004 15.7439 19.2268 15.3507 19.1663L15.1987 20.1547C15.406 20.1866 15.6277 20.2851 15.8913 20.436C16.0224 20.511 16.15 20.5906 16.2911 20.6767C16.4278 20.7602 16.5749 20.8484 16.7252 20.9265L17.1862 20.0391ZM15.3506 19.1663C14.9686 19.1076 14.5973 19.1973 14.2982 19.2896C14.1465 19.3365 13.9908 19.3917 13.8556 19.4379C13.7146 19.4862 13.5881 19.5274 13.468 19.5579L13.714 20.5271C13.8757 20.4861 14.0344 20.4336 14.1792 20.3841C14.3299 20.3326 14.4606 20.2861 14.5932 20.2451C14.8628 20.1619 15.0516 20.1321 15.1988 20.1547L15.3506 19.1663ZM14.0646 19.882C14.0226 19.758 13.9808 19.634 13.9387 19.5092L12.9911 19.8287C13.033 19.9528 13.0751 20.0781 13.1175 20.203L14.0646 19.882ZM13.7772 20.0595C14.0297 19.8576 14.2824 19.6557 14.5482 19.4435L13.9242 18.662C13.6583 18.8744 13.4054 19.0764 13.1527 19.2784L13.7772 20.0595ZM14.6231 18.7361C14.2843 18.3221 13.8772 18.0381 13.3846 17.9586C12.9002 17.8805 12.4157 18.0139 11.9447 18.2638L12.4133 19.1472C12.773 18.9564 13.0316 18.9146 13.2254 18.9458C13.411 18.9758 13.6171 19.0858 13.8492 19.3694L14.6231 18.7361ZM11.9447 18.2638C11.3341 18.5876 10.697 18.7568 9.94834 19.0435L10.3059 19.9774C10.9306 19.7381 11.7339 19.5075 12.4133 19.1472L11.9447 18.2638ZM10.5859 19.3117C10.5498 19.2284 10.5138 19.145 10.4777 19.0614C10.4416 18.9778 10.4054 18.8941 10.3691 18.8104L9.45148 19.2079C9.48757 19.2912 9.52362 19.3746 9.55975 19.4582C9.59587 19.5417 9.63206 19.6254 9.66832 19.7092L10.5859 19.3117ZM10.1411 19.4527C10.8854 19.0653 11.63 18.6779 12.3917 18.2817L11.9302 17.3945C11.1685 17.7908 10.4239 18.1782 9.67947 18.5656L10.1411 19.4527ZM12.5387 17.5105C12.1745 17.0905 11.7481 16.8134 11.2436 16.7427C10.7481 16.6732 10.2563 16.8142 9.77832 17.068L10.2473 17.9512C10.6191 17.7538 10.8928 17.7033 11.1048 17.733C11.3076 17.7614 11.5304 17.8742 11.7832 18.1657L12.5387 17.5105ZM9.77843 17.068C8.96044 17.5021 8.08521 17.8312 7.17621 18.1939L7.54682 19.1227C8.42713 18.7715 9.36849 18.4176 10.2472 17.9513L9.77843 17.068ZM7.17612 18.194C7.02039 18.2562 6.81297 18.2717 6.53575 18.2006L6.28759 19.1694C6.71403 19.2786 7.14658 19.2825 7.54691 19.1227L7.17612 18.194ZM6.80341 18.9957C7.19284 18.5047 7.71512 18.2277 8.34039 17.9677C8.9335 17.7211 9.68586 17.4709 10.3039 17.0307L9.72379 16.2162C9.22704 16.57 8.64993 16.756 7.95645 17.0443C7.29514 17.3193 6.57373 17.6761 6.01993 18.3743L6.80341 18.9957ZM10.3656 16.2681C8.66016 14.5803 6.44833 14.3703 4.43777 14.2236L4.36501 15.221C6.40643 15.3699 8.25031 15.5816 9.66214 16.9788L10.3656 16.2681ZM4.43771 14.2236C4.1093 14.1997 3.86839 14.1288 3.67466 14.0176C3.48192 13.907 3.30516 13.7389 3.13094 13.4748L2.2962 14.0255C2.53707 14.3906 2.82107 14.6807 3.1769 14.8849C3.53173 15.0886 3.92718 15.1891 4.36506 15.221L4.43771 14.2236ZM3.13092 13.4748C2.46936 12.4721 1.73706 11.5006 1.05639 10.5464L0.242284 11.1271C0.944117 12.111 1.64765 13.0425 2.29623 14.0255L3.13092 13.4748ZM1.11619 11.0157C1.15244 10.9212 1.18831 10.8289 1.22562 10.7322L0.292588 10.3724C0.256719 10.4654 0.219002 10.5625 0.182483 10.6577L1.11619 11.0157ZM0.711159 11.05C0.962023 11.0742 1.18064 11.1121 1.46821 11.1481C1.73538 11.1816 2.02976 11.208 2.33203 11.1869L2.26248 10.1893C2.05769 10.2036 1.83941 10.1868 1.59249 10.1559C1.36597 10.1275 1.06904 10.0798 0.807047 10.0546L0.711159 11.05ZM2.33197 11.1869C3.39118 11.1132 4.23954 11.3125 4.96172 11.7311C5.69081 12.1536 6.32611 12.8198 6.92085 13.7344L7.75918 13.1892C7.11117 12.1927 6.37152 11.3923 5.46313 10.8658C4.54783 10.3354 3.49619 10.1035 2.26254 10.1893L2.33197 11.1869ZM6.92086 13.7344C7.31014 14.333 7.85758 14.8014 8.40073 15.2097C8.97503 15.6414 9.49149 15.9718 9.99062 16.3836L10.627 15.6123C10.117 15.1915 9.4893 14.777 9.00161 14.4103C8.48277 14.0203 8.0504 13.637 7.75918 13.1892L6.92086 13.7344ZM10.6474 16.3658L10.9073 16.1267L10.2301 15.3909L9.97021 15.6301L10.6474 16.3658ZM11.0651 15.6993C10.9409 14.6616 10.7886 13.6806 10.7219 12.6796L9.72415 12.7461C9.79311 13.7817 9.95339 14.826 10.0722 15.8182L11.0651 15.6993ZM10.7219 12.6796C10.7171 12.6064 10.7348 12.5053 10.7891 12.3417C10.83 12.2183 10.9273 11.9691 10.9786 11.7826L10.0145 11.5173C9.9682 11.6853 9.91714 11.7942 9.83995 12.0268C9.77608 12.2193 9.70589 12.4725 9.72415 12.7462L10.7219 12.6796ZM10.0534 11.8815C10.137 12.0416 10.2741 12.2509 10.3347 12.3542C10.4155 12.4918 10.452 12.58 10.4633 12.6478L11.4496 12.4831C11.4072 12.2291 11.2932 12.0117 11.1972 11.848C11.081 11.6501 11.015 11.5625 10.9397 11.4184L10.0534 11.8815ZM10.4633 12.6477C10.6149 13.5566 10.74 14.4585 10.7731 15.3527L11.7724 15.3157C11.7369 14.3573 11.6036 13.4058 11.4496 12.4832L10.4633 12.6477ZM10.7731 15.3529C10.7924 15.8707 10.9073 16.3596 11.2109 16.7509C11.5214 17.1512 11.9758 17.3811 12.5337 17.4823L12.7123 16.4984C12.3239 16.4279 12.1203 16.2918 12.001 16.1379C11.8747 15.9752 11.7876 15.7219 11.7724 15.3155L10.7731 15.3529ZM13.123 16.9904V14.4608H12.123V16.9904H13.123ZM12.6771 14.9579C12.7452 14.9505 12.8134 14.9431 12.8817 14.9357C12.95 14.9283 13.0185 14.9209 13.087 14.9134L12.9788 13.9193C12.9106 13.9267 12.8425 13.9341 12.7742 13.9415C12.7059 13.9489 12.6374 13.9563 12.5688 13.9638L12.6771 14.9579ZM12.5407 14.5047C12.6592 15.165 12.7947 15.7439 12.8664 16.3561L13.8596 16.2397C13.7834 15.5892 13.6315 14.9217 13.525 14.3281L12.5407 14.5047ZM12.8664 16.356C12.9137 16.7603 12.9623 17.3017 13.1905 17.7466C13.4501 18.2525 13.9123 18.5973 14.6469 18.6966L14.7809 17.7056C14.338 17.6457 14.1761 17.4769 14.0802 17.2901C13.953 17.0421 13.9148 16.7115 13.8596 16.2398L12.8664 16.356ZM15.2125 18.2382C15.2166 18.1832 15.2174 18.13 15.2177 18.0889C15.2182 18.043 15.2181 18.0122 15.2193 17.9796C15.2216 17.9138 15.2279 17.8972 15.2269 17.8998L14.2906 17.5486C14.2338 17.7001 14.2233 17.847 14.2199 17.9449C14.215 18.0849 14.2207 18.0913 14.2153 18.164L15.2125 18.2382ZM15.2265 17.9008C15.2366 17.8742 15.2575 17.8356 15.3042 17.769C15.3333 17.7275 15.4254 17.6047 15.4776 17.5257L14.643 16.9748C14.5917 17.0526 14.5653 17.0811 14.4857 17.1946C14.4237 17.2829 14.3456 17.4028 14.291 17.5476L15.2265 17.9008ZM14.7092 17.6062C14.7691 17.6652 14.8354 17.7184 14.8853 17.7576C14.9433 17.8033 14.9807 17.8315 15.0186 17.8632C15.0568 17.8952 15.0637 17.9052 15.0584 17.8983C15.0545 17.8933 15.0393 17.873 15.0251 17.8383C15.0101 17.802 14.9936 17.7432 14.9984 17.6691L15.9963 17.7338C16.0102 17.5188 15.9071 17.3613 15.8504 17.2878C15.7879 17.2067 15.7136 17.1409 15.6606 17.0965C15.6072 17.0518 15.5432 17.0029 15.5036 16.9717C15.4557 16.9341 15.4281 16.9106 15.4115 16.8943L14.7092 17.6062ZM14.9984 17.6686C14.9715 18.0765 15.0288 18.4336 15.1704 18.7466C15.3119 19.0594 15.5235 19.297 15.7586 19.4865C15.9892 19.6722 16.25 19.8175 16.4979 19.9435C16.7719 20.0829 16.9794 20.1754 17.2373 20.3116L17.7043 19.4274C17.4582 19.2973 17.1557 19.1561 16.9511 19.0521C16.7204 18.9348 16.534 18.827 16.386 18.7077C16.2425 18.5921 16.1441 18.4728 16.0815 18.3345C16.0191 18.1964 15.9782 18.0082 15.9962 17.7344L14.9984 17.6686ZM17.9708 19.8699C17.971 19.6545 17.9955 19.4395 18.0224 19.1958C18.048 18.9639 18.0767 18.6982 18.0666 18.4357C18.0562 18.1661 18.0048 17.8777 17.8565 17.5961C17.707 17.3123 17.4765 17.0682 17.1569 16.8613L16.6135 17.7007C16.8122 17.8294 16.914 17.9526 16.9717 18.062C17.0305 18.1737 17.0608 18.3045 17.0674 18.4742C17.0742 18.651 17.0551 18.8445 17.0284 19.0862C17.0031 19.3159 16.971 19.5885 16.9708 19.8691L17.9708 19.8699ZM17.1568 16.8612C17.1587 16.8624 17.1482 16.8561 17.1268 16.8282C17.1048 16.7996 17.0793 16.7587 17.0474 16.6989C17.014 16.6362 16.985 16.5753 16.9439 16.4927C16.9063 16.417 16.8604 16.3272 16.8062 16.24L15.9567 16.7676C15.9847 16.8126 16.0133 16.8671 16.0485 16.9379C16.0803 17.002 16.1227 17.0901 16.1651 17.1696C16.2468 17.3227 16.3813 17.5506 16.6136 17.7008L17.1568 16.8612ZM16.3814 17.0038H17.4824V16.0038H16.3814V17.0038ZM17.9538 16.6703C18.079 16.3159 18.1425 15.9026 18.0202 15.4839C17.895 15.0553 17.5962 14.6927 17.1325 14.4106L16.6126 15.2648C16.9091 15.4452 17.0188 15.6223 17.0603 15.7643C17.1047 15.9164 17.0931 16.1048 17.0109 16.3372L17.9538 16.6703ZM17.1325 14.4105C16.72 14.1595 16.3268 13.8659 15.9779 13.5408L15.2962 14.2724C15.6985 14.6473 16.1467 14.9812 16.6127 15.2648L17.1325 14.4105ZM15.978 13.5409C15.9304 13.4965 15.8797 13.4251 15.8125 13.301C15.7625 13.2088 15.6639 13.0059 15.5818 12.8684L14.7233 13.3812C14.7991 13.5081 14.8346 13.5953 14.9333 13.7774C15.0147 13.9277 15.1273 14.115 15.2961 14.2724L15.978 13.5409ZM15.0638 13.6169C15.2197 13.645 15.4523 13.6637 15.5461 13.6758C15.6827 13.6934 15.7483 13.7145 15.7839 13.7347L16.2778 12.8652C16.067 12.7454 15.8413 12.7056 15.6742 12.684C15.4643 12.6569 15.381 12.658 15.2413 12.6328L15.0638 13.6169ZM15.7836 13.7345C16.2174 13.9813 16.5735 14.2933 17.1098 14.685L17.6996 13.8774C17.2498 13.5489 16.7765 13.1489 16.2781 12.8653L15.7836 13.7345ZM17.8785 14.441C18.0399 13.9622 18.1138 13.4883 17.9875 13.0373C17.8572 12.5725 17.5402 12.2204 17.1044 11.9377L16.5601 12.7765C16.8638 12.9736 16.9799 13.1477 17.0245 13.307C17.073 13.4802 17.0634 13.7285 16.9309 14.1214L17.8785 14.441ZM17.1045 11.9377C16.2065 11.3549 15.3573 10.6819 14.5014 9.98952L13.8725 10.767C14.7286 11.4596 15.6138 12.1624 16.5601 12.7765L17.1045 11.9377ZM14.5014 9.98951C14.5274 10.0105 14.5323 10.0259 14.5247 10.0112C14.5167 9.99561 14.5048 9.9663 14.4889 9.91315C14.4722 9.85723 14.4593 9.80416 14.4384 9.72519C14.4198 9.65465 14.3954 9.5665 14.3623 9.47923L13.4275 9.8344C13.4409 9.86982 13.4544 9.91536 13.4717 9.98081C13.4867 10.0378 13.508 10.123 13.5306 10.199C13.5716 10.3363 13.6551 10.5912 13.8725 10.767L14.5014 9.98951ZM13.8106 10.1497C13.8959 10.1642 13.9794 10.1713 14.0465 10.1763C14.1215 10.1818 14.1712 10.1845 14.2249 10.1901C14.3391 10.2018 14.3461 10.2173 14.325 10.2025L14.8989 9.38358C14.6961 9.24147 14.4656 9.20952 14.3271 9.1953C14.2545 9.18784 14.1741 9.18298 14.1203 9.179C14.0587 9.17444 14.0148 9.17007 13.9791 9.16396L13.8106 10.1497ZM14.3252 10.2026C15.2442 10.8462 16.1303 11.5273 17.1963 12.3206L17.7933 11.5184C16.7438 10.7374 15.8336 10.0381 14.8988 9.38348L14.3252 10.2026ZM17.9934 11.9567C18.0411 11.3171 18.1536 10.5635 18.1574 9.90566C18.1614 9.21 18.0539 8.4963 17.6268 7.81504L16.7795 8.34622C17.0701 8.80973 17.1608 9.31337 17.1574 9.8999C17.1538 10.5242 17.0532 11.1177 16.9962 11.8823L17.9934 11.9567ZM17.6267 7.81497C17.0058 6.825 16.7237 5.8797 16.7329 4.95888C16.7422 4.03697 17.0439 3.09802 17.6586 2.12267L16.8126 1.58951C16.121 2.68686 15.7444 3.8045 15.733 4.94885C15.7215 6.09428 16.0762 7.22489 16.7795 8.34629L17.6267 7.81497ZM17.6586 2.12271C17.8882 1.75842 18.0649 1.29647 18.2068 1.00037L17.305 0.568194C17.1033 0.98897 17.0038 1.28608 16.8126 1.58947L17.6586 2.12271ZM17.8208 1.28005C17.9217 1.26684 18.0234 1.25353 18.1249 1.24001L17.9929 0.248762C17.8927 0.262111 17.7922 0.275266 17.691 0.288508L17.8208 1.28005ZM17.6028 0.949138C17.8987 1.60849 18.1914 2.45359 18.6162 3.15895L19.4729 2.6431C19.0873 2.00275 18.8669 1.32355 18.5151 0.539632L17.6028 0.949138ZM18.6162 3.15899C19.0095 3.81193 19.1847 4.42359 19.1789 5.01361C19.1731 5.60431 18.9856 6.21296 18.5899 6.85854L19.4425 7.38111C19.9125 6.61422 20.171 5.83046 20.1788 5.02337C20.1867 4.21559 19.9432 3.42408 19.4728 2.64306L18.6162 3.15899ZM18.5899 6.8585C17.6255 8.43167 17.6207 10.1438 17.8423 11.952L18.8349 11.8304C18.6203 10.0794 18.6614 8.65525 19.4425 7.38115L18.5899 6.8585ZM18.6217 12.3033C19.8273 11.475 20.9594 10.6974 22.0916 9.91971L21.5254 9.09543C20.3932 9.87308 19.261 10.6508 18.0555 11.4791L18.6217 12.3033ZM21.4048 9.80262L21.7002 10.2067L22.5075 9.61664L22.2121 9.21251L21.4048 9.80262ZM21.7965 9.51731C21.03 10.1147 20.2222 10.717 19.4542 11.3504L20.0905 12.1219C20.8448 11.4997 21.6212 10.9217 22.4112 10.3061L21.7965 9.51731ZM19.4542 11.3504C19.2767 11.4969 19.0945 11.62 18.8687 11.7878C18.6588 11.9437 18.4267 12.1281 18.2326 12.3538C18.0338 12.5849 17.8671 12.8678 17.7979 13.2204C17.729 13.5721 17.7648 13.9529 17.9064 14.3688L18.853 14.0464C18.7554 13.7596 18.7507 13.5585 18.7792 13.4129C18.8076 13.2683 18.8765 13.1386 18.9907 13.0059C19.1096 12.8677 19.2678 12.737 19.4651 12.5904C19.6465 12.4556 19.8881 12.2888 20.0905 12.1219L19.4542 11.3504ZM18.6335 14.6384C19.3474 14.218 20.0692 13.793 20.7911 13.368L20.2837 12.5063C19.5619 12.9313 18.84 13.3563 18.126 13.7768L18.6335 14.6384ZM20.1104 13.1973C20.1723 13.2988 20.2343 13.4002 20.296 13.5012L21.1492 12.9796C21.0874 12.8784 21.0257 12.7777 20.9644 12.6769L20.1104 13.1973ZM20.2467 13.087C20.1831 13.2843 20.0364 13.4578 19.7826 13.6495C19.6563 13.7449 19.5152 13.8363 19.3574 13.9359C19.2049 14.0321 19.0319 14.1389 18.8687 14.2516C18.5443 14.4757 18.1867 14.7695 17.9736 15.201C17.7509 15.6519 17.7193 16.1812 17.9047 16.8068L18.8635 16.5228C18.7335 16.0841 18.7819 15.8227 18.8702 15.6439C18.9681 15.4457 19.1525 15.2709 19.4369 15.0745C19.5781 14.977 19.7262 14.8856 19.891 14.7817C20.0504 14.6811 20.2227 14.5703 20.3854 14.4474C20.7096 14.2025 21.0434 13.8748 21.1985 13.3938L20.2467 13.087ZM18.6012 17.1152C18.6568 17.0884 18.7075 17.0598 18.7471 17.0371C18.7916 17.0116 18.818 16.9959 18.8475 16.98C18.908 16.9472 18.9093 16.955 18.8828 16.9576L18.7825 15.9627C18.6042 15.9806 18.4589 16.0533 18.3718 16.1003C18.2471 16.1678 18.2387 16.1798 18.167 16.2144L18.6012 17.1152ZM18.883 16.9576C18.9241 16.9535 18.9802 16.9559 19.0707 16.9687C19.1305 16.9771 19.2926 17.0051 19.3944 17.0168L19.5087 16.0234C19.4038 16.0113 19.3575 15.9992 19.21 15.9784C19.0934 15.962 18.9434 15.9464 18.7823 15.9627L18.883 16.9576ZM18.9813 16.3501C18.9549 16.4233 18.9366 16.4978 18.9241 16.551C18.9092 16.6143 18.9017 16.6499 18.8912 16.6888C18.8809 16.7269 18.877 16.7309 18.883 16.7195C18.8875 16.7108 18.9274 16.6346 19.0312 16.5831L19.4754 17.4791C19.6397 17.3976 19.7266 17.2645 19.7697 17.1818C19.8143 17.0963 19.8405 17.0093 19.8567 16.9491C19.8728 16.8896 19.8882 16.8197 19.8975 16.7801C19.9092 16.7304 19.9165 16.7046 19.9217 16.6901L18.9813 16.3501ZM19.031 16.5832C18.6704 16.7622 18.3907 16.9884 18.1875 17.2652C17.9845 17.5419 17.8761 17.8443 17.8226 18.1489C17.7217 18.7221 17.8103 19.3856 17.8548 19.9471L18.8517 19.8679C18.7993 19.208 18.7353 18.7323 18.8074 18.3221C18.8403 18.1351 18.8999 17.9847 18.9937 17.8569C19.0874 17.7292 19.2336 17.599 19.4756 17.479L19.031 16.5832ZM18.6566 20.305C18.8018 20.1942 18.9698 20.105 19.1694 20.0093C19.3546 19.9204 19.5943 19.8143 19.8051 19.6895C20.0258 19.559 20.2542 19.3873 20.4365 19.1353C20.6216 18.8794 20.7382 18.5697 20.7786 18.1937L19.7844 18.0869C19.7603 18.3111 19.6975 18.4508 19.6262 18.5492C19.5522 18.6516 19.4474 18.7392 19.296 18.8288C19.1348 18.9242 18.9635 18.9989 18.7369 19.1076C18.5248 19.2094 18.2801 19.3344 18.0499 19.51L18.6566 20.305ZM20.7786 18.1936C20.783 18.1525 20.8074 18.0819 20.8887 17.947C20.9456 17.8526 21.0908 17.6387 21.1745 17.4796L20.2894 17.0142C20.2167 17.1523 20.1534 17.23 20.0324 17.4305C19.936 17.5904 19.8132 17.8178 19.7843 18.087L20.7786 18.1936ZM20.2791 17.459C20.4211 17.7622 20.5636 18.0658 20.7408 18.4438L21.6463 18.0195C21.4687 17.6406 21.3268 17.3381 21.1847 17.0349L20.2791 17.459ZM21.3498 18.7066C21.7445 18.5768 22.1493 18.3813 22.4516 18.0319C22.764 17.6709 22.9197 17.2016 22.9181 16.6188L21.9181 16.6215C21.9192 17.0163 21.8182 17.2357 21.6954 17.3776C21.5627 17.531 21.3538 17.6526 21.0373 17.7567L21.3498 18.7066ZM22.9181 16.6187C22.9172 16.3122 22.9647 15.9941 23.0333 15.6482C23.0975 15.3244 23.1921 14.9256 23.2538 14.5659L22.2682 14.3967C22.2076 14.7502 22.1296 15.0645 22.0524 15.4537C21.9796 15.8208 21.9169 16.2155 21.9181 16.6216L22.9181 16.6187ZM22.7116 14.9788C22.8365 14.9912 22.9616 15.0037 23.0866 15.0161L23.1853 14.0209C23.0603 14.0085 22.9352 13.9961 22.8104 13.9837L22.7116 14.9788ZM22.636 14.5185V16.9893H23.636V14.5185H22.636ZM23.2131 17.4834C23.7517 17.3993 24.2336 17.2236 24.5808 16.863C24.9355 16.4945 25.0793 16.0071 25.0946 15.452L24.095 15.4244C24.0838 15.8278 23.985 16.04 23.8603 16.1695C23.7281 16.3068 23.4939 16.4274 23.0589 16.4953L23.2131 17.4834ZM25.0946 15.4519C25.1201 14.5264 25.2765 13.6109 25.4073 12.6312L24.4161 12.4989C24.2918 13.4297 24.1224 14.4296 24.095 15.4244L25.0946 15.4519ZM25.4073 12.6313C25.4223 12.5191 25.453 12.3996 25.4956 12.259C25.5332 12.1348 25.5934 11.9544 25.6361 11.8007L24.6726 11.5331C24.6322 11.6785 24.5914 11.7948 24.5386 11.9688C24.4909 12.1263 24.4418 12.3064 24.4161 12.4988L25.4073 12.6313ZM25.0849 12.1621C25.228 12.1821 25.3717 12.2022 25.5148 12.2222L25.6534 11.2319C25.51 11.2118 25.3667 11.1918 25.2237 11.1717L25.0849 12.1621ZM25.0859 11.6842C24.9683 13.0529 24.8507 14.4215 24.726 15.8725L25.7224 15.9581C25.847 14.5071 25.9646 13.1385 26.0823 11.7699L25.0859 11.6842ZM25.4086 16.38C27.1479 15.6899 28.5959 14.6932 29.4861 13.0514L28.607 12.5748C27.8666 13.9403 26.6492 14.8119 25.0398 15.4505L25.4086 16.38ZM29.4861 13.0515C29.8533 12.3743 30.2989 11.9175 30.8157 11.6296C31.3343 11.3407 31.9593 11.2025 32.7144 11.2194L32.7368 10.2197C31.8461 10.1997 31.0362 10.3621 30.329 10.7561C29.62 11.151 29.0491 11.7595 28.607 12.5748L29.4861 13.0515ZM32.7147 11.2194C32.8463 11.2223 32.9713 11.2042 33.0504 11.1934C33.1434 11.1807 33.1902 11.1753 33.2303 11.176L33.2496 10.1762C33.1184 10.1737 32.9936 10.1918 32.915 10.2026C32.8224 10.2152 32.7759 10.2205 32.7365 10.2196L32.7147 11.2194ZM33.2304 11.176C33.8466 11.1877 34.4596 11.2113 35.0846 11.2307L35.1156 10.2311C34.5004 10.2121 33.8735 10.1881 33.2494 10.1762L33.2304 11.176ZM34.669 10.4777C34.367 10.992 33.9932 11.5632 33.6987 12.1431L34.5903 12.5959C34.8675 12.0501 35.1929 11.5604 35.5313 10.9841L34.669 10.4777ZM33.6987 12.1432C33.2664 12.9946 32.7202 13.572 32.0706 13.9345C31.4182 14.2985 30.6237 14.4667 29.6631 14.4359L29.631 15.4354C30.7257 15.4705 31.7103 15.2807 32.5579 14.8077C33.4084 14.3332 34.0833 13.5945 34.5903 12.5959L33.6987 12.1432ZM29.6631 14.4359C27.9167 14.3797 26.5532 15.3424 25.2959 16.2276L25.8715 17.0453C27.1757 16.1272 28.2705 15.3916 29.6309 15.4354L29.6631 14.4359ZM25.3805 17.0933C26.7281 17.6928 27.9958 18.257 29.264 18.8212L29.6704 17.9076C28.4026 17.3435 27.1344 16.7791 25.7869 16.1796L25.3805 17.0933ZM28.9824 18.2419C28.9678 18.2998 28.9532 18.3577 28.9387 18.4153C28.9242 18.473 28.9097 18.5305 28.8952 18.5879L29.8647 18.8329C29.8794 18.775 29.8939 18.7171 29.9084 18.6595C29.923 18.6018 29.9374 18.5443 29.952 18.4869L28.9824 18.2419ZM29.4222 18.2122C29.2731 18.1996 29.0623 18.2009 28.9701 18.1974C28.8421 18.1925 28.7713 18.1799 28.7257 18.1621L28.3623 19.0938C28.5679 19.174 28.775 19.1907 28.9322 19.1967C29.1252 19.204 29.2068 19.1975 29.3377 19.2086L29.4222 18.2122ZM28.7257 18.1621C27.8124 17.806 26.9373 17.4859 26.1305 17.0459L25.6517 17.9238C26.5292 18.4024 27.4809 18.75 28.3623 19.0938L28.7257 18.1621ZM26.1304 17.0459C25.6562 16.7873 25.1567 16.629 24.6373 16.7062C24.1113 16.7844 23.6597 17.0894 23.2535 17.5603L24.0107 18.2135C24.3201 17.8548 24.5725 17.7268 24.7843 17.6953C25.0028 17.6629 25.2749 17.7183 25.6517 17.9238L26.1304 17.0459ZM23.4345 18.3462C24.0336 18.6039 24.5395 18.7797 25.0269 19.0489L25.5104 18.1735C24.9663 17.8731 24.3465 17.6499 23.8297 17.4276L23.4345 18.3462ZM25.0268 19.0488C25.0235 19.047 25.0523 19.0636 25.1222 19.1695C25.1557 19.2202 25.1852 19.2696 25.2279 19.3385C25.2668 19.4014 25.3147 19.477 25.3698 19.5504L26.1697 18.9503C26.1428 18.9145 26.1144 18.8707 26.078 18.812C26.0454 18.7594 26.0008 18.6853 25.9568 18.6186C25.8717 18.4896 25.7319 18.2959 25.5105 18.1736L25.0268 19.0488ZM25.7514 18.7507C25.6068 18.756 25.3934 18.7832 25.3088 18.7902C25.1845 18.8004 25.1202 18.7952 25.0817 18.7844L24.8119 19.7473C25.0264 19.8074 25.2357 19.7996 25.3907 19.7868C25.5854 19.7708 25.6569 19.7548 25.7881 19.75L25.7514 18.7507ZM25.0816 18.7844C24.685 18.6734 24.3004 18.5212 23.9692 18.3218L23.4533 19.1785C23.8807 19.4358 24.3536 19.619 24.812 19.7474L25.0816 18.7844ZM23.9692 18.3218C23.5197 18.0511 23.036 17.8887 22.5275 17.9531C22.0152 18.018 21.5669 18.3015 21.1667 18.7416L21.9066 19.4144C22.2031 19.0883 22.4489 18.9711 22.6532 18.9452C22.8612 18.9188 23.1165 18.9756 23.4533 19.1784L23.9692 18.3218ZM21.284 19.5094C21.3406 19.5426 21.3963 19.5708 21.4411 19.593C21.4907 19.6176 21.5232 19.6332 21.5569 19.6511C21.6258 19.6875 21.6309 19.6992 21.622 19.6886L22.3873 19.0449C22.268 18.903 22.1212 18.8184 22.0247 18.7673C21.8895 18.6957 21.8681 18.6926 21.7893 18.6465L21.284 19.5094ZM21.6223 19.6889C21.6156 19.681 21.627 19.6908 21.6515 19.764C21.6635 19.7998 21.6736 19.8343 21.6894 19.8861C21.7037 19.9329 21.7221 19.9916 21.7451 20.0517L22.6789 19.6939C22.6471 19.6109 22.6487 19.5928 22.5997 19.4464C22.565 19.3426 22.5056 19.1852 22.387 19.0445L21.6223 19.6889ZM22.0956 19.3865C22.0204 19.4045 21.9481 19.4301 21.8966 19.4489C21.8353 19.4712 21.8005 19.4847 21.7617 19.4975C21.7229 19.5103 21.7181 19.5089 21.7325 19.5075C21.7418 19.5065 21.7682 19.5046 21.8054 19.5105C21.8441 19.5167 21.8999 19.5325 21.9581 19.5713L21.4034 20.4033C21.5701 20.5144 21.7436 20.5114 21.8326 20.5024C21.9283 20.4928 22.0159 20.4666 22.0742 20.4474C22.1326 20.4282 22.1997 20.4027 22.2385 20.3886C22.2872 20.3709 22.3133 20.3627 22.3284 20.359L22.0956 19.3865ZM21.9586 19.5716C21.6116 19.3397 21.2668 19.2069 20.9187 19.1699C20.5704 19.1328 20.2513 19.195 19.9614 19.3052C19.6768 19.4135 19.414 19.5708 19.1743 19.73C19.0537 19.8102 18.9337 19.8945 18.8178 19.9761C18.7002 20.0589 18.5868 20.1391 18.4713 20.2171L19.0311 21.0457C19.1564 20.9611 19.2786 20.8747 19.3937 20.7937C19.5104 20.7115 19.6199 20.6346 19.7278 20.5629C19.9453 20.4183 20.1357 20.3089 20.317 20.2399C20.4932 20.1729 20.6528 20.1472 20.8128 20.1642C20.973 20.1813 21.1659 20.2446 21.4029 20.403L21.9586 19.5716ZM18.5176 21.0735C18.7295 21.1854 18.9292 21.3207 19.1587 21.4717C19.3771 21.6154 19.6255 21.7753 19.8918 21.8917C20.1646 22.0109 20.4751 22.0933 20.8232 22.0699C21.1729 22.0463 21.5196 21.9186 21.8695 21.6817L21.3089 20.8536C21.0777 21.0101 20.8983 21.0625 20.7559 21.0721C20.6119 21.0819 20.4643 21.0505 20.2921 20.9753C20.1134 20.8972 19.9298 20.782 19.7083 20.6363C19.4979 20.4978 19.2497 20.3293 18.9848 20.1893L18.5176 21.0735ZM21.8694 21.6817C21.7863 21.738 21.7146 21.7366 21.712 21.7365C21.7075 21.7365 21.7216 21.7365 21.7681 21.7471C21.8156 21.7579 21.8591 21.7703 21.9307 21.789C21.9923 21.8051 22.0751 21.8258 22.1602 21.8378L22.2997 20.8476C22.2762 20.8443 22.2415 20.8366 22.1836 20.8215C22.1358 20.809 22.058 20.7874 21.9893 20.7719C21.9197 20.756 21.8228 20.7373 21.7193 20.7366C21.6179 20.7358 21.4595 20.7517 21.3089 20.8536L21.8694 21.6817ZM21.8081 21.0744C21.6115 21.3835 21.4148 21.6928 21.2172 22.0037L22.0612 22.5401C22.2588 22.2292 22.4553 21.92 22.6518 21.6111L21.8081 21.0744ZM21.2422 22.5759C21.4722 22.8761 21.7369 23.0864 22.0409 23.1999C22.344 23.313 22.6428 23.3139 22.9142 23.2676C23.1796 23.2222 23.4356 23.1286 23.6622 23.0367C23.9105 22.936 24.0953 22.8504 24.3164 22.7676L23.9656 21.8312C23.7364 21.917 23.4759 22.0332 23.2864 22.11C23.0751 22.1957 22.9008 22.2554 22.7458 22.2818C22.5969 22.3073 22.4855 22.2985 22.3907 22.2631C22.297 22.2281 22.1764 22.151 22.0361 21.9679L21.2422 22.5759ZM24.3166 22.7675C24.5178 22.6921 24.7461 22.6495 25.0133 22.6159C25.2545 22.5855 25.5874 22.5572 25.8679 22.513L25.7121 21.5252C25.4406 21.568 25.2054 21.5838 24.8883 21.6237C24.5971 21.6604 24.2769 21.7144 23.9655 21.8312L24.3166 22.7675ZM25.4984 21.6129C25.0446 21.9386 24.6387 22.2499 24.2003 22.537L24.7482 23.3735C25.2099 23.0712 25.661 22.7271 26.0815 22.4253L25.4984 21.6129ZM24.1999 22.5373C23.9809 22.681 23.7732 22.7529 23.4286 22.9244L23.874 23.8197C24.1004 23.7071 24.4662 23.5586 24.7486 23.3733L24.1999 22.5373ZM23.2817 23.7088C23.6691 24.1339 24.1034 24.4041 24.6042 24.4713C25.0964 24.5374 25.574 24.3965 26.0299 24.1608L25.5707 23.2724C25.2141 23.4568 24.95 23.5088 24.7373 23.4802C24.5331 23.4528 24.2992 23.3406 24.0209 23.0353L23.2817 23.7088ZM26.03 24.1608C26.9182 23.7015 27.8598 23.3316 28.8247 22.9534L28.4597 22.0224C27.503 22.3974 26.5127 22.7854 25.5707 23.2725L26.03 24.1608ZM28.8252 22.9532C28.8045 22.9614 28.8182 22.9483 28.9335 22.9634C28.988 22.9705 29.0382 22.9794 29.1132 22.9914C29.1807 23.0022 29.2643 23.0146 29.3514 23.0202L29.4152 22.0222C29.3777 22.0198 29.3327 22.0138 29.2707 22.0039C29.2163 21.9952 29.1362 21.9813 29.0628 21.9718C28.9225 21.9535 28.6901 21.9318 28.4592 22.0226L28.8252 22.9532ZM28.9736 22.2346C28.9197 22.3115 28.8742 22.3913 28.8384 22.4558C28.7985 22.5278 28.7725 22.5767 28.7422 22.6276C28.7134 22.6759 28.6938 22.7028 28.681 22.7173C28.6689 22.7312 28.6748 22.7201 28.701 22.7075L29.1346 23.6086C29.3839 23.4887 29.5261 23.2654 29.601 23.1398C29.6419 23.0713 29.6837 22.9935 29.7126 22.9414C29.7458 22.8817 29.7705 22.8399 29.793 22.8078L28.9736 22.2346ZM28.7011 22.7075C27.6942 23.1916 26.6663 23.6148 25.4956 24.125L25.895 25.0417C27.0412 24.5423 28.1052 24.1036 29.1344 23.6087L28.7011 22.7075ZM25.4008 24.9874C26.7919 26.0015 28.2512 26.8993 30.0771 26.8387L30.0439 25.8392C28.583 25.8878 27.3658 25.1823 25.9898 24.1793L25.4008 24.9874ZM30.0771 26.8387C30.8864 26.8118 31.5358 26.9606 32.0662 27.2678C32.5963 27.5747 33.047 28.0625 33.4214 28.7792L34.3078 28.3162C33.8653 27.4693 33.2947 26.8235 32.5673 26.4024C31.8404 25.9814 30.9961 25.8076 30.0439 25.8392L30.0771 26.8387ZM33.4214 28.7792C33.6129 29.1456 33.8536 29.4742 34.091 29.7748C34.3409 30.0915 34.5611 30.3467 34.7807 30.6405L35.5816 30.0417C35.3566 29.7408 35.0882 29.4242 34.8759 29.1552C34.651 28.8703 34.4558 28.5995 34.3078 28.3162L33.4214 28.7792ZM34.7469 30.0932C34.6828 30.2055 34.6188 30.3176 34.5546 30.4299L35.4228 30.9262C35.4872 30.8136 35.5513 30.7013 35.6154 30.589L34.7469 30.0932Z" fill="#2C3F58"/>
</svg>
