<svg width="19" height="18" viewBox="0 0 19 18" fill="none" xmlns="http://www.w3.org/2000/svg">
<path fill-rule="evenodd" clip-rule="evenodd" d="M16 7.5C16 12.75 9.25 17.25 9.25 17.25C9.25 17.25 2.5 12.75 2.5 7.5C2.5 5.70979 3.21116 3.9929 4.47703 2.72703C5.7429 1.46116 7.45979 0.75 9.25 0.75C11.0402 0.75 12.7571 1.46116 14.023 2.72703C15.2888 3.9929 16 5.70979 16 7.5Z" stroke="white" stroke-linecap="round" stroke-linejoin="round"/>
<path fill-rule="evenodd" clip-rule="evenodd" d="M9.25 9.75C10.4926 9.75 11.5 8.74264 11.5 7.5C11.5 6.25736 10.4926 5.25 9.25 5.25C8.00736 5.25 7 6.25736 7 7.5C7 8.74264 8.00736 9.75 9.25 9.75Z" stroke="white" stroke-linecap="round" stroke-linejoin="round"/>
</svg>
