<svg width="17" height="13" viewBox="0 0 17 13" fill="none" xmlns="http://www.w3.org/2000/svg">
<mask id="path-1-inside-1_0_2606" fill="white">
<path fill-rule="evenodd" clip-rule="evenodd" d="M16.5294 13L10.0294 0L6.97058 6.11765L5.44117 3.05882L0.470581 13H3.5294H10.4118H16.5294Z"/>
</mask>
<path d="M10.0294 0L10.9238 -0.447214L10.0294 -2.23607L9.13498 -0.447214L10.0294 0ZM16.5294 13V14H18.1474L17.4238 12.5528L16.5294 13ZM6.97058 6.11765L6.07615 6.56486L6.97058 8.35372L7.86501 6.56486L6.97058 6.11765ZM5.44117 3.05882L6.3356 2.61161L5.44117 0.822756L4.54674 2.61161L5.44117 3.05882ZM0.470581 13L-0.423846 12.5528L-1.14745 14H0.470581V13ZM9.13498 0.447214L15.635 13.4472L17.4238 12.5528L10.9238 -0.447214L9.13498 0.447214ZM7.86501 6.56486L10.9238 0.447214L9.13498 -0.447214L6.07615 5.67043L7.86501 6.56486ZM4.54674 3.50604L6.07615 6.56486L7.86501 5.67043L6.3356 2.61161L4.54674 3.50604ZM1.36501 13.4472L6.3356 3.50604L4.54674 2.61161L-0.423846 12.5528L1.36501 13.4472ZM3.5294 12H0.470581V14H3.5294V12ZM10.4118 12H3.5294V14H10.4118V12ZM16.5294 12H10.4118V14H16.5294V12Z" fill="white" mask="url(#path-1-inside-1_0_2606)"/>
</svg>
