<svg width="17" height="20" viewBox="0 0 17 20" fill="none" xmlns="http://www.w3.org/2000/svg">
<path fill-rule="evenodd" clip-rule="evenodd" d="M3.25 18.75C4.4926 18.75 5.5 17.7426 5.5 16.5C5.5 15.2574 4.4926 14.25 3.25 14.25C2.00736 14.25 1 15.2574 1 16.5C1 17.7426 2.00736 18.75 3.25 18.75Z" stroke="white" stroke-linecap="round" stroke-linejoin="round"/>
<path fill-rule="evenodd" clip-rule="evenodd" d="M14.25 5.75C15.4926 5.75 16.5 4.74264 16.5 3.5C16.5 2.25736 15.4926 1.25 14.25 1.25C13.0074 1.25 12 2.25736 12 3.5C12 4.74264 13.0074 5.75 14.25 5.75Z" stroke="white" stroke-linecap="round" stroke-linejoin="round"/>
<path d="M10.25 3.50012C1.25 3.50012 1.25 2.62847 1.25 6.54697C1.25 10.4655 1.25 10.0163 7.7564 10.0163C14.2628 10.0163 14.25 10.0028 14.25 13.2696C14.25 16.5364 12.5593 16.6269 7.00846 16.5001" stroke="white" stroke-linecap="round" stroke-linejoin="bevel" stroke-dasharray="2"/>
</svg>
